<?xml version="1.0" encoding="utf-8"?>
<!-- Generator: Adobe Illustrator 23.0.2, SVG Export Plug-In . SVG Version: 6.00 Build 0)  -->
<svg version="1.1" id="圖層_1" xmlns="http://www.w3.org/2000/svg" xmlns:xlink="http://www.w3.org/1999/xlink" x="0px" y="0px"
	 viewBox="0 0 70.24 47.51" style="enable-background:new 0 0 70.24 47.51;" xml:space="preserve">
<style type="text/css">
	.st0{fill:url(#SVGID_1_);}
	.st1{fill:#272928;}
	.st2{fill:url(#SVGID_2_);}
	.st3{fill:url(#SVGID_3_);}
	.st4{fill:#566061;}
	.st5{fill:#434544;}
	.st6{fill:#232625;}
	.st7{fill:#B8D4DA;}
	.st8{fill:#D9E6E6;}
	.st9{filter:url(#Adobe_OpacityMaskFilter);}
	.st10{filter:url(#Adobe_OpacityMaskFilter_1_);}
	.st11{mask:url(#SVGID_4_);fill:url(#SVGID_5_);}
	.st12{fill:url(#SVGID_6_);}
	.st13{filter:url(#Adobe_OpacityMaskFilter_2_);}
	.st14{filter:url(#Adobe_OpacityMaskFilter_3_);}
	.st15{mask:url(#SVGID_7_);fill:url(#SVGID_8_);}
	.st16{fill:url(#SVGID_9_);}
	.st17{filter:url(#Adobe_OpacityMaskFilter_4_);}
	.st18{filter:url(#Adobe_OpacityMaskFilter_5_);}
	.st19{mask:url(#SVGID_10_);fill:url(#SVGID_11_);}
	.st20{fill:url(#SVGID_12_);}
	.st21{filter:url(#Adobe_OpacityMaskFilter_6_);}
	.st22{filter:url(#Adobe_OpacityMaskFilter_7_);}
	.st23{mask:url(#SVGID_13_);fill:url(#SVGID_14_);}
	.st24{fill:url(#SVGID_15_);}
	.st25{filter:url(#Adobe_OpacityMaskFilter_8_);}
	.st26{filter:url(#Adobe_OpacityMaskFilter_9_);}
	.st27{mask:url(#SVGID_16_);fill:url(#SVGID_17_);}
	.st28{fill:url(#SVGID_18_);}
	.st29{fill:#737373;}
	.st30{fill:url(#SVGID_19_);}
	.st31{fill:url(#SVGID_20_);}
	.st32{filter:url(#Adobe_OpacityMaskFilter_10_);}
	.st33{filter:url(#Adobe_OpacityMaskFilter_11_);}
	.st34{mask:url(#SVGID_21_);fill:url(#SVGID_22_);}
	.st35{fill:url(#SVGID_23_);}
	.st36{filter:url(#Adobe_OpacityMaskFilter_12_);}
	.st37{filter:url(#Adobe_OpacityMaskFilter_13_);}
	.st38{mask:url(#SVGID_24_);fill:url(#SVGID_25_);}
	.st39{fill:url(#SVGID_26_);}
	.st40{filter:url(#Adobe_OpacityMaskFilter_14_);}
	.st41{filter:url(#Adobe_OpacityMaskFilter_15_);}
	.st42{mask:url(#SVGID_27_);fill:url(#SVGID_28_);}
	.st43{fill:url(#SVGID_29_);}
	.st44{filter:url(#Adobe_OpacityMaskFilter_16_);}
	.st45{filter:url(#Adobe_OpacityMaskFilter_17_);}
	.st46{mask:url(#SVGID_30_);fill:url(#SVGID_31_);}
	.st47{fill:url(#SVGID_32_);}
	.st48{filter:url(#Adobe_OpacityMaskFilter_18_);}
	.st49{filter:url(#Adobe_OpacityMaskFilter_19_);}
	.st50{mask:url(#SVGID_33_);fill:url(#SVGID_34_);}
	.st51{fill:url(#SVGID_35_);}
	.st52{enable-background:new    ;}
	.st53{fill:#C5C5C5;}
	.st54{fill:#7F8080;}
	.st55{fill:#E4E4E4;}
	.st56{fill:#A7A7A6;}
	.st57{fill:#868685;}
	.st58{fill:#A0A0A0;}
	.st59{fill:#C0BFBF;}
	.st60{fill:#939293;}
	.st61{fill:#9A9A9A;}
	.st62{fill:#8D8D8D;}
	.st63{fill:#8A8A8A;}
	.st64{fill:#DDDCDC;}
	.st65{fill:#F1F1F1;}
	.st66{fill:#F0F0F0;}
	.st67{fill:#D2D2D2;}
	.st68{fill:#8F8F8F;}
	.st69{fill:#D7D7D7;}
	.st70{fill:#949394;}
	.st71{fill:#DCDBDB;}
	.st72{fill:#F2F2F2;}
	.st73{fill:#DBDADA;}
	.st74{fill:#B0B0B0;}
	.st75{fill:#D8D8D8;}
	.st76{fill:#A9A9A8;}
	.st77{fill:#868687;}
	.st78{fill:#D1D1D1;}
	.st79{fill:url(#SVGID_36_);}
	.st80{fill:url(#SVGID_37_);}
	.st81{filter:url(#Adobe_OpacityMaskFilter_20_);}
	.st82{filter:url(#Adobe_OpacityMaskFilter_21_);}
	.st83{mask:url(#SVGID_38_);fill:url(#SVGID_39_);}
	.st84{fill:url(#SVGID_40_);}
	.st85{filter:url(#Adobe_OpacityMaskFilter_22_);}
	.st86{filter:url(#Adobe_OpacityMaskFilter_23_);}
	.st87{mask:url(#SVGID_41_);fill:url(#SVGID_42_);}
	.st88{fill:url(#SVGID_43_);}
	.st89{filter:url(#Adobe_OpacityMaskFilter_24_);}
	.st90{filter:url(#Adobe_OpacityMaskFilter_25_);}
	.st91{mask:url(#SVGID_44_);fill:url(#SVGID_45_);}
	.st92{fill:url(#SVGID_46_);}
	.st93{filter:url(#Adobe_OpacityMaskFilter_26_);}
	.st94{filter:url(#Adobe_OpacityMaskFilter_27_);}
	.st95{mask:url(#SVGID_47_);fill:url(#SVGID_48_);}
	.st96{fill:url(#SVGID_49_);}
	.st97{filter:url(#Adobe_OpacityMaskFilter_28_);}
	.st98{filter:url(#Adobe_OpacityMaskFilter_29_);}
	.st99{mask:url(#SVGID_50_);fill:url(#SVGID_51_);}
	.st100{fill:url(#SVGID_52_);}
	.st101{fill:url(#SVGID_53_);}
	.st102{fill:url(#SVGID_54_);}
	.st103{filter:url(#Adobe_OpacityMaskFilter_30_);}
	.st104{filter:url(#Adobe_OpacityMaskFilter_31_);}
	.st105{mask:url(#SVGID_55_);fill:url(#SVGID_56_);}
	.st106{fill:url(#SVGID_57_);}
	.st107{filter:url(#Adobe_OpacityMaskFilter_32_);}
	.st108{filter:url(#Adobe_OpacityMaskFilter_33_);}
	.st109{mask:url(#SVGID_58_);fill:url(#SVGID_59_);}
	.st110{fill:url(#SVGID_60_);}
	.st111{filter:url(#Adobe_OpacityMaskFilter_34_);}
	.st112{filter:url(#Adobe_OpacityMaskFilter_35_);}
	.st113{mask:url(#SVGID_61_);fill:url(#SVGID_62_);}
	.st114{fill:url(#SVGID_63_);}
	.st115{filter:url(#Adobe_OpacityMaskFilter_36_);}
	.st116{filter:url(#Adobe_OpacityMaskFilter_37_);}
	.st117{mask:url(#SVGID_64_);fill:url(#SVGID_65_);}
	.st118{fill:url(#SVGID_66_);}
	.st119{filter:url(#Adobe_OpacityMaskFilter_38_);}
	.st120{filter:url(#Adobe_OpacityMaskFilter_39_);}
	.st121{mask:url(#SVGID_67_);fill:url(#SVGID_68_);}
	.st122{fill:url(#SVGID_69_);}
	.st123{fill:#EDEDEC;}
</style>
<g>
	<g>
		<linearGradient id="SVGID_1_" gradientUnits="userSpaceOnUse" x1="33.1415" y1="35.9896" x2="40.2183" y2="35.9896">
			<stop  offset="0.0443" style="stop-color:#313332"/>
			<stop  offset="0.7526" style="stop-color:#464847"/>
			<stop  offset="1" style="stop-color:#414241"/>
		</linearGradient>
		<path class="st0" d="M40.22,36.55C40.22,36.55,40.22,36.55,40.22,36.55V33.5l-7.07-0.11v3.04h0c-0.05,0.56,0.3,1.12,1.04,1.55
			c1.39,0.8,3.63,0.8,5,0.01C39.87,37.6,40.22,37.08,40.22,36.55L40.22,36.55L40.22,36.55z"/>
		<path class="st1" d="M39.19,34.95c-1.38,0.8-3.62,0.79-5-0.01c-1.39-0.8-1.39-2.09-0.02-2.89c1.38-0.8,3.62-0.79,5,0.01
			C40.56,32.86,40.57,34.16,39.19,34.95z"/>
		<g>
			<g>
				<linearGradient id="SVGID_2_" gradientUnits="userSpaceOnUse" x1="17.9518" y1="18.4816" x2="22.1518" y2="18.4816">
					<stop  offset="0.0443" style="stop-color:#8A8A8A"/>
					<stop  offset="0.6901" style="stop-color:#C5C5C5"/>
				</linearGradient>
				<path class="st2" d="M21.23,20.92C21.23,20.92,21.23,20.92,21.23,20.92l0.92-5.42l-4.2-0.13l0.93,5.51v0
					c0.02,0.2,0.16,0.39,0.41,0.53c0.44,0.24,1.1,0.24,1.54,0C21.06,21.29,21.2,21.11,21.23,20.92L21.23,20.92L21.23,20.92z"/>
				<linearGradient id="SVGID_3_" gradientUnits="userSpaceOnUse" x1="17.9494" y1="15.6329" x2="22.174" y2="15.6329">
					<stop  offset="0.0443" style="stop-color:#313332"/>
					<stop  offset="0.7526" style="stop-color:#464847"/>
					<stop  offset="1" style="stop-color:#414241"/>
				</linearGradient>
				<path class="st3" d="M22.17,15.97C22.17,15.97,22.17,15.97,22.17,15.97v-1.82l-4.22-0.07v1.81v0c-0.03,0.33,0.18,0.67,0.62,0.93
					c0.83,0.48,2.16,0.48,2.99,0.01C21.97,16.59,22.17,16.28,22.17,15.97L22.17,15.97L22.17,15.97z"/>
				<path class="st4" d="M21.56,15.01c-0.82,0.47-2.16,0.47-2.99-0.01c-0.83-0.48-0.83-1.25-0.01-1.72
					c0.82-0.47,2.16-0.47,2.99,0.01C22.38,13.77,22.38,14.54,21.56,15.01z"/>
			</g>
			<g>
				<g>
					<path class="st5" d="M19.47,14.44c0.3,0.17,0.78,0.17,1.08,0c0.3-0.17,0.3-0.45,0-0.62s-0.78-0.17-1.08,0
						S19.17,14.27,19.47,14.44z"/>
					<polygon class="st5" points="20.77,14.11 20.77,13.66 19.25,13.69 19.25,14.13 19.97,14.36 					"/>
					<path class="st4" d="M19.47,13.98c0.3,0.17,0.78,0.17,1.08,0c0.3-0.17,0.3-0.45,0-0.62c-0.3-0.17-0.78-0.17-1.08,0
						C19.17,13.53,19.17,13.8,19.47,13.98z"/>
					<path class="st5" d="M19.37,13.62C19.37,13.62,19.37,13.62,19.37,13.62V13.3l1.27-0.02v0.32h0c0.01,0.1-0.05,0.2-0.19,0.28
						c-0.25,0.14-0.65,0.15-0.9,0C19.44,13.81,19.37,13.71,19.37,13.62L19.37,13.62L19.37,13.62z"/>
					<path class="st4" d="M19.56,13.56c0.25,0.14,0.65,0.14,0.9,0c0.25-0.14,0.25-0.38,0-0.52c-0.25-0.14-0.65-0.14-0.9,0
						C19.31,13.18,19.31,13.42,19.56,13.56z"/>
				</g>
				<g>
					<path class="st6" d="M19.66,13.27C19.66,13.27,19.66,13.27,19.66,13.27v-0.64l0.72-0.01v0.64l0,0c0,0.06-0.03,0.11-0.11,0.16
						c-0.14,0.08-0.37,0.08-0.51,0C19.69,13.38,19.66,13.32,19.66,13.27L19.66,13.27L19.66,13.27z"/>
					<path class="st7" d="M20.12,12.8c0,0,1.97,0.15,3.12-0.14c1.15-0.29,5.68-1.94,5.68-1.94l0.24-0.45l-5.04,0.47l0,0l-3.36,1.1
						l-0.2,0.06l-0.2,0.07l-0.02,0.09L20.12,12.8z"/>
					<path class="st8" d="M20.12,12.8c0,0,1.97,0.15,3.12-0.14c1.15-0.29,5.68-1.94,5.68-1.94l0.24-0.45l-5.04,0.47l0,0
						c0,0-0.07,1.37-1.1,1.79c-1.03,0.41-1.68,0.09-1.68,0.09s0.21-0.73-0.5-0.78c-0.02,0-0.05,0-0.08,0
						c-0.06,0.01-0.13,0.03-0.2,0.06c-0.07,0.04-0.15,0.09-0.22,0.15L20.12,12.8z"/>
					<path class="st8" d="M10.54,14.9l0.58,0.19c0,0,4.34-0.7,5.81-1.16c0.3-0.1,0.6-0.2,0.89-0.32c1.12-0.44,2.03-0.94,2.03-0.94
						l-0.29-0.29c0,0-2.01-0.2-4.05,0.3l0,0c-0.2,0.05-0.4,0.11-0.6,0.17C12.71,13.56,10.59,14.87,10.54,14.9L10.54,14.9z"/>
					<path class="st7" d="M10.54,14.9c0.07-0.03,4.7-2.09,5.77-1.88c0.36,0.07,0.88,0.25,1.52,0.59c1.12-0.44,2.03-0.94,2.03-0.94
						l-0.29-0.29c0,0-2.01-0.2-4.05,0.3l0,0c-0.2,0.05-0.4,0.11-0.6,0.17C12.71,13.56,10.59,14.87,10.54,14.9z"/>
					<g>
						<defs>
							<filter id="Adobe_OpacityMaskFilter" filterUnits="userSpaceOnUse" x="9.3" y="6.55" width="20.71" height="11.95">
								<feFlood  style="flood-color:white;flood-opacity:1" result="back"/>
								<feBlend  in="SourceGraphic" in2="back" mode="normal"/>
							</filter>
						</defs>
						<mask maskUnits="userSpaceOnUse" x="9.3" y="6.55" width="20.71" height="11.95" id="SVGID_4_">
							<g class="st9">
								<defs>
									<filter id="Adobe_OpacityMaskFilter_1_" filterUnits="userSpaceOnUse" x="9.3" y="6.55" width="20.71" height="11.95">
										<feFlood  style="flood-color:white;flood-opacity:1" result="back"/>
										<feBlend  in="SourceGraphic" in2="back" mode="normal"/>
									</filter>
								</defs>
								<mask maskUnits="userSpaceOnUse" x="9.3" y="6.55" width="20.71" height="11.95" id="SVGID_4_">
								</mask>
								
									<linearGradient id="SVGID_5_" gradientUnits="userSpaceOnUse" x1="-1130.1127" y1="18.7302" x2="-1137.6691" y2="5.6422" gradientTransform="matrix(1 0 0 1 1153.3514 0)">
									<stop  offset="0" style="stop-color:#FFFFFF"/>
									<stop  offset="0.1262" style="stop-color:#F9F9F9"/>
									<stop  offset="0.3026" style="stop-color:#E6E6E6"/>
									<stop  offset="0.5085" style="stop-color:#C9C9C9"/>
									<stop  offset="0.7367" style="stop-color:#9F9F9F"/>
									<stop  offset="0.9807" style="stop-color:#6A6A6A"/>
									<stop  offset="1" style="stop-color:#666666"/>
								</linearGradient>
								<path class="st11" d="M26.95,8.31C22.9,5.97,16.34,5.96,12.31,8.29c-4.03,2.33-4.01,6.11,0.05,8.45
									c4.06,2.34,10.61,2.35,14.64,0.03C31.03,14.44,31.01,10.66,26.95,8.31z"/>
							</g>
						</mask>
						
							<linearGradient id="SVGID_6_" gradientUnits="userSpaceOnUse" x1="-1130.1127" y1="18.7302" x2="-1137.6691" y2="5.6422" gradientTransform="matrix(1 0 0 1 1153.3514 0)">
							<stop  offset="0" style="stop-color:#040000"/>
							<stop  offset="0.101" style="stop-color:#070505"/>
							<stop  offset="0.2422" style="stop-color:#151615"/>
							<stop  offset="0.4071" style="stop-color:#2F2E2B"/>
							<stop  offset="0.5899" style="stop-color:#56534F"/>
							<stop  offset="0.7874" style="stop-color:#90908E"/>
							<stop  offset="0.9946" style="stop-color:#E1EAEF"/>
							<stop  offset="1" style="stop-color:#E3EDF2"/>
						</linearGradient>
						<path class="st12" d="M26.95,8.31C22.9,5.97,16.34,5.96,12.31,8.29c-4.03,2.33-4.01,6.11,0.05,8.45
							c4.06,2.34,10.61,2.35,14.64,0.03C31.03,14.44,31.01,10.66,26.95,8.31z"/>
						<defs>
							<filter id="Adobe_OpacityMaskFilter_2_" filterUnits="userSpaceOnUse" x="18.79" y="6.84" width="9.77" height="5.98">
								<feFlood  style="flood-color:white;flood-opacity:1" result="back"/>
								<feBlend  in="SourceGraphic" in2="back" mode="normal"/>
							</filter>
						</defs>
						<mask maskUnits="userSpaceOnUse" x="18.79" y="6.84" width="9.77" height="5.98" id="SVGID_7_">
							<g class="st13">
								<defs>
									<filter id="Adobe_OpacityMaskFilter_3_" filterUnits="userSpaceOnUse" x="18.79" y="6.84" width="9.77" height="5.98">
										<feFlood  style="flood-color:white;flood-opacity:1" result="back"/>
										<feBlend  in="SourceGraphic" in2="back" mode="normal"/>
									</filter>
								</defs>
								<mask maskUnits="userSpaceOnUse" x="18.79" y="6.84" width="9.77" height="5.98" id="SVGID_7_">
								</mask>
								
									<linearGradient id="SVGID_8_" gradientUnits="userSpaceOnUse" x1="-1134.5648" y1="9.828" x2="-1124.7931" y2="9.828" gradientTransform="matrix(1 0 0 1 1153.3514 0)">
									<stop  offset="0" style="stop-color:#FFFFFF"/>
									<stop  offset="0.1262" style="stop-color:#F9F9F9"/>
									<stop  offset="0.3026" style="stop-color:#E6E6E6"/>
									<stop  offset="0.5085" style="stop-color:#C9C9C9"/>
									<stop  offset="0.7367" style="stop-color:#9F9F9F"/>
									<stop  offset="0.9807" style="stop-color:#6A6A6A"/>
									<stop  offset="1" style="stop-color:#666666"/>
								</linearGradient>
								<path class="st15" d="M28.19,9.68c-0.08-0.17-0.17-0.34-0.27-0.51c-0.72-1.19-2.66-2.18-4-2.33
									c-0.13-0.01-0.28-0.02-0.39,0.05c0.4,0.48,0.87,0.9,1.4,1.24c-0.23-0.15-0.21-0.25-0.53-0.32
									c-0.32-0.07-0.71-0.01-1.03,0.06c0.16,0.06,0.31,0.11,0.47,0.17c0.06,0.02,0.12,0.05,0.15,0.1
									c0.03,0.05,0.01,0.14-0.05,0.15c0.29,0.18,0.52,0.46,0.64,0.78C24.3,8.91,24.01,8.79,23.7,8.7c0.01,0.45,0.14,0.79,0.26,1.2
									c-0.21-0.08-0.43-0.15-0.65-0.19c-0.07-0.02-0.15-0.03-0.2,0.01c-0.16,0.11,0.07,0.39-0.03,0.56
									c-0.6,0.02-1.2-0.18-1.66-0.56c0.22,0.26,0.4,0.71,0.31,1.05c-0.09,0.35-0.34,0.43-0.68,0.57
									c-0.72,0.29-1.43,0.63-2.16,0.95c-0.54,0.24,1.2,0.52,1.2,0.52c0.35,0.06,1.14-0.45,1.44-0.58
									c0.49-0.21,0.98-0.43,1.46-0.66c0.52-0.25,0.89-0.19,1.45-0.01c0.35,0.11,0.7,0.38,0.72,0.75
									c-0.17-0.61-0.14-1.28,0.08-1.87c0.25,0.12,0.5,0.24,0.75,0.36c-0.09-0.04,0.2-1.06,0.24-1.17c0.13-0.4,0.25-0.47,0.66-0.29
									c0.61,0.27,1.16,0.96,1.66,1.39c-0.11-0.1-0.18-0.61-0.24-0.77C28.28,9.87,28.24,9.77,28.19,9.68z"/>
							</g>
						</mask>
						
							<linearGradient id="SVGID_9_" gradientUnits="userSpaceOnUse" x1="-1134.5648" y1="9.828" x2="-1124.7931" y2="9.828" gradientTransform="matrix(1 0 0 1 1153.3514 0)">
							<stop  offset="0" style="stop-color:#040000"/>
							<stop  offset="0.101" style="stop-color:#070505"/>
							<stop  offset="0.2422" style="stop-color:#151615"/>
							<stop  offset="0.4071" style="stop-color:#2F2E2B"/>
							<stop  offset="0.5899" style="stop-color:#56534F"/>
							<stop  offset="0.7874" style="stop-color:#90908E"/>
							<stop  offset="0.9946" style="stop-color:#E1EAEF"/>
							<stop  offset="1" style="stop-color:#E3EDF2"/>
						</linearGradient>
						<path class="st16" d="M28.19,9.68c-0.08-0.17-0.17-0.34-0.27-0.51c-0.72-1.19-2.66-2.18-4-2.33
							c-0.13-0.01-0.28-0.02-0.39,0.05c0.4,0.48,0.87,0.9,1.4,1.24c-0.23-0.15-0.21-0.25-0.53-0.32c-0.32-0.07-0.71-0.01-1.03,0.06
							c0.16,0.06,0.31,0.11,0.47,0.17c0.06,0.02,0.12,0.05,0.15,0.1c0.03,0.05,0.01,0.14-0.05,0.15c0.29,0.18,0.52,0.46,0.64,0.78
							C24.3,8.91,24.01,8.79,23.7,8.7c0.01,0.45,0.14,0.79,0.26,1.2c-0.21-0.08-0.43-0.15-0.65-0.19c-0.07-0.02-0.15-0.03-0.2,0.01
							c-0.16,0.11,0.07,0.39-0.03,0.56c-0.6,0.02-1.2-0.18-1.66-0.56c0.22,0.26,0.4,0.71,0.31,1.05c-0.09,0.35-0.34,0.43-0.68,0.57
							c-0.72,0.29-1.43,0.63-2.16,0.95c-0.54,0.24,1.2,0.52,1.2,0.52c0.35,0.06,1.14-0.45,1.44-0.58c0.49-0.21,0.98-0.43,1.46-0.66
							c0.52-0.25,0.89-0.19,1.45-0.01c0.35,0.11,0.7,0.38,0.72,0.75c-0.17-0.61-0.14-1.28,0.08-1.87c0.25,0.12,0.5,0.24,0.75,0.36
							c-0.09-0.04,0.2-1.06,0.24-1.17c0.13-0.4,0.25-0.47,0.66-0.29c0.61,0.27,1.16,0.96,1.66,1.39c-0.11-0.1-0.18-0.61-0.24-0.77
							C28.28,9.87,28.24,9.77,28.19,9.68z"/>
						<defs>
							<filter id="Adobe_OpacityMaskFilter_4_" filterUnits="userSpaceOnUse" x="9.77" y="11.72" width="10.51" height="5.91">
								<feFlood  style="flood-color:white;flood-opacity:1" result="back"/>
								<feBlend  in="SourceGraphic" in2="back" mode="normal"/>
							</filter>
						</defs>
						<mask maskUnits="userSpaceOnUse" x="9.77" y="11.72" width="10.51" height="5.91" id="SVGID_10_">
							<g class="st17">
								<defs>
									<filter id="Adobe_OpacityMaskFilter_5_" filterUnits="userSpaceOnUse" x="9.77" y="11.72" width="10.51" height="5.91">
										<feFlood  style="flood-color:white;flood-opacity:1" result="back"/>
										<feBlend  in="SourceGraphic" in2="back" mode="normal"/>
									</filter>
								</defs>
								<mask maskUnits="userSpaceOnUse" x="9.77" y="11.72" width="10.51" height="5.91" id="SVGID_10_">
								</mask>
								
									<linearGradient id="SVGID_11_" gradientUnits="userSpaceOnUse" x1="-1143.5804" y1="14.6817" x2="-1133.0686" y2="14.6817" gradientTransform="matrix(1 0 0 1 1153.3514 0)">
									<stop  offset="0" style="stop-color:#FFFFFF"/>
									<stop  offset="0.1262" style="stop-color:#F9F9F9"/>
									<stop  offset="0.3026" style="stop-color:#E6E6E6"/>
									<stop  offset="0.5085" style="stop-color:#C9C9C9"/>
									<stop  offset="0.7367" style="stop-color:#9F9F9F"/>
									<stop  offset="0.9807" style="stop-color:#6A6A6A"/>
									<stop  offset="1" style="stop-color:#666666"/>
								</linearGradient>
								<path class="st19" d="M20.18,12.25c0.54-0.24-1.2-0.52-1.2-0.52c-0.84,0.31-2.19,1.15-3.13,0.83
									c-0.34-0.12-0.55-0.45-0.74-0.77c-0.17,0.27-0.11,0.61-0.04,0.91c0.07,0.31,0.15,0.64,0.01,0.92
									c-0.14,0.28-0.6,0.4-0.76,0.13c-0.23,0.48-1,0.58-1.34,0.17c-0.1,0.23-0.2,0.46-0.3,0.69c-0.23-0.19-0.46-0.39-0.69-0.58
									c0,0.29,0,0.59,0,0.88c-0.45-0.1-0.87-0.33-1.19-0.66c-0.39-0.4-0.62-0.93-1.03-1.31c0,0.76,0.35,1.48,0.83,2.07
									c1.3,1.59,3.45,2.53,5.48,2.62c-0.76-0.35-1.44-0.89-1.96-1.55c0.56,0.13,1.1,0.31,1.63,0.54c0.01-0.24-0.04-0.49-0.16-0.71
									c0.46,0.04,0.92,0.05,1.38,0.02c-0.07-0.29-0.36-0.45-0.6-0.61c-0.25-0.16-0.5-0.43-0.42-0.71
									c0.23,0.01,0.45,0.03,0.68,0.04c0-0.16,0-0.32,0-0.49c0.65,0.02,1.39-0.13,1.94-0.5c-0.11,0.07-0.01-0.47,0-0.5
									c0.07-0.17,0.29-0.38,0.45-0.47C19.35,12.51,19.81,12.41,20.18,12.25z"/>
							</g>
						</mask>
						
							<linearGradient id="SVGID_12_" gradientUnits="userSpaceOnUse" x1="-1143.5804" y1="14.6817" x2="-1133.0686" y2="14.6817" gradientTransform="matrix(1 0 0 1 1153.3514 0)">
							<stop  offset="0" style="stop-color:#040000"/>
							<stop  offset="0.101" style="stop-color:#070505"/>
							<stop  offset="0.2422" style="stop-color:#151615"/>
							<stop  offset="0.4071" style="stop-color:#2F2E2B"/>
							<stop  offset="0.5899" style="stop-color:#56534F"/>
							<stop  offset="0.7874" style="stop-color:#90908E"/>
							<stop  offset="0.9946" style="stop-color:#E1EAEF"/>
							<stop  offset="1" style="stop-color:#E3EDF2"/>
						</linearGradient>
						<path class="st20" d="M20.18,12.25c0.54-0.24-1.2-0.52-1.2-0.52c-0.84,0.31-2.19,1.15-3.13,0.83
							c-0.34-0.12-0.55-0.45-0.74-0.77c-0.17,0.27-0.11,0.61-0.04,0.91c0.07,0.31,0.15,0.64,0.01,0.92c-0.14,0.28-0.6,0.4-0.76,0.13
							c-0.23,0.48-1,0.58-1.34,0.17c-0.1,0.23-0.2,0.46-0.3,0.69c-0.23-0.19-0.46-0.39-0.69-0.58c0,0.29,0,0.59,0,0.88
							c-0.45-0.1-0.87-0.33-1.19-0.66c-0.39-0.4-0.62-0.93-1.03-1.31c0,0.76,0.35,1.48,0.83,2.07c1.3,1.59,3.45,2.53,5.48,2.62
							c-0.76-0.35-1.44-0.89-1.96-1.55c0.56,0.13,1.1,0.31,1.63,0.54c0.01-0.24-0.04-0.49-0.16-0.71c0.46,0.04,0.92,0.05,1.38,0.02
							c-0.07-0.29-0.36-0.45-0.6-0.61c-0.25-0.16-0.5-0.43-0.42-0.71c0.23,0.01,0.45,0.03,0.68,0.04c0-0.16,0-0.32,0-0.49
							c0.65,0.02,1.39-0.13,1.94-0.5c-0.11,0.07-0.01-0.47,0-0.5c0.07-0.17,0.29-0.38,0.45-0.47
							C19.35,12.51,19.81,12.41,20.18,12.25z"/>
						<defs>
							<filter id="Adobe_OpacityMaskFilter_6_" filterUnits="userSpaceOnUse" x="9.31" y="12.3" width="20.7" height="6.2">
								<feFlood  style="flood-color:white;flood-opacity:1" result="back"/>
								<feBlend  in="SourceGraphic" in2="back" mode="normal"/>
							</filter>
						</defs>
						<mask maskUnits="userSpaceOnUse" x="9.31" y="12.3" width="20.7" height="6.2" id="SVGID_13_">
							<g class="st21">
								<defs>
									<filter id="Adobe_OpacityMaskFilter_7_" filterUnits="userSpaceOnUse" x="9.31" y="12.3" width="20.7" height="6.2">
										<feFlood  style="flood-color:white;flood-opacity:1" result="back"/>
										<feBlend  in="SourceGraphic" in2="back" mode="normal"/>
									</filter>
								</defs>
								<mask maskUnits="userSpaceOnUse" x="9.31" y="12.3" width="20.7" height="6.2" id="SVGID_13_">
								</mask>
								
									<linearGradient id="SVGID_14_" gradientUnits="userSpaceOnUse" x1="-1144.0459" y1="15.4038" x2="-1123.3419" y2="15.4038" gradientTransform="matrix(1 0 0 1 1153.3514 0)">
									<stop  offset="0" style="stop-color:#FFFFFF"/>
									<stop  offset="0.1262" style="stop-color:#F9F9F9"/>
									<stop  offset="0.3026" style="stop-color:#E6E6E6"/>
									<stop  offset="0.5085" style="stop-color:#C9C9C9"/>
									<stop  offset="0.7367" style="stop-color:#9F9F9F"/>
									<stop  offset="0.9807" style="stop-color:#6A6A6A"/>
									<stop  offset="1" style="stop-color:#666666"/>
								</linearGradient>
								<path class="st23" d="M27,16.39c-4.03,2.33-10.59,2.31-14.64-0.03c-1.95-1.13-2.97-2.59-3.05-4.06
									c-0.09,1.6,0.93,3.21,3.05,4.44c4.06,2.34,10.61,2.35,14.64,0.03c2.09-1.21,3.09-2.81,3-4.39
									C29.93,13.83,28.93,15.28,27,16.39z"/>
							</g>
						</mask>
						
							<linearGradient id="SVGID_15_" gradientUnits="userSpaceOnUse" x1="-1144.0459" y1="15.4038" x2="-1123.3419" y2="15.4038" gradientTransform="matrix(1 0 0 1 1153.3514 0)">
							<stop  offset="0" style="stop-color:#040000"/>
							<stop  offset="0.101" style="stop-color:#070505"/>
							<stop  offset="0.2422" style="stop-color:#151615"/>
							<stop  offset="0.4071" style="stop-color:#2F2E2B"/>
							<stop  offset="0.5899" style="stop-color:#56534F"/>
							<stop  offset="0.7874" style="stop-color:#90908E"/>
							<stop  offset="0.9946" style="stop-color:#E1EAEF"/>
							<stop  offset="1" style="stop-color:#E3EDF2"/>
						</linearGradient>
						<path class="st24" d="M27,16.39c-4.03,2.33-10.59,2.31-14.64-0.03c-1.95-1.13-2.97-2.59-3.05-4.06
							c-0.09,1.6,0.93,3.21,3.05,4.44c4.06,2.34,10.61,2.35,14.64,0.03c2.09-1.21,3.09-2.81,3-4.39
							C29.93,13.83,28.93,15.28,27,16.39z"/>
						<defs>
							<filter id="Adobe_OpacityMaskFilter_8_" filterUnits="userSpaceOnUse" x="9.31" y="6.17" width="20.7" height="6.2">
								<feFlood  style="flood-color:white;flood-opacity:1" result="back"/>
								<feBlend  in="SourceGraphic" in2="back" mode="normal"/>
							</filter>
						</defs>
						<mask maskUnits="userSpaceOnUse" x="9.31" y="6.17" width="20.7" height="6.2" id="SVGID_16_">
							<g class="st25">
								<defs>
									<filter id="Adobe_OpacityMaskFilter_9_" filterUnits="userSpaceOnUse" x="9.31" y="6.17" width="20.7" height="6.2">
										<feFlood  style="flood-color:white;flood-opacity:1" result="back"/>
										<feBlend  in="SourceGraphic" in2="back" mode="normal"/>
									</filter>
								</defs>
								<mask maskUnits="userSpaceOnUse" x="9.31" y="6.17" width="20.7" height="6.2" id="SVGID_16_">
								</mask>
								
									<linearGradient id="SVGID_17_" gradientUnits="userSpaceOnUse" x1="-1144.0461" y1="9.2734" x2="-1123.3422" y2="9.2734" gradientTransform="matrix(1 0 0 1 1153.3514 0)">
									<stop  offset="0" style="stop-color:#FFFFFF"/>
									<stop  offset="0.1262" style="stop-color:#F9F9F9"/>
									<stop  offset="0.3026" style="stop-color:#E6E6E6"/>
									<stop  offset="0.5085" style="stop-color:#C9C9C9"/>
									<stop  offset="0.7367" style="stop-color:#9F9F9F"/>
									<stop  offset="0.9807" style="stop-color:#6A6A6A"/>
									<stop  offset="1" style="stop-color:#666666"/>
								</linearGradient>
								<path class="st27" d="M12.31,8.29c4.03-2.33,10.59-2.32,14.64,0.03c1.95,1.13,2.97,2.59,3.05,4.06
									c0.09-1.6-0.93-3.21-3.05-4.44C22.9,5.6,16.34,5.58,12.31,7.91c-2.09,1.21-3.09,2.81-3,4.39
									C9.39,10.84,10.39,9.4,12.31,8.29z"/>
							</g>
						</mask>
						
							<linearGradient id="SVGID_18_" gradientUnits="userSpaceOnUse" x1="-1144.0461" y1="9.2734" x2="-1123.3422" y2="9.2734" gradientTransform="matrix(1 0 0 1 1153.3514 0)">
							<stop  offset="0" style="stop-color:#040000"/>
							<stop  offset="0.101" style="stop-color:#070505"/>
							<stop  offset="0.2422" style="stop-color:#151615"/>
							<stop  offset="0.4071" style="stop-color:#2F2E2B"/>
							<stop  offset="0.5899" style="stop-color:#56534F"/>
							<stop  offset="0.7874" style="stop-color:#90908E"/>
							<stop  offset="0.9946" style="stop-color:#E1EAEF"/>
							<stop  offset="1" style="stop-color:#E3EDF2"/>
						</linearGradient>
						<path class="st28" d="M12.31,8.29c4.03-2.33,10.59-2.32,14.64,0.03c1.95,1.13,2.97,2.59,3.05,4.06
							c0.09-1.6-0.93-3.21-3.05-4.44C22.9,5.6,16.34,5.58,12.31,7.91c-2.09,1.21-3.09,2.81-3,4.39C9.39,10.84,10.39,9.4,12.31,8.29z
							"/>
					</g>
					<path class="st29" d="M19.17,12.18c0,0-0.05-1.05,0.84-1.05c0.9,0,0.82,1.23,0.82,1.23s0,0.65-0.99,0.59
						C19.08,12.9,19.17,12.18,19.17,12.18z"/>
				</g>
			</g>
		</g>
		<g>
			<g>
				<linearGradient id="SVGID_19_" gradientUnits="userSpaceOnUse" x1="51.6013" y1="19.7837" x2="55.8013" y2="19.7837">
					<stop  offset="0.0443" style="stop-color:#8A8A8A"/>
					<stop  offset="0.6901" style="stop-color:#C5C5C5"/>
				</linearGradient>
				<path class="st30" d="M54.88,22.23C54.88,22.23,54.88,22.22,54.88,22.23l0.92-5.42l-4.2-0.13l0.93,5.51h0
					c0.02,0.2,0.16,0.39,0.41,0.53c0.44,0.24,1.1,0.24,1.54,0C54.71,22.59,54.85,22.41,54.88,22.23L54.88,22.23L54.88,22.23z"/>
				<linearGradient id="SVGID_20_" gradientUnits="userSpaceOnUse" x1="51.589" y1="16.9341" x2="55.8136" y2="16.9341">
					<stop  offset="0.0443" style="stop-color:#313332"/>
					<stop  offset="0.7526" style="stop-color:#464847"/>
					<stop  offset="1" style="stop-color:#414241"/>
				</linearGradient>
				<path class="st31" d="M55.81,17.27C55.81,17.27,55.81,17.27,55.81,17.27v-1.82l-4.22-0.07v1.81l0,0
					c-0.03,0.33,0.18,0.67,0.62,0.93c0.83,0.48,2.17,0.48,2.99,0.01C55.61,17.89,55.81,17.58,55.81,17.27L55.81,17.27L55.81,17.27z"
					/>
				<path class="st4" d="M55.2,16.32c-0.82,0.47-2.16,0.47-2.99-0.01c-0.83-0.48-0.83-1.25-0.01-1.72s2.16-0.47,2.99,0.01
					C56.02,15.07,56.02,15.84,55.2,16.32z"/>
			</g>
			<g>
				<g>
					<path class="st5" d="M53.11,15.74c0.3,0.17,0.78,0.17,1.08,0s0.3-0.45,0-0.62c-0.3-0.17-0.78-0.17-1.08,0
						C52.81,15.29,52.81,15.57,53.11,15.74z"/>
					<polygon class="st5" points="54.41,15.41 54.41,14.96 52.89,14.99 52.89,15.43 53.61,15.66 					"/>
					<path class="st4" d="M53.11,15.28c0.3,0.17,0.78,0.17,1.08,0s0.3-0.45,0-0.62c-0.3-0.17-0.78-0.17-1.08,0
						S52.81,15.11,53.11,15.28z"/>
					<path class="st5" d="M53.01,14.92L53.01,14.92V14.6l1.27-0.02v0.32l0,0c0.01,0.1-0.05,0.2-0.19,0.28
						c-0.25,0.14-0.65,0.15-0.9,0C53.08,15.11,53.01,15.01,53.01,14.92L53.01,14.92L53.01,14.92z"/>
					<path class="st4" d="M53.2,14.86c0.25,0.14,0.65,0.14,0.9,0c0.25-0.14,0.25-0.38,0-0.52c-0.25-0.14-0.65-0.14-0.9,0
						C52.95,14.48,52.95,14.72,53.2,14.86z"/>
				</g>
				<g>
					<path class="st6" d="M53.3,14.57L53.3,14.57v-0.64l0.72-0.01v0.64h0c0,0.06-0.03,0.11-0.11,0.16c-0.14,0.08-0.37,0.08-0.51,0
						C53.33,14.68,53.3,14.62,53.3,14.57L53.3,14.57L53.3,14.57z"/>
					<path class="st8" d="M53.37,14.1c0,0-1.97,0.15-3.12-0.14c-1.15-0.29-5.68-1.94-5.68-1.94l-0.24-0.45l5.04,0.47l0,0l3.36,1.1
						l0.2,0.06l0.2,0.07l0.02,0.09L53.37,14.1z"/>
					<path class="st7" d="M53.37,14.1c0,0-1.97,0.15-3.12-0.14c-1.15-0.29-5.68-1.94-5.68-1.94l-0.24-0.45l5.04,0.47l0,0
						c0,0,0.07,1.37,1.1,1.79c1.03,0.41,1.68,0.08,1.68,0.08s-0.21-0.72,0.5-0.78c0.02,0,0.05,0,0.08,0
						c0.06,0.01,0.13,0.03,0.2,0.06c0.07,0.04,0.15,0.09,0.22,0.15L53.37,14.1z"/>
					<path class="st8" d="M62.94,16.2l-0.58,0.19c0,0-4.34-0.7-5.81-1.16c-0.3-0.1-0.6-0.2-0.89-0.32
						c-1.12-0.44-2.03-0.94-2.03-0.94l0.29-0.29c0,0,2.01-0.2,4.05,0.3l0,0c0.2,0.05,0.4,0.11,0.6,0.17
						C60.77,14.86,62.9,16.17,62.94,16.2L62.94,16.2z"/>
					<path class="st7" d="M62.94,16.2c-0.07-0.03-4.7-2.09-5.77-1.88c-0.36,0.07-0.88,0.25-1.52,0.59
						c-1.12-0.44-2.03-0.94-2.03-0.94l0.29-0.29c0,0,2.01-0.2,4.05,0.3l0,0c0.2,0.05,0.4,0.11,0.6,0.17
						C60.77,14.86,62.9,16.17,62.94,16.2z"/>
					<g>
						<defs>
							<filter id="Adobe_OpacityMaskFilter_10_" filterUnits="userSpaceOnUse" x="43.35" y="8.13" width="20.71" height="11.95">
								<feFlood  style="flood-color:white;flood-opacity:1" result="back"/>
								<feBlend  in="SourceGraphic" in2="back" mode="normal"/>
							</filter>
						</defs>
						<mask maskUnits="userSpaceOnUse" x="43.35" y="8.13" width="20.71" height="11.95" id="SVGID_21_">
							<g class="st32">
								<defs>
									<filter id="Adobe_OpacityMaskFilter_11_" filterUnits="userSpaceOnUse" x="43.35" y="8.13" width="20.71" height="11.95">
										<feFlood  style="flood-color:white;flood-opacity:1" result="back"/>
										<feBlend  in="SourceGraphic" in2="back" mode="normal"/>
									</filter>
								</defs>
								<mask maskUnits="userSpaceOnUse" x="43.35" y="8.13" width="20.71" height="11.95" id="SVGID_21_">
								</mask>
								
									<linearGradient id="SVGID_22_" gradientUnits="userSpaceOnUse" x1="-1096.0687" y1="20.3144" x2="-1103.6251" y2="7.2265" gradientTransform="matrix(1 0 0 1 1153.3514 0)">
									<stop  offset="0" style="stop-color:#FFFFFF"/>
									<stop  offset="0.1262" style="stop-color:#F9F9F9"/>
									<stop  offset="0.3026" style="stop-color:#E6E6E6"/>
									<stop  offset="0.5085" style="stop-color:#C9C9C9"/>
									<stop  offset="0.7367" style="stop-color:#9F9F9F"/>
									<stop  offset="0.9807" style="stop-color:#6A6A6A"/>
									<stop  offset="1" style="stop-color:#666666"/>
								</linearGradient>
								<path class="st34" d="M61,9.9c-4.06-2.34-10.61-2.35-14.64-0.03c-4.03,2.33-4.01,6.11,0.05,8.45
									c4.06,2.34,10.61,2.35,14.64,0.03C65.07,16.02,65.05,12.24,61,9.9z"/>
							</g>
						</mask>
						
							<linearGradient id="SVGID_23_" gradientUnits="userSpaceOnUse" x1="-1096.0687" y1="20.3144" x2="-1103.6251" y2="7.2265" gradientTransform="matrix(1 0 0 1 1153.3514 0)">
							<stop  offset="0" style="stop-color:#040000"/>
							<stop  offset="0.101" style="stop-color:#070505"/>
							<stop  offset="0.2422" style="stop-color:#151615"/>
							<stop  offset="0.4071" style="stop-color:#2F2E2B"/>
							<stop  offset="0.5899" style="stop-color:#56534F"/>
							<stop  offset="0.7874" style="stop-color:#90908E"/>
							<stop  offset="0.9946" style="stop-color:#E1EAEF"/>
							<stop  offset="1" style="stop-color:#E3EDF2"/>
						</linearGradient>
						<path class="st35" d="M61,9.9c-4.06-2.34-10.61-2.35-14.64-0.03c-4.03,2.33-4.01,6.11,0.05,8.45
							c4.06,2.34,10.61,2.35,14.64,0.03C65.07,16.02,65.05,12.24,61,9.9z"/>
						<defs>
							<filter id="Adobe_OpacityMaskFilter_12_" filterUnits="userSpaceOnUse" x="52.83" y="8.42" width="9.77" height="5.98">
								<feFlood  style="flood-color:white;flood-opacity:1" result="back"/>
								<feBlend  in="SourceGraphic" in2="back" mode="normal"/>
							</filter>
						</defs>
						<mask maskUnits="userSpaceOnUse" x="52.83" y="8.42" width="9.77" height="5.98" id="SVGID_24_">
							<g class="st36">
								<defs>
									<filter id="Adobe_OpacityMaskFilter_13_" filterUnits="userSpaceOnUse" x="52.83" y="8.42" width="9.77" height="5.98">
										<feFlood  style="flood-color:white;flood-opacity:1" result="back"/>
										<feBlend  in="SourceGraphic" in2="back" mode="normal"/>
									</filter>
								</defs>
								<mask maskUnits="userSpaceOnUse" x="52.83" y="8.42" width="9.77" height="5.98" id="SVGID_24_">
								</mask>
								
									<linearGradient id="SVGID_25_" gradientUnits="userSpaceOnUse" x1="-1100.5209" y1="11.4123" x2="-1090.749" y2="11.4123" gradientTransform="matrix(1 0 0 1 1153.3514 0)">
									<stop  offset="0" style="stop-color:#FFFFFF"/>
									<stop  offset="0.1262" style="stop-color:#F9F9F9"/>
									<stop  offset="0.3026" style="stop-color:#E6E6E6"/>
									<stop  offset="0.5085" style="stop-color:#C9C9C9"/>
									<stop  offset="0.7367" style="stop-color:#9F9F9F"/>
									<stop  offset="0.9807" style="stop-color:#6A6A6A"/>
									<stop  offset="1" style="stop-color:#666666"/>
								</linearGradient>
								<path class="st38" d="M62.24,11.26c-0.08-0.17-0.17-0.34-0.27-0.51c-0.72-1.19-2.66-2.18-4-2.33
									c-0.13-0.01-0.28-0.02-0.39,0.05c0.4,0.48,0.87,0.9,1.4,1.24c-0.23-0.15-0.21-0.25-0.53-0.32
									c-0.32-0.07-0.71-0.01-1.03,0.06c0.16,0.06,0.31,0.11,0.47,0.17c0.06,0.02,0.12,0.05,0.15,0.1
									c0.03,0.05,0.01,0.14-0.05,0.15c0.29,0.18,0.52,0.46,0.64,0.78c-0.27-0.16-0.57-0.28-0.88-0.37
									c0.01,0.45,0.14,0.79,0.26,1.2c-0.21-0.08-0.43-0.15-0.65-0.19c-0.07-0.02-0.15-0.03-0.2,0.01
									c-0.16,0.11,0.07,0.39-0.03,0.56c-0.6,0.02-1.2-0.18-1.66-0.56c0.22,0.26,0.4,0.71,0.31,1.05
									c-0.09,0.35-0.34,0.43-0.68,0.57c-0.72,0.29-1.43,0.63-2.16,0.95c-0.54,0.24,1.2,0.52,1.2,0.52
									c0.35,0.06,1.14-0.45,1.44-0.58c0.49-0.21,0.98-0.43,1.46-0.66c0.52-0.25,0.89-0.19,1.45-0.01c0.35,0.11,0.7,0.38,0.72,0.75
									c-0.17-0.61-0.14-1.28,0.08-1.87c0.25,0.12,0.5,0.24,0.75,0.36c-0.09-0.04,0.2-1.06,0.24-1.17c0.13-0.4,0.25-0.47,0.66-0.29
									c0.61,0.27,1.16,0.96,1.66,1.39c-0.11-0.1-0.18-0.61-0.24-0.77C62.32,11.46,62.28,11.36,62.24,11.26z"/>
							</g>
						</mask>
						
							<linearGradient id="SVGID_26_" gradientUnits="userSpaceOnUse" x1="-1100.5209" y1="11.4123" x2="-1090.749" y2="11.4123" gradientTransform="matrix(1 0 0 1 1153.3514 0)">
							<stop  offset="0" style="stop-color:#040000"/>
							<stop  offset="0.101" style="stop-color:#070505"/>
							<stop  offset="0.2422" style="stop-color:#151615"/>
							<stop  offset="0.4071" style="stop-color:#2F2E2B"/>
							<stop  offset="0.5899" style="stop-color:#56534F"/>
							<stop  offset="0.7874" style="stop-color:#90908E"/>
							<stop  offset="0.9946" style="stop-color:#E1EAEF"/>
							<stop  offset="1" style="stop-color:#E3EDF2"/>
						</linearGradient>
						<path class="st39" d="M62.24,11.26c-0.08-0.17-0.17-0.34-0.27-0.51c-0.72-1.19-2.66-2.18-4-2.33
							c-0.13-0.01-0.28-0.02-0.39,0.05c0.4,0.48,0.87,0.9,1.4,1.24c-0.23-0.15-0.21-0.25-0.53-0.32c-0.32-0.07-0.71-0.01-1.03,0.06
							c0.16,0.06,0.31,0.11,0.47,0.17c0.06,0.02,0.12,0.05,0.15,0.1c0.03,0.05,0.01,0.14-0.05,0.15c0.29,0.18,0.52,0.46,0.64,0.78
							c-0.27-0.16-0.57-0.28-0.88-0.37c0.01,0.45,0.14,0.79,0.26,1.2c-0.21-0.08-0.43-0.15-0.65-0.19c-0.07-0.02-0.15-0.03-0.2,0.01
							c-0.16,0.11,0.07,0.39-0.03,0.56c-0.6,0.02-1.2-0.18-1.66-0.56c0.22,0.26,0.4,0.71,0.31,1.05c-0.09,0.35-0.34,0.43-0.68,0.57
							c-0.72,0.29-1.43,0.63-2.16,0.95c-0.54,0.24,1.2,0.52,1.2,0.52c0.35,0.06,1.14-0.45,1.44-0.58c0.49-0.21,0.98-0.43,1.46-0.66
							c0.52-0.25,0.89-0.19,1.45-0.01c0.35,0.11,0.7,0.38,0.72,0.75c-0.17-0.61-0.14-1.28,0.08-1.87c0.25,0.12,0.5,0.24,0.75,0.36
							c-0.09-0.04,0.2-1.06,0.24-1.17c0.13-0.4,0.25-0.47,0.66-0.29c0.61,0.27,1.16,0.96,1.66,1.39c-0.11-0.1-0.18-0.61-0.24-0.77
							C62.32,11.46,62.28,11.36,62.24,11.26z"/>
						<defs>
							<filter id="Adobe_OpacityMaskFilter_14_" filterUnits="userSpaceOnUse" x="43.81" y="13.31" width="10.51" height="5.91">
								<feFlood  style="flood-color:white;flood-opacity:1" result="back"/>
								<feBlend  in="SourceGraphic" in2="back" mode="normal"/>
							</filter>
						</defs>
						<mask maskUnits="userSpaceOnUse" x="43.81" y="13.31" width="10.51" height="5.91" id="SVGID_27_">
							<g class="st40">
								<defs>
									<filter id="Adobe_OpacityMaskFilter_15_" filterUnits="userSpaceOnUse" x="43.81" y="13.31" width="10.51" height="5.91">
										<feFlood  style="flood-color:white;flood-opacity:1" result="back"/>
										<feBlend  in="SourceGraphic" in2="back" mode="normal"/>
									</filter>
								</defs>
								<mask maskUnits="userSpaceOnUse" x="43.81" y="13.31" width="10.51" height="5.91" id="SVGID_27_">
								</mask>
								
									<linearGradient id="SVGID_28_" gradientUnits="userSpaceOnUse" x1="-1109.5365" y1="16.266" x2="-1099.0245" y2="16.266" gradientTransform="matrix(1 0 0 1 1153.3514 0)">
									<stop  offset="0" style="stop-color:#FFFFFF"/>
									<stop  offset="0.1262" style="stop-color:#F9F9F9"/>
									<stop  offset="0.3026" style="stop-color:#E6E6E6"/>
									<stop  offset="0.5085" style="stop-color:#C9C9C9"/>
									<stop  offset="0.7367" style="stop-color:#9F9F9F"/>
									<stop  offset="0.9807" style="stop-color:#6A6A6A"/>
									<stop  offset="1" style="stop-color:#666666"/>
								</linearGradient>
								<path class="st42" d="M54.22,13.83c0.54-0.24-1.2-0.52-1.2-0.52c-0.84,0.31-2.19,1.15-3.13,0.83
									c-0.34-0.12-0.55-0.45-0.74-0.77c-0.17,0.27-0.11,0.61-0.04,0.91c0.07,0.31,0.15,0.64,0.01,0.92s-0.6,0.4-0.76,0.13
									c-0.23,0.48-1,0.58-1.34,0.17c-0.1,0.23-0.2,0.46-0.3,0.69c-0.23-0.19-0.46-0.39-0.69-0.58c0,0.29,0,0.59,0,0.88
									c-0.45-0.1-0.87-0.33-1.19-0.66c-0.39-0.4-0.62-0.93-1.03-1.31c0,0.76,0.35,1.48,0.83,2.07c1.3,1.59,3.45,2.53,5.48,2.62
									c-0.76-0.35-1.44-0.89-1.96-1.55c0.56,0.13,1.1,0.31,1.63,0.54c0.01-0.24-0.04-0.49-0.16-0.71
									c0.46,0.04,0.92,0.05,1.38,0.02c-0.07-0.29-0.36-0.45-0.6-0.61c-0.25-0.16-0.5-0.43-0.42-0.71
									c0.23,0.01,0.45,0.03,0.68,0.04c0-0.16,0-0.32,0-0.49c0.65,0.02,1.39-0.13,1.94-0.5c-0.11,0.07-0.01-0.47,0-0.5
									c0.07-0.17,0.29-0.38,0.45-0.47C53.39,14.09,53.85,13.99,54.22,13.83z"/>
							</g>
						</mask>
						
							<linearGradient id="SVGID_29_" gradientUnits="userSpaceOnUse" x1="-1109.5365" y1="16.266" x2="-1099.0245" y2="16.266" gradientTransform="matrix(1 0 0 1 1153.3514 0)">
							<stop  offset="0" style="stop-color:#040000"/>
							<stop  offset="0.101" style="stop-color:#070505"/>
							<stop  offset="0.2422" style="stop-color:#151615"/>
							<stop  offset="0.4071" style="stop-color:#2F2E2B"/>
							<stop  offset="0.5899" style="stop-color:#56534F"/>
							<stop  offset="0.7874" style="stop-color:#90908E"/>
							<stop  offset="0.9946" style="stop-color:#E1EAEF"/>
							<stop  offset="1" style="stop-color:#E3EDF2"/>
						</linearGradient>
						<path class="st43" d="M54.22,13.83c0.54-0.24-1.2-0.52-1.2-0.52c-0.84,0.31-2.19,1.15-3.13,0.83
							c-0.34-0.12-0.55-0.45-0.74-0.77c-0.17,0.27-0.11,0.61-0.04,0.91c0.07,0.31,0.15,0.64,0.01,0.92s-0.6,0.4-0.76,0.13
							c-0.23,0.48-1,0.58-1.34,0.17c-0.1,0.23-0.2,0.46-0.3,0.69c-0.23-0.19-0.46-0.39-0.69-0.58c0,0.29,0,0.59,0,0.88
							c-0.45-0.1-0.87-0.33-1.19-0.66c-0.39-0.4-0.62-0.93-1.03-1.31c0,0.76,0.35,1.48,0.83,2.07c1.3,1.59,3.45,2.53,5.48,2.62
							c-0.76-0.35-1.44-0.89-1.96-1.55c0.56,0.13,1.1,0.31,1.63,0.54c0.01-0.24-0.04-0.49-0.16-0.71c0.46,0.04,0.92,0.05,1.38,0.02
							c-0.07-0.29-0.36-0.45-0.6-0.61c-0.25-0.16-0.5-0.43-0.42-0.71c0.23,0.01,0.45,0.03,0.68,0.04c0-0.16,0-0.32,0-0.49
							c0.65,0.02,1.39-0.13,1.94-0.5c-0.11,0.07-0.01-0.47,0-0.5c0.07-0.17,0.29-0.38,0.45-0.47
							C53.39,14.09,53.85,13.99,54.22,13.83z"/>
						<defs>
							<filter id="Adobe_OpacityMaskFilter_16_" filterUnits="userSpaceOnUse" x="43.35" y="13.89" width="20.7" height="6.2">
								<feFlood  style="flood-color:white;flood-opacity:1" result="back"/>
								<feBlend  in="SourceGraphic" in2="back" mode="normal"/>
							</filter>
						</defs>
						<mask maskUnits="userSpaceOnUse" x="43.35" y="13.89" width="20.7" height="6.2" id="SVGID_30_">
							<g class="st44">
								<defs>
									<filter id="Adobe_OpacityMaskFilter_17_" filterUnits="userSpaceOnUse" x="43.35" y="13.89" width="20.7" height="6.2">
										<feFlood  style="flood-color:white;flood-opacity:1" result="back"/>
										<feBlend  in="SourceGraphic" in2="back" mode="normal"/>
									</filter>
								</defs>
								<mask maskUnits="userSpaceOnUse" x="43.35" y="13.89" width="20.7" height="6.2" id="SVGID_30_">
								</mask>
								
									<linearGradient id="SVGID_31_" gradientUnits="userSpaceOnUse" x1="-1110.0018" y1="16.9881" x2="-1089.298" y2="16.9881" gradientTransform="matrix(1 0 0 1 1153.3514 0)">
									<stop  offset="0" style="stop-color:#FFFFFF"/>
									<stop  offset="0.1262" style="stop-color:#F9F9F9"/>
									<stop  offset="0.3026" style="stop-color:#E6E6E6"/>
									<stop  offset="0.5085" style="stop-color:#C9C9C9"/>
									<stop  offset="0.7367" style="stop-color:#9F9F9F"/>
									<stop  offset="0.9807" style="stop-color:#6A6A6A"/>
									<stop  offset="1" style="stop-color:#666666"/>
								</linearGradient>
								<path class="st46" d="M61.04,17.97c-4.03,2.33-10.58,2.32-14.64-0.03c-1.95-1.13-2.97-2.59-3.05-4.06
									c-0.09,1.6,0.93,3.21,3.05,4.44c4.06,2.34,10.61,2.35,14.64,0.03c2.09-1.21,3.09-2.81,3-4.39
									C63.97,15.42,62.97,16.86,61.04,17.97z"/>
							</g>
						</mask>
						
							<linearGradient id="SVGID_32_" gradientUnits="userSpaceOnUse" x1="-1110.0018" y1="16.9881" x2="-1089.298" y2="16.9881" gradientTransform="matrix(1 0 0 1 1153.3514 0)">
							<stop  offset="0" style="stop-color:#040000"/>
							<stop  offset="0.101" style="stop-color:#070505"/>
							<stop  offset="0.2422" style="stop-color:#151615"/>
							<stop  offset="0.4071" style="stop-color:#2F2E2B"/>
							<stop  offset="0.5899" style="stop-color:#56534F"/>
							<stop  offset="0.7874" style="stop-color:#90908E"/>
							<stop  offset="0.9946" style="stop-color:#E1EAEF"/>
							<stop  offset="1" style="stop-color:#E3EDF2"/>
						</linearGradient>
						<path class="st47" d="M61.04,17.97c-4.03,2.33-10.58,2.32-14.64-0.03c-1.95-1.13-2.97-2.59-3.05-4.06
							c-0.09,1.6,0.93,3.21,3.05,4.44c4.06,2.34,10.61,2.35,14.64,0.03c2.09-1.21,3.09-2.81,3-4.39
							C63.97,15.42,62.97,16.86,61.04,17.97z"/>
						<defs>
							<filter id="Adobe_OpacityMaskFilter_18_" filterUnits="userSpaceOnUse" x="43.35" y="7.76" width="20.7" height="6.2">
								<feFlood  style="flood-color:white;flood-opacity:1" result="back"/>
								<feBlend  in="SourceGraphic" in2="back" mode="normal"/>
							</filter>
						</defs>
						<mask maskUnits="userSpaceOnUse" x="43.35" y="7.76" width="20.7" height="6.2" id="SVGID_33_">
							<g class="st48">
								<defs>
									<filter id="Adobe_OpacityMaskFilter_19_" filterUnits="userSpaceOnUse" x="43.35" y="7.76" width="20.7" height="6.2">
										<feFlood  style="flood-color:white;flood-opacity:1" result="back"/>
										<feBlend  in="SourceGraphic" in2="back" mode="normal"/>
									</filter>
								</defs>
								<mask maskUnits="userSpaceOnUse" x="43.35" y="7.76" width="20.7" height="6.2" id="SVGID_33_">
								</mask>
								
									<linearGradient id="SVGID_34_" gradientUnits="userSpaceOnUse" x1="-1110.0021" y1="10.8577" x2="-1089.2982" y2="10.8577" gradientTransform="matrix(1 0 0 1 1153.3514 0)">
									<stop  offset="0" style="stop-color:#FFFFFF"/>
									<stop  offset="0.1262" style="stop-color:#F9F9F9"/>
									<stop  offset="0.3026" style="stop-color:#E6E6E6"/>
									<stop  offset="0.5085" style="stop-color:#C9C9C9"/>
									<stop  offset="0.7367" style="stop-color:#9F9F9F"/>
									<stop  offset="0.9807" style="stop-color:#6A6A6A"/>
									<stop  offset="1" style="stop-color:#666666"/>
								</linearGradient>
								<path class="st50" d="M46.36,9.87C50.39,7.54,56.94,7.56,61,9.9c1.95,1.13,2.97,2.59,3.05,4.06
									c0.09-1.6-0.93-3.21-3.05-4.44c-4.06-2.34-10.61-2.35-14.64-0.03c-2.09,1.21-3.09,2.81-3,4.39
									C43.43,12.43,44.43,10.98,46.36,9.87z"/>
							</g>
						</mask>
						
							<linearGradient id="SVGID_35_" gradientUnits="userSpaceOnUse" x1="-1110.0021" y1="10.8577" x2="-1089.2982" y2="10.8577" gradientTransform="matrix(1 0 0 1 1153.3514 0)">
							<stop  offset="0" style="stop-color:#040000"/>
							<stop  offset="0.101" style="stop-color:#070505"/>
							<stop  offset="0.2422" style="stop-color:#151615"/>
							<stop  offset="0.4071" style="stop-color:#2F2E2B"/>
							<stop  offset="0.5899" style="stop-color:#56534F"/>
							<stop  offset="0.7874" style="stop-color:#90908E"/>
							<stop  offset="0.9946" style="stop-color:#E1EAEF"/>
							<stop  offset="1" style="stop-color:#E3EDF2"/>
						</linearGradient>
						<path class="st51" d="M46.36,9.87C50.39,7.54,56.94,7.56,61,9.9c1.95,1.13,2.97,2.59,3.05,4.06c0.09-1.6-0.93-3.21-3.05-4.44
							c-4.06-2.34-10.61-2.35-14.64-0.03c-2.09,1.21-3.09,2.81-3,4.39C43.43,12.43,44.43,10.98,46.36,9.87z"/>
					</g>
					<path class="st29" d="M52.81,13.48c0,0-0.05-1.05,0.84-1.05s0.82,1.23,0.82,1.23s0,0.65-0.99,0.59
						C52.71,14.2,52.81,13.48,52.81,13.48z"/>
				</g>
			</g>
		</g>
		<g>
			<g class="st52">
				<polygon class="st53" points="29.29,20.96 36.29,22.9 44.8,21.28 38.97,24.35 32.51,23.75 				"/>
				<g>
					<polygon class="st54" points="21.32,20.73 20.68,20.01 27.71,26.33 28.04,26.85 					"/>
				</g>
				<g>
					<polygon class="st54" points="28.04,26.85 27.71,26.33 30.84,29.88 31.58,30.91 					"/>
				</g>
				<g>
					<polygon class="st55" points="32.8,23.06 29.03,25.22 20.7,17.53 22.18,16.7 					"/>
				</g>
				<g>
					<polygon class="st56" points="29.03,25.22 28.85,26.2 20.05,18.19 20.7,17.53 					"/>
				</g>
				<g>
					<polygon class="st57" points="32.25,27.43 30.84,29.88 27.71,26.33 20.09,19.48 20.05,18.19 28.85,26.2 					"/>
					<polygon class="st57" points="25.05,23.94 28.31,28.9 24.53,33.13 28.92,30.14 30.46,28.75 28.5,26.87 					"/>
				</g>
				<g>
					<polygon class="st58" points="35.35,28.75 31.58,30.91 32.74,26.58 36.51,24.42 					"/>
				</g>
				<g>
					<polygon class="st59" points="36.51,24.42 36.5,24.43 32.75,26.57 32.74,26.58 29.03,25.22 32.8,23.06 					"/>
				</g>
				<g>
					<polygon class="st60" points="32.75,26.67 30.84,29.88 32.25,27.43 32.74,26.58 					"/>
				</g>
				<g>
					<polygon class="st61" points="32.74,26.58 32.25,27.43 28.85,26.2 29.03,25.22 					"/>
				</g>
			</g>
		</g>
		<g>
			<g class="st52">
				<g>
					<polygon class="st62" points="52.96,21.28 52.31,22.01 45.14,27.43 45.46,26.87 					"/>
				</g>
				<g>
					<polygon class="st63" points="45.46,26.87 45.14,27.43 41.38,31.23 42.14,30.19 					"/>
				</g>
				<g>
					<polygon class="st64" points="44.12,25.59 40.42,23.45 51.59,17.92 52.99,18.74 					"/>
				</g>
				<g>
					<polygon class="st65" points="44.26,26.59 44.12,25.59 52.99,18.74 53.63,19.45 					"/>
				</g>
				<g>
					<polygon class="st53" points="41.41,27.29 44.26,26.59 53.63,19.45 52.96,21.28 45.46,26.87 42.14,30.19 					"/>
				</g>
				<polygon class="st53" points="48.45,24.64 45.31,29.05 47.78,32.64 44.26,30.24 42.69,29.18 45.58,26.61 				"/>
				<g>
					<polygon class="st66" points="41.41,27.29 40.21,26.57 44.12,25.59 44.26,26.59 					"/>
				</g>
				<g>
					<polygon class="st54" points="41.38,31.23 38.83,29.76 36.51,24.42 40.21,26.57 					"/>
				</g>
				<g>
					<polygon class="st53" points="42.14,30.19 41.38,31.23 40.21,26.57 41.41,27.29 					"/>
				</g>
				<g>
					<polygon class="st67" points="44.12,25.59 40.24,26.56 40.21,26.57 36.52,24.43 36.51,24.42 40.42,23.45 					"/>
				</g>
			</g>
		</g>
		<g>
			<g class="st52">
				<g>
					<polygon class="st68" points="31.61,35.29 31.93,34.74 36.51,34.03 35.37,34.36 					"/>
				</g>
				<g>
					<polygon class="st53" points="36.52,28.75 36.52,30.03 35.96,30.49 33.12,33.08 32.62,32.29 					"/>
				</g>
				<g>
					<polygon class="st69" points="36.52,28.75 36.51,28.76 32.62,32.29 28.92,30.14 32.75,26.67 32.82,26.61 					"/>
				</g>
				<g>
					<polygon class="st62" points="22.14,39.49 22.12,39.14 31.93,34.74 31.61,35.29 					"/>
				</g>
				<g>
					<polygon class="st70" points="20.81,39.92 20.76,39.66 22.12,39.14 22.14,39.49 					"/>
				</g>
				<g>
					<polygon class="st71" points="28.92,30.14 32.62,32.29 21.45,37 20.05,36.19 					"/>
				</g>
				<g>
					<polygon class="st72" points="32.62,32.29 33.12,33.08 21.45,38.09 21.45,37 					"/>
				</g>
				<g>
					<polygon class="st73" points="21.45,37 21.45,38.09 21.06,37.73 21.06,36.65 					"/>
				</g>
				<g>
					<polygon class="st53" points="20.76,39.66 20.87,39.62 20.83,40.02 					"/>
					<polygon class="st53" points="36.52,30.03 36.51,34.03 33.33,34.52 31.93,34.74 22.12,39.14 20.87,39.62 21.05,37.73 
						21.06,37.73 21.45,38.09 31.49,33.78 33.12,33.08 35.96,30.49 					"/>
				</g>
			</g>
		</g>
		<g>
			<g class="st52">
				<g>
					<polygon class="st54" points="41.11,34.74 41.43,35.29 37.66,34.36 36.51,34.03 					"/>
				</g>
				<g>
					<polygon class="st71" points="44.12,30.14 40.42,32.29 36.53,28.76 36.52,28.75 40.22,26.61 40.24,26.63 					"/>
				</g>
				<g>
					<polygon class="st74" points="37.07,30.49 36.52,30.03 36.52,28.75 40.42,32.29 39.92,33.08 					"/>
				</g>
				<g>
					<polygon class="st54" points="52.58,39.75 52.53,40.01 50.9,39.49 50.91,39.14 					"/>
				</g>
				<g>
					<polygon class="st54" points="50.91,39.14 50.9,39.49 41.43,35.29 41.11,34.74 					"/>
				</g>
				<g>
					<polygon class="st75" points="40.42,32.29 44.12,30.14 52.99,36.19 52.74,37.5 					"/>
				</g>
				<g>
					<polygon class="st76" points="39.92,33.08 40.42,32.29 52.74,37.5 52.74,38.58 					"/>
				</g>
				<g>
					<polygon class="st77" points="52.74,38.58 52.74,37.5 51.97,36.65 52.66,37.77 					"/>
				</g>
				<g>
					<polygon class="st63" points="52.61,38.53 52.74,38.82 52.58,39.75 50.91,39.14 41.11,34.74 39.7,34.52 36.51,34.03 
						36.52,30.03 37.07,30.49 39.92,33.08 41.53,33.77 					"/>
					<polygon class="st63" points="52.74,38.58 52.61,38.53 52.26,37.71 52.66,37.77 					"/>
				</g>
			</g>
		</g>
		<polygon class="st78" points="40.22,26.61 36.52,28.75 32.82,26.61 32.75,26.67 32.74,26.58 36.5,24.43 36.52,24.43 40.21,26.57 
					"/>
		<g>
			<g>
				<linearGradient id="SVGID_36_" gradientUnits="userSpaceOnUse" x1="51.5416" y1="38.4006" x2="55.7416" y2="38.4006">
					<stop  offset="0.0443" style="stop-color:#8A8A8A"/>
					<stop  offset="0.6901" style="stop-color:#C5C5C5"/>
				</linearGradient>
				<path class="st79" d="M54.82,40.84C54.82,40.84,54.82,40.84,54.82,40.84l0.92-5.42l-4.2-0.13l0.93,5.51l0,0
					c0.02,0.2,0.16,0.39,0.41,0.53c0.44,0.24,1.1,0.24,1.54,0C54.65,41.21,54.79,41.03,54.82,40.84L54.82,40.84L54.82,40.84z"/>
				<linearGradient id="SVGID_37_" gradientUnits="userSpaceOnUse" x1="51.5294" y1="35.0485" x2="55.7539" y2="35.0485">
					<stop  offset="0.0443" style="stop-color:#313332"/>
					<stop  offset="0.7526" style="stop-color:#464847"/>
					<stop  offset="1" style="stop-color:#414241"/>
				</linearGradient>
				<path class="st80" d="M55.75,35.39C55.75,35.38,55.75,35.38,55.75,35.39v-1.82l-4.22-0.07v1.81h0
					c-0.03,0.33,0.18,0.67,0.62,0.93c0.83,0.48,2.17,0.48,2.99,0.01C55.55,36.01,55.75,35.7,55.75,35.39L55.75,35.39L55.75,35.39z"
					/>
				<path class="st4" d="M55.14,34.43c-0.82,0.47-2.16,0.47-2.99-0.01c-0.83-0.48-0.83-1.25-0.01-1.72
					c0.82-0.47,2.16-0.47,2.99,0.01C55.96,33.18,55.96,33.96,55.14,34.43z"/>
			</g>
			<g>
				<g>
					<path class="st5" d="M53.05,33.86c0.3,0.17,0.78,0.17,1.08,0c0.3-0.17,0.3-0.45,0-0.62c-0.3-0.17-0.78-0.17-1.08,0
						C52.75,33.41,52.75,33.69,53.05,33.86z"/>
					<polygon class="st5" points="54.35,33.52 54.35,33.08 52.83,33.1 52.83,33.55 53.55,33.77 					"/>
					<path class="st4" d="M53.05,33.39c0.3,0.17,0.78,0.17,1.08,0s0.3-0.45,0-0.62c-0.3-0.17-0.78-0.17-1.08,0
						C52.75,32.94,52.75,33.22,53.05,33.39z"/>
					<path class="st5" d="M52.95,33.03C52.95,33.03,52.95,33.03,52.95,33.03v-0.32l1.27-0.02v0.32l0,0c0.01,0.1-0.05,0.2-0.19,0.28
						c-0.25,0.14-0.65,0.15-0.9,0C53.02,33.22,52.95,33.13,52.95,33.03L52.95,33.03L52.95,33.03z"/>
					<path class="st4" d="M53.14,32.97c0.25,0.14,0.65,0.14,0.9,0c0.25-0.14,0.25-0.38,0-0.52c-0.25-0.14-0.65-0.14-0.9,0
						C52.89,32.6,52.89,32.83,53.14,32.97z"/>
				</g>
				<g>
					<path class="st6" d="M53.24,32.69L53.24,32.69v-0.64l0.72-0.01v0.64l0,0c0,0.06-0.03,0.11-0.11,0.16
						c-0.14,0.08-0.37,0.08-0.51,0C53.27,32.79,53.24,32.74,53.24,32.69L53.24,32.69L53.24,32.69z"/>
					<path class="st7" d="M53.7,32.21c0,0,1.97,0.15,3.12-0.14c1.15-0.29,5.68-1.94,5.68-1.94l0.24-0.45l-5.04,0.47l0,0l-3.36,1.1
						l-0.2,0.06l-0.2,0.07l-0.02,0.08L53.7,32.21z"/>
					<path class="st8" d="M53.7,32.21c0,0,1.97,0.15,3.12-0.14c1.15-0.29,5.68-1.94,5.68-1.94l0.24-0.45l-5.04,0.47l0,0
						c0,0-0.07,1.37-1.1,1.79c-1.03,0.41-1.68,0.08-1.68,0.08s0.21-0.72-0.5-0.78c-0.02,0-0.05,0-0.08,0
						c-0.06,0.01-0.13,0.03-0.2,0.06c-0.07,0.04-0.15,0.09-0.22,0.15L53.7,32.21z"/>
					<path class="st8" d="M44.12,34.31l0.58,0.19c0,0,4.34-0.7,5.81-1.16c0.3-0.1,0.6-0.2,0.89-0.32c1.12-0.44,2.03-0.94,2.03-0.94
						l-0.29-0.29c0,0-2.01-0.2-4.05,0.3c0,0,0,0,0,0c-0.2,0.05-0.4,0.11-0.6,0.17C46.29,32.98,44.17,34.28,44.12,34.31L44.12,34.31z
						"/>
					<path class="st7" d="M44.12,34.31c0.07-0.03,4.7-2.09,5.77-1.88c0.36,0.07,0.88,0.25,1.52,0.59c1.12-0.44,2.03-0.94,2.03-0.94
						l-0.29-0.29c0,0-2.01-0.2-4.05,0.3c0,0,0,0,0,0c-0.2,0.05-0.4,0.11-0.6,0.17C46.29,32.98,44.17,34.28,44.12,34.31z"/>
					<g>
						<defs>
							<filter id="Adobe_OpacityMaskFilter_20_" filterUnits="userSpaceOnUse" x="43.22" y="26.46" width="20.71" height="11.95">
								<feFlood  style="flood-color:white;flood-opacity:1" result="back"/>
								<feBlend  in="SourceGraphic" in2="back" mode="normal"/>
							</filter>
						</defs>
						<mask maskUnits="userSpaceOnUse" x="43.22" y="26.46" width="20.71" height="11.95" id="SVGID_38_">
							<g class="st81">
								<defs>
									<filter id="Adobe_OpacityMaskFilter_21_" filterUnits="userSpaceOnUse" x="43.22" y="26.46" width="20.71" height="11.95">
										<feFlood  style="flood-color:white;flood-opacity:1" result="back"/>
										<feBlend  in="SourceGraphic" in2="back" mode="normal"/>
									</filter>
								</defs>
								<mask maskUnits="userSpaceOnUse" x="43.22" y="26.46" width="20.71" height="11.95" id="SVGID_38_">
								</mask>
								
									<linearGradient id="SVGID_39_" gradientUnits="userSpaceOnUse" x1="-1096.1976" y1="38.6417" x2="-1103.7539" y2="25.5538" gradientTransform="matrix(1 0 0 1 1153.3514 0)">
									<stop  offset="0" style="stop-color:#FFFFFF"/>
									<stop  offset="0.1262" style="stop-color:#F9F9F9"/>
									<stop  offset="0.3026" style="stop-color:#E6E6E6"/>
									<stop  offset="0.5085" style="stop-color:#C9C9C9"/>
									<stop  offset="0.7367" style="stop-color:#9F9F9F"/>
									<stop  offset="0.9807" style="stop-color:#6A6A6A"/>
									<stop  offset="1" style="stop-color:#666666"/>
								</linearGradient>
								<path class="st83" d="M60.87,28.23c-4.06-2.34-10.61-2.35-14.64-0.03c-4.03,2.33-4.01,6.11,0.05,8.45
									c4.06,2.34,10.61,2.35,14.64,0.03C64.95,34.35,64.93,30.57,60.87,28.23z"/>
							</g>
						</mask>
						
							<linearGradient id="SVGID_40_" gradientUnits="userSpaceOnUse" x1="-1096.1976" y1="38.6417" x2="-1103.7539" y2="25.5538" gradientTransform="matrix(1 0 0 1 1153.3514 0)">
							<stop  offset="0" style="stop-color:#040000"/>
							<stop  offset="0.101" style="stop-color:#070505"/>
							<stop  offset="0.2422" style="stop-color:#151615"/>
							<stop  offset="0.4071" style="stop-color:#2F2E2B"/>
							<stop  offset="0.5899" style="stop-color:#56534F"/>
							<stop  offset="0.7874" style="stop-color:#90908E"/>
							<stop  offset="0.9946" style="stop-color:#E1EAEF"/>
							<stop  offset="1" style="stop-color:#E3EDF2"/>
						</linearGradient>
						<path class="st84" d="M60.87,28.23c-4.06-2.34-10.61-2.35-14.64-0.03c-4.03,2.33-4.01,6.11,0.05,8.45
							c4.06,2.34,10.61,2.35,14.64,0.03C64.95,34.35,64.93,30.57,60.87,28.23z"/>
						<defs>
							<filter id="Adobe_OpacityMaskFilter_22_" filterUnits="userSpaceOnUse" x="52.7" y="26.75" width="9.77" height="5.98">
								<feFlood  style="flood-color:white;flood-opacity:1" result="back"/>
								<feBlend  in="SourceGraphic" in2="back" mode="normal"/>
							</filter>
						</defs>
						<mask maskUnits="userSpaceOnUse" x="52.7" y="26.75" width="9.77" height="5.98" id="SVGID_41_">
							<g class="st85">
								<defs>
									<filter id="Adobe_OpacityMaskFilter_23_" filterUnits="userSpaceOnUse" x="52.7" y="26.75" width="9.77" height="5.98">
										<feFlood  style="flood-color:white;flood-opacity:1" result="back"/>
										<feBlend  in="SourceGraphic" in2="back" mode="normal"/>
									</filter>
								</defs>
								<mask maskUnits="userSpaceOnUse" x="52.7" y="26.75" width="9.77" height="5.98" id="SVGID_41_">
								</mask>
								
									<linearGradient id="SVGID_42_" gradientUnits="userSpaceOnUse" x1="-1100.6498" y1="29.7395" x2="-1090.8779" y2="29.7395" gradientTransform="matrix(1 0 0 1 1153.3514 0)">
									<stop  offset="0" style="stop-color:#FFFFFF"/>
									<stop  offset="0.1262" style="stop-color:#F9F9F9"/>
									<stop  offset="0.3026" style="stop-color:#E6E6E6"/>
									<stop  offset="0.5085" style="stop-color:#C9C9C9"/>
									<stop  offset="0.7367" style="stop-color:#9F9F9F"/>
									<stop  offset="0.9807" style="stop-color:#6A6A6A"/>
									<stop  offset="1" style="stop-color:#666666"/>
								</linearGradient>
								<path class="st87" d="M62.11,29.59c-0.08-0.17-0.17-0.34-0.27-0.51c-0.72-1.19-2.66-2.18-4-2.33
									c-0.13-0.01-0.28-0.02-0.39,0.05c0.4,0.48,0.87,0.9,1.4,1.24c-0.23-0.15-0.21-0.25-0.53-0.32
									c-0.32-0.07-0.71-0.01-1.03,0.06c0.16,0.06,0.31,0.11,0.47,0.17c0.06,0.02,0.12,0.05,0.15,0.1
									c0.03,0.05,0.01,0.14-0.05,0.15c0.29,0.18,0.52,0.46,0.64,0.78c-0.27-0.16-0.57-0.28-0.88-0.37
									c0.01,0.45,0.14,0.79,0.26,1.2c-0.21-0.08-0.43-0.15-0.65-0.19c-0.07-0.02-0.15-0.03-0.2,0.01
									c-0.16,0.11,0.07,0.39-0.03,0.56c-0.6,0.02-1.2-0.18-1.66-0.56c0.22,0.26,0.4,0.71,0.31,1.05
									c-0.09,0.35-0.34,0.43-0.68,0.57c-0.72,0.29-1.43,0.63-2.16,0.95c-0.54,0.24,1.2,0.52,1.2,0.52
									c0.35,0.06,1.14-0.45,1.44-0.58c0.49-0.21,0.98-0.43,1.46-0.66c0.52-0.25,0.89-0.19,1.45-0.01c0.35,0.11,0.7,0.38,0.72,0.75
									c-0.17-0.61-0.14-1.28,0.08-1.87c0.25,0.12,0.5,0.24,0.75,0.36c-0.09-0.04,0.2-1.06,0.24-1.17c0.13-0.4,0.25-0.47,0.66-0.29
									c0.61,0.27,1.16,0.96,1.66,1.39c-0.11-0.1-0.18-0.61-0.24-0.77C62.2,29.78,62.15,29.69,62.11,29.59z"/>
							</g>
						</mask>
						
							<linearGradient id="SVGID_43_" gradientUnits="userSpaceOnUse" x1="-1100.6498" y1="29.7395" x2="-1090.8779" y2="29.7395" gradientTransform="matrix(1 0 0 1 1153.3514 0)">
							<stop  offset="0" style="stop-color:#040000"/>
							<stop  offset="0.101" style="stop-color:#070505"/>
							<stop  offset="0.2422" style="stop-color:#151615"/>
							<stop  offset="0.4071" style="stop-color:#2F2E2B"/>
							<stop  offset="0.5899" style="stop-color:#56534F"/>
							<stop  offset="0.7874" style="stop-color:#90908E"/>
							<stop  offset="0.9946" style="stop-color:#E1EAEF"/>
							<stop  offset="1" style="stop-color:#E3EDF2"/>
						</linearGradient>
						<path class="st88" d="M62.11,29.59c-0.08-0.17-0.17-0.34-0.27-0.51c-0.72-1.19-2.66-2.18-4-2.33
							c-0.13-0.01-0.28-0.02-0.39,0.05c0.4,0.48,0.87,0.9,1.4,1.24c-0.23-0.15-0.21-0.25-0.53-0.32c-0.32-0.07-0.71-0.01-1.03,0.06
							c0.16,0.06,0.31,0.11,0.47,0.17c0.06,0.02,0.12,0.05,0.15,0.1c0.03,0.05,0.01,0.14-0.05,0.15c0.29,0.18,0.52,0.46,0.64,0.78
							c-0.27-0.16-0.57-0.28-0.88-0.37c0.01,0.45,0.14,0.79,0.26,1.2c-0.21-0.08-0.43-0.15-0.65-0.19c-0.07-0.02-0.15-0.03-0.2,0.01
							c-0.16,0.11,0.07,0.39-0.03,0.56c-0.6,0.02-1.2-0.18-1.66-0.56c0.22,0.26,0.4,0.71,0.31,1.05c-0.09,0.35-0.34,0.43-0.68,0.57
							c-0.72,0.29-1.43,0.63-2.16,0.95c-0.54,0.24,1.2,0.52,1.2,0.52c0.35,0.06,1.14-0.45,1.44-0.58c0.49-0.21,0.98-0.43,1.46-0.66
							c0.52-0.25,0.89-0.19,1.45-0.01c0.35,0.11,0.7,0.38,0.72,0.75c-0.17-0.61-0.14-1.28,0.08-1.87c0.25,0.12,0.5,0.24,0.75,0.36
							c-0.09-0.04,0.2-1.06,0.24-1.17c0.13-0.4,0.25-0.47,0.66-0.29c0.61,0.27,1.16,0.96,1.66,1.39c-0.11-0.1-0.18-0.61-0.24-0.77
							C62.2,29.78,62.15,29.69,62.11,29.59z"/>
						<defs>
							<filter id="Adobe_OpacityMaskFilter_24_" filterUnits="userSpaceOnUse" x="43.69" y="31.64" width="10.51" height="5.91">
								<feFlood  style="flood-color:white;flood-opacity:1" result="back"/>
								<feBlend  in="SourceGraphic" in2="back" mode="normal"/>
							</filter>
						</defs>
						<mask maskUnits="userSpaceOnUse" x="43.69" y="31.64" width="10.51" height="5.91" id="SVGID_44_">
							<g class="st89">
								<defs>
									<filter id="Adobe_OpacityMaskFilter_25_" filterUnits="userSpaceOnUse" x="43.69" y="31.64" width="10.51" height="5.91">
										<feFlood  style="flood-color:white;flood-opacity:1" result="back"/>
										<feBlend  in="SourceGraphic" in2="back" mode="normal"/>
									</filter>
								</defs>
								<mask maskUnits="userSpaceOnUse" x="43.69" y="31.64" width="10.51" height="5.91" id="SVGID_44_">
								</mask>
								
									<linearGradient id="SVGID_45_" gradientUnits="userSpaceOnUse" x1="-1109.6654" y1="34.5933" x2="-1099.1534" y2="34.5933" gradientTransform="matrix(1 0 0 1 1153.3514 0)">
									<stop  offset="0" style="stop-color:#FFFFFF"/>
									<stop  offset="0.1262" style="stop-color:#F9F9F9"/>
									<stop  offset="0.3026" style="stop-color:#E6E6E6"/>
									<stop  offset="0.5085" style="stop-color:#C9C9C9"/>
									<stop  offset="0.7367" style="stop-color:#9F9F9F"/>
									<stop  offset="0.9807" style="stop-color:#6A6A6A"/>
									<stop  offset="1" style="stop-color:#666666"/>
								</linearGradient>
								<path class="st91" d="M54.09,32.16c0.54-0.24-1.21-0.52-1.21-0.52c-0.84,0.31-2.19,1.15-3.13,0.83
									c-0.34-0.12-0.55-0.45-0.74-0.77c-0.17,0.27-0.11,0.61-0.04,0.91c0.07,0.31,0.15,0.64,0.01,0.92
									c-0.14,0.28-0.6,0.4-0.76,0.13c-0.23,0.48-1,0.58-1.34,0.17c-0.1,0.23-0.2,0.46-0.3,0.69c-0.23-0.19-0.46-0.39-0.69-0.58
									c0,0.29,0,0.59,0,0.88c-0.45-0.1-0.87-0.33-1.19-0.66c-0.39-0.4-0.62-0.93-1.03-1.31c0,0.76,0.35,1.48,0.83,2.07
									c1.3,1.59,3.45,2.53,5.48,2.62c-0.76-0.35-1.44-0.89-1.96-1.55c0.56,0.13,1.1,0.31,1.63,0.54c0.01-0.24-0.04-0.49-0.16-0.71
									c0.46,0.04,0.92,0.05,1.38,0.02c-0.07-0.29-0.36-0.45-0.6-0.61c-0.25-0.16-0.5-0.43-0.42-0.71
									c0.23,0.01,0.45,0.03,0.68,0.04c0-0.16,0-0.32,0-0.49c0.65,0.02,1.39-0.13,1.94-0.5c-0.11,0.07-0.01-0.47,0-0.5
									c0.07-0.17,0.29-0.38,0.45-0.47C53.27,32.42,53.72,32.32,54.09,32.16z"/>
							</g>
						</mask>
						
							<linearGradient id="SVGID_46_" gradientUnits="userSpaceOnUse" x1="-1109.6654" y1="34.5933" x2="-1099.1534" y2="34.5933" gradientTransform="matrix(1 0 0 1 1153.3514 0)">
							<stop  offset="0" style="stop-color:#040000"/>
							<stop  offset="0.101" style="stop-color:#070505"/>
							<stop  offset="0.2422" style="stop-color:#151615"/>
							<stop  offset="0.4071" style="stop-color:#2F2E2B"/>
							<stop  offset="0.5899" style="stop-color:#56534F"/>
							<stop  offset="0.7874" style="stop-color:#90908E"/>
							<stop  offset="0.9946" style="stop-color:#E1EAEF"/>
							<stop  offset="1" style="stop-color:#E3EDF2"/>
						</linearGradient>
						<path class="st92" d="M54.09,32.16c0.54-0.24-1.21-0.52-1.21-0.52c-0.84,0.31-2.19,1.15-3.13,0.83
							c-0.34-0.12-0.55-0.45-0.74-0.77c-0.17,0.27-0.11,0.61-0.04,0.91c0.07,0.31,0.15,0.64,0.01,0.92c-0.14,0.28-0.6,0.4-0.76,0.13
							c-0.23,0.48-1,0.58-1.34,0.17c-0.1,0.23-0.2,0.46-0.3,0.69c-0.23-0.19-0.46-0.39-0.69-0.58c0,0.29,0,0.59,0,0.88
							c-0.45-0.1-0.87-0.33-1.19-0.66c-0.39-0.4-0.62-0.93-1.03-1.31c0,0.76,0.35,1.48,0.83,2.07c1.3,1.59,3.45,2.53,5.48,2.62
							c-0.76-0.35-1.44-0.89-1.96-1.55c0.56,0.13,1.1,0.31,1.63,0.54c0.01-0.24-0.04-0.49-0.16-0.71c0.46,0.04,0.92,0.05,1.38,0.02
							c-0.07-0.29-0.36-0.45-0.6-0.61c-0.25-0.16-0.5-0.43-0.42-0.71c0.23,0.01,0.45,0.03,0.68,0.04c0-0.16,0-0.32,0-0.49
							c0.65,0.02,1.39-0.13,1.94-0.5c-0.11,0.07-0.01-0.47,0-0.5c0.07-0.17,0.29-0.38,0.45-0.47
							C53.27,32.42,53.72,32.32,54.09,32.16z"/>
						<defs>
							<filter id="Adobe_OpacityMaskFilter_26_" filterUnits="userSpaceOnUse" x="43.22" y="32.22" width="20.7" height="6.2">
								<feFlood  style="flood-color:white;flood-opacity:1" result="back"/>
								<feBlend  in="SourceGraphic" in2="back" mode="normal"/>
							</filter>
						</defs>
						<mask maskUnits="userSpaceOnUse" x="43.22" y="32.22" width="20.7" height="6.2" id="SVGID_47_">
							<g class="st93">
								<defs>
									<filter id="Adobe_OpacityMaskFilter_27_" filterUnits="userSpaceOnUse" x="43.22" y="32.22" width="20.7" height="6.2">
										<feFlood  style="flood-color:white;flood-opacity:1" result="back"/>
										<feBlend  in="SourceGraphic" in2="back" mode="normal"/>
									</filter>
								</defs>
								<mask maskUnits="userSpaceOnUse" x="43.22" y="32.22" width="20.7" height="6.2" id="SVGID_47_">
								</mask>
								
									<linearGradient id="SVGID_48_" gradientUnits="userSpaceOnUse" x1="-1110.1307" y1="35.3154" x2="-1089.4269" y2="35.3154" gradientTransform="matrix(1 0 0 1 1153.3514 0)">
									<stop  offset="0" style="stop-color:#FFFFFF"/>
									<stop  offset="0.1262" style="stop-color:#F9F9F9"/>
									<stop  offset="0.3026" style="stop-color:#E6E6E6"/>
									<stop  offset="0.5085" style="stop-color:#C9C9C9"/>
									<stop  offset="0.7367" style="stop-color:#9F9F9F"/>
									<stop  offset="0.9807" style="stop-color:#6A6A6A"/>
									<stop  offset="1" style="stop-color:#666666"/>
								</linearGradient>
								<path class="st95" d="M60.92,36.3c-4.03,2.33-10.59,2.31-14.64-0.03c-1.95-1.13-2.97-2.59-3.05-4.06
									c-0.09,1.6,0.93,3.21,3.05,4.44c4.06,2.34,10.61,2.35,14.64,0.03c2.09-1.21,3.09-2.81,3-4.39
									C63.84,33.75,62.84,35.19,60.92,36.3z"/>
							</g>
						</mask>
						
							<linearGradient id="SVGID_49_" gradientUnits="userSpaceOnUse" x1="-1110.1307" y1="35.3154" x2="-1089.4269" y2="35.3154" gradientTransform="matrix(1 0 0 1 1153.3514 0)">
							<stop  offset="0" style="stop-color:#040000"/>
							<stop  offset="0.101" style="stop-color:#070505"/>
							<stop  offset="0.2422" style="stop-color:#151615"/>
							<stop  offset="0.4071" style="stop-color:#2F2E2B"/>
							<stop  offset="0.5899" style="stop-color:#56534F"/>
							<stop  offset="0.7874" style="stop-color:#90908E"/>
							<stop  offset="0.9946" style="stop-color:#E1EAEF"/>
							<stop  offset="1" style="stop-color:#E3EDF2"/>
						</linearGradient>
						<path class="st96" d="M60.92,36.3c-4.03,2.33-10.59,2.31-14.64-0.03c-1.95-1.13-2.97-2.59-3.05-4.06
							c-0.09,1.6,0.93,3.21,3.05,4.44c4.06,2.34,10.61,2.35,14.64,0.03c2.09-1.21,3.09-2.81,3-4.39
							C63.84,33.75,62.84,35.19,60.92,36.3z"/>
						<defs>
							<filter id="Adobe_OpacityMaskFilter_28_" filterUnits="userSpaceOnUse" x="43.22" y="26.08" width="20.7" height="6.2">
								<feFlood  style="flood-color:white;flood-opacity:1" result="back"/>
								<feBlend  in="SourceGraphic" in2="back" mode="normal"/>
							</filter>
						</defs>
						<mask maskUnits="userSpaceOnUse" x="43.22" y="26.08" width="20.7" height="6.2" id="SVGID_50_">
							<g class="st97">
								<defs>
									<filter id="Adobe_OpacityMaskFilter_29_" filterUnits="userSpaceOnUse" x="43.22" y="26.08" width="20.7" height="6.2">
										<feFlood  style="flood-color:white;flood-opacity:1" result="back"/>
										<feBlend  in="SourceGraphic" in2="back" mode="normal"/>
									</filter>
								</defs>
								<mask maskUnits="userSpaceOnUse" x="43.22" y="26.08" width="20.7" height="6.2" id="SVGID_50_">
								</mask>
								
									<linearGradient id="SVGID_51_" gradientUnits="userSpaceOnUse" x1="-1110.131" y1="29.185" x2="-1089.4271" y2="29.185" gradientTransform="matrix(1 0 0 1 1153.3514 0)">
									<stop  offset="0" style="stop-color:#FFFFFF"/>
									<stop  offset="0.1262" style="stop-color:#F9F9F9"/>
									<stop  offset="0.3026" style="stop-color:#E6E6E6"/>
									<stop  offset="0.5085" style="stop-color:#C9C9C9"/>
									<stop  offset="0.7367" style="stop-color:#9F9F9F"/>
									<stop  offset="0.9807" style="stop-color:#6A6A6A"/>
									<stop  offset="1" style="stop-color:#666666"/>
								</linearGradient>
								<path class="st99" d="M46.23,28.2c4.03-2.33,10.59-2.31,14.64,0.03c1.95,1.13,2.97,2.59,3.05,4.06
									c0.09-1.6-0.93-3.21-3.05-4.44c-4.06-2.34-10.61-2.35-14.64-0.03c-2.09,1.21-3.09,2.81-3,4.39
									C43.3,30.75,44.3,29.31,46.23,28.2z"/>
							</g>
						</mask>
						
							<linearGradient id="SVGID_52_" gradientUnits="userSpaceOnUse" x1="-1110.131" y1="29.185" x2="-1089.4271" y2="29.185" gradientTransform="matrix(1 0 0 1 1153.3514 0)">
							<stop  offset="0" style="stop-color:#040000"/>
							<stop  offset="0.101" style="stop-color:#070505"/>
							<stop  offset="0.2422" style="stop-color:#151615"/>
							<stop  offset="0.4071" style="stop-color:#2F2E2B"/>
							<stop  offset="0.5899" style="stop-color:#56534F"/>
							<stop  offset="0.7874" style="stop-color:#90908E"/>
							<stop  offset="0.9946" style="stop-color:#E1EAEF"/>
							<stop  offset="1" style="stop-color:#E3EDF2"/>
						</linearGradient>
						<path class="st100" d="M46.23,28.2c4.03-2.33,10.59-2.31,14.64,0.03c1.95,1.13,2.97,2.59,3.05,4.06
							c0.09-1.6-0.93-3.21-3.05-4.44c-4.06-2.34-10.61-2.35-14.64-0.03c-2.09,1.21-3.09,2.81-3,4.39
							C43.3,30.75,44.3,29.31,46.23,28.2z"/>
					</g>
					<path class="st29" d="M52.75,31.6c0,0-0.05-1.05,0.84-1.05c0.9,0,0.82,1.23,0.82,1.23s0,0.65-0.99,0.59
						C52.65,32.32,52.75,31.6,52.75,31.6z"/>
				</g>
			</g>
		</g>
		<g>
			<g>
				<linearGradient id="SVGID_53_" gradientUnits="userSpaceOnUse" x1="17.2982" y1="39.6658" x2="21.4982" y2="39.6658">
					<stop  offset="0.0443" style="stop-color:#8A8A8A"/>
					<stop  offset="0.6901" style="stop-color:#C5C5C5"/>
				</linearGradient>
				<path class="st101" d="M20.58,42.11C20.58,42.11,20.58,42.11,20.58,42.11l0.92-5.42l-4.2-0.13l0.93,5.51h0
					c0.02,0.2,0.16,0.39,0.41,0.53c0.44,0.24,1.1,0.24,1.54,0C20.41,42.47,20.55,42.3,20.58,42.11L20.58,42.11L20.58,42.11z"/>
				<linearGradient id="SVGID_54_" gradientUnits="userSpaceOnUse" x1="17.2982" y1="36.8153" x2="21.5228" y2="36.8153">
					<stop  offset="0.0443" style="stop-color:#313332"/>
					<stop  offset="0.7526" style="stop-color:#464847"/>
					<stop  offset="1" style="stop-color:#414241"/>
				</linearGradient>
				<path class="st102" d="M21.52,37.15C21.52,37.15,21.52,37.15,21.52,37.15v-1.82l-4.22-0.07v1.81l0,0
					c-0.03,0.33,0.18,0.67,0.62,0.93c0.83,0.48,2.16,0.48,2.99,0.01C21.32,37.78,21.52,37.47,21.52,37.15L21.52,37.15L21.52,37.15z"
					/>
				<path class="st4" d="M20.91,36.2c-0.82,0.47-2.16,0.47-2.99-0.01c-0.83-0.48-0.83-1.25-0.01-1.72c0.82-0.47,2.16-0.47,2.99,0.01
					C21.73,34.95,21.73,35.72,20.91,36.2z"/>
			</g>
			<g>
				<g>
					<path class="st5" d="M18.82,35.63c0.3,0.17,0.78,0.17,1.08,0s0.3-0.45,0-0.62c-0.3-0.17-0.78-0.17-1.08,0
						C18.52,35.17,18.52,35.45,18.82,35.63z"/>
					<polygon class="st5" points="20.12,35.29 20.12,34.85 18.6,34.87 18.6,35.32 19.32,35.54 					"/>
					<path class="st4" d="M18.82,35.16c0.3,0.17,0.78,0.17,1.08,0s0.3-0.45,0-0.62c-0.3-0.17-0.78-0.17-1.08,0
						C18.52,34.71,18.52,34.99,18.82,35.16z"/>
					<path class="st5" d="M18.72,34.8L18.72,34.8v-0.32L20,34.46v0.32h0c0.01,0.1-0.05,0.2-0.19,0.28c-0.25,0.14-0.65,0.15-0.9,0
						C18.78,34.99,18.72,34.9,18.72,34.8L18.72,34.8L18.72,34.8z"/>
					<path class="st4" d="M18.91,34.74c0.25,0.14,0.65,0.14,0.9,0c0.25-0.14,0.25-0.38,0-0.52c-0.25-0.14-0.65-0.14-0.9,0
						C18.66,34.36,18.66,34.6,18.91,34.74z"/>
				</g>
				<g>
					<path class="st6" d="M19.01,34.45C19.01,34.45,19.01,34.45,19.01,34.45v-0.64l0.72-0.01v0.64l0,0c0,0.06-0.03,0.11-0.11,0.16
						c-0.14,0.08-0.37,0.08-0.51,0C19.04,34.56,19.01,34.51,19.01,34.45L19.01,34.45L19.01,34.45z"/>
					<path class="st8" d="M18.92,33.98c0,0-1.97,0.15-3.12-0.14c-1.15-0.29-5.68-1.94-5.68-1.94l-0.24-0.45l5.04,0.47l0,0l3.36,1.1
						l0.2,0.06l0.2,0.07l0.02,0.09L18.92,33.98z"/>
					<path class="st7" d="M18.92,33.98c0,0-1.97,0.15-3.12-0.14c-1.15-0.29-5.68-1.94-5.68-1.94l-0.24-0.45l5.04,0.47l0,0
						c0,0,0.07,1.37,1.1,1.79c1.03,0.41,1.68,0.08,1.68,0.08s-0.21-0.72,0.5-0.78c0.02,0,0.05,0,0.08,0
						c0.06,0.01,0.13,0.03,0.2,0.06c0.07,0.04,0.15,0.09,0.22,0.15L18.92,33.98z"/>
					<path class="st8" d="M28.5,36.08l-0.58,0.19c0,0-4.34-0.7-5.81-1.16c-0.3-0.1-0.6-0.2-0.89-0.32
						c-1.12-0.44-2.03-0.94-2.03-0.94l0.29-0.29c0,0,2.01-0.2,4.05,0.3l0,0c0.2,0.05,0.4,0.11,0.6,0.17
						C26.32,34.74,28.45,36.05,28.5,36.08L28.5,36.08z"/>
					<path class="st7" d="M28.5,36.08c-0.07-0.03-4.7-2.09-5.77-1.88c-0.36,0.07-0.88,0.25-1.52,0.59
						c-1.12-0.44-2.03-0.94-2.03-0.94l0.29-0.29c0,0,2.01-0.2,4.05,0.3l0,0c0.2,0.05,0.4,0.11,0.6,0.17
						C26.32,34.74,28.45,36.05,28.5,36.08z"/>
					<g>
						<defs>
							<filter id="Adobe_OpacityMaskFilter_30_" filterUnits="userSpaceOnUse" x="8.81" y="27.9" width="20.71" height="11.95">
								<feFlood  style="flood-color:white;flood-opacity:1" result="back"/>
								<feBlend  in="SourceGraphic" in2="back" mode="normal"/>
							</filter>
						</defs>
						<mask maskUnits="userSpaceOnUse" x="8.81" y="27.9" width="20.71" height="11.95" id="SVGID_55_">
							<g class="st103">
								<defs>
									<filter id="Adobe_OpacityMaskFilter_31_" filterUnits="userSpaceOnUse" x="8.81" y="27.9" width="20.71" height="11.95">
										<feFlood  style="flood-color:white;flood-opacity:1" result="back"/>
										<feBlend  in="SourceGraphic" in2="back" mode="normal"/>
									</filter>
								</defs>
								<mask maskUnits="userSpaceOnUse" x="8.81" y="27.9" width="20.71" height="11.95" id="SVGID_55_">
								</mask>
								
									<linearGradient id="SVGID_56_" gradientUnits="userSpaceOnUse" x1="-1130.6066" y1="40.083" x2="-1138.163" y2="26.995" gradientTransform="matrix(1 0 0 1 1153.3514 0)">
									<stop  offset="0" style="stop-color:#FFFFFF"/>
									<stop  offset="0.1262" style="stop-color:#F9F9F9"/>
									<stop  offset="0.3026" style="stop-color:#E6E6E6"/>
									<stop  offset="0.5085" style="stop-color:#C9C9C9"/>
									<stop  offset="0.7367" style="stop-color:#9F9F9F"/>
									<stop  offset="0.9807" style="stop-color:#6A6A6A"/>
									<stop  offset="1" style="stop-color:#666666"/>
								</linearGradient>
								<path class="st105" d="M26.46,29.67c-4.06-2.34-10.61-2.35-14.64-0.03c-4.03,2.33-4.01,6.11,0.05,8.45
									c4.06,2.34,10.61,2.35,14.64,0.03C30.54,35.79,30.52,32.01,26.46,29.67z"/>
							</g>
						</mask>
						
							<linearGradient id="SVGID_57_" gradientUnits="userSpaceOnUse" x1="-1130.6066" y1="40.083" x2="-1138.163" y2="26.995" gradientTransform="matrix(1 0 0 1 1153.3514 0)">
							<stop  offset="0" style="stop-color:#040000"/>
							<stop  offset="0.101" style="stop-color:#070505"/>
							<stop  offset="0.2422" style="stop-color:#151615"/>
							<stop  offset="0.4071" style="stop-color:#2F2E2B"/>
							<stop  offset="0.5899" style="stop-color:#56534F"/>
							<stop  offset="0.7874" style="stop-color:#90908E"/>
							<stop  offset="0.9946" style="stop-color:#E1EAEF"/>
							<stop  offset="1" style="stop-color:#E3EDF2"/>
						</linearGradient>
						<path class="st106" d="M26.46,29.67c-4.06-2.34-10.61-2.35-14.64-0.03c-4.03,2.33-4.01,6.11,0.05,8.45
							c4.06,2.34,10.61,2.35,14.64,0.03C30.54,35.79,30.52,32.01,26.46,29.67z"/>
						<defs>
							<filter id="Adobe_OpacityMaskFilter_32_" filterUnits="userSpaceOnUse" x="18.29" y="28.19" width="9.77" height="5.98">
								<feFlood  style="flood-color:white;flood-opacity:1" result="back"/>
								<feBlend  in="SourceGraphic" in2="back" mode="normal"/>
							</filter>
						</defs>
						<mask maskUnits="userSpaceOnUse" x="18.29" y="28.19" width="9.77" height="5.98" id="SVGID_58_">
							<g class="st107">
								<defs>
									<filter id="Adobe_OpacityMaskFilter_33_" filterUnits="userSpaceOnUse" x="18.29" y="28.19" width="9.77" height="5.98">
										<feFlood  style="flood-color:white;flood-opacity:1" result="back"/>
										<feBlend  in="SourceGraphic" in2="back" mode="normal"/>
									</filter>
								</defs>
								<mask maskUnits="userSpaceOnUse" x="18.29" y="28.19" width="9.77" height="5.98" id="SVGID_58_">
								</mask>
								
									<linearGradient id="SVGID_59_" gradientUnits="userSpaceOnUse" x1="-1135.0587" y1="31.1807" x2="-1125.287" y2="31.1807" gradientTransform="matrix(1 0 0 1 1153.3514 0)">
									<stop  offset="0" style="stop-color:#FFFFFF"/>
									<stop  offset="0.1262" style="stop-color:#F9F9F9"/>
									<stop  offset="0.3026" style="stop-color:#E6E6E6"/>
									<stop  offset="0.5085" style="stop-color:#C9C9C9"/>
									<stop  offset="0.7367" style="stop-color:#9F9F9F"/>
									<stop  offset="0.9807" style="stop-color:#6A6A6A"/>
									<stop  offset="1" style="stop-color:#666666"/>
								</linearGradient>
								<path class="st109" d="M27.7,31.03c-0.08-0.17-0.17-0.34-0.27-0.51c-0.72-1.19-2.66-2.18-4-2.33
									c-0.13-0.01-0.28-0.02-0.39,0.05c0.4,0.48,0.87,0.9,1.4,1.24c-0.23-0.15-0.21-0.25-0.53-0.32
									c-0.32-0.07-0.71-0.01-1.03,0.06c0.16,0.06,0.31,0.11,0.47,0.17c0.06,0.02,0.12,0.05,0.15,0.1
									c0.03,0.05,0.01,0.14-0.05,0.15c0.29,0.18,0.52,0.46,0.64,0.78c-0.27-0.16-0.57-0.28-0.88-0.37
									c0.01,0.45,0.14,0.79,0.26,1.2c-0.21-0.08-0.43-0.15-0.65-0.19c-0.07-0.02-0.15-0.03-0.2,0.01
									c-0.16,0.11,0.07,0.39-0.03,0.56c-0.6,0.02-1.2-0.18-1.66-0.56c0.22,0.26,0.4,0.71,0.31,1.05
									c-0.09,0.35-0.34,0.43-0.68,0.57c-0.72,0.29-1.43,0.63-2.16,0.95c-0.54,0.24,1.2,0.52,1.2,0.52
									c0.35,0.06,1.14-0.45,1.44-0.58c0.49-0.21,0.98-0.43,1.46-0.66c0.52-0.25,0.89-0.19,1.45-0.01c0.35,0.11,0.7,0.38,0.72,0.75
									c-0.17-0.61-0.14-1.28,0.08-1.87c0.25,0.12,0.5,0.24,0.75,0.36c-0.09-0.04,0.2-1.06,0.24-1.17c0.13-0.4,0.25-0.47,0.66-0.29
									c0.61,0.27,1.16,0.96,1.66,1.39c-0.11-0.1-0.18-0.61-0.24-0.77C27.79,31.22,27.74,31.13,27.7,31.03z"/>
							</g>
						</mask>
						
							<linearGradient id="SVGID_60_" gradientUnits="userSpaceOnUse" x1="-1135.0587" y1="31.1807" x2="-1125.287" y2="31.1807" gradientTransform="matrix(1 0 0 1 1153.3514 0)">
							<stop  offset="0" style="stop-color:#040000"/>
							<stop  offset="0.101" style="stop-color:#070505"/>
							<stop  offset="0.2422" style="stop-color:#151615"/>
							<stop  offset="0.4071" style="stop-color:#2F2E2B"/>
							<stop  offset="0.5899" style="stop-color:#56534F"/>
							<stop  offset="0.7874" style="stop-color:#90908E"/>
							<stop  offset="0.9946" style="stop-color:#E1EAEF"/>
							<stop  offset="1" style="stop-color:#E3EDF2"/>
						</linearGradient>
						<path class="st110" d="M27.7,31.03c-0.08-0.17-0.17-0.34-0.27-0.51c-0.72-1.19-2.66-2.18-4-2.33
							c-0.13-0.01-0.28-0.02-0.39,0.05c0.4,0.48,0.87,0.9,1.4,1.24c-0.23-0.15-0.21-0.25-0.53-0.32c-0.32-0.07-0.71-0.01-1.03,0.06
							c0.16,0.06,0.31,0.11,0.47,0.17c0.06,0.02,0.12,0.05,0.15,0.1c0.03,0.05,0.01,0.14-0.05,0.15c0.29,0.18,0.52,0.46,0.64,0.78
							c-0.27-0.16-0.57-0.28-0.88-0.37c0.01,0.45,0.14,0.79,0.26,1.2c-0.21-0.08-0.43-0.15-0.65-0.19c-0.07-0.02-0.15-0.03-0.2,0.01
							c-0.16,0.11,0.07,0.39-0.03,0.56c-0.6,0.02-1.2-0.18-1.66-0.56c0.22,0.26,0.4,0.71,0.31,1.05c-0.09,0.35-0.34,0.43-0.68,0.57
							c-0.72,0.29-1.43,0.63-2.16,0.95c-0.54,0.24,1.2,0.52,1.2,0.52c0.35,0.06,1.14-0.45,1.44-0.58c0.49-0.21,0.98-0.43,1.46-0.66
							c0.52-0.25,0.89-0.19,1.45-0.01c0.35,0.11,0.7,0.38,0.72,0.75c-0.17-0.61-0.14-1.28,0.08-1.87c0.25,0.12,0.5,0.24,0.75,0.36
							c-0.09-0.04,0.2-1.06,0.24-1.17c0.13-0.4,0.25-0.47,0.66-0.29c0.61,0.27,1.16,0.96,1.66,1.39c-0.11-0.1-0.18-0.61-0.24-0.77
							C27.79,31.22,27.74,31.13,27.7,31.03z"/>
						<defs>
							<filter id="Adobe_OpacityMaskFilter_34_" filterUnits="userSpaceOnUse" x="9.28" y="33.08" width="10.51" height="5.91">
								<feFlood  style="flood-color:white;flood-opacity:1" result="back"/>
								<feBlend  in="SourceGraphic" in2="back" mode="normal"/>
							</filter>
						</defs>
						<mask maskUnits="userSpaceOnUse" x="9.28" y="33.08" width="10.51" height="5.91" id="SVGID_61_">
							<g class="st111">
								<defs>
									<filter id="Adobe_OpacityMaskFilter_35_" filterUnits="userSpaceOnUse" x="9.28" y="33.08" width="10.51" height="5.91">
										<feFlood  style="flood-color:white;flood-opacity:1" result="back"/>
										<feBlend  in="SourceGraphic" in2="back" mode="normal"/>
									</filter>
								</defs>
								<mask maskUnits="userSpaceOnUse" x="9.28" y="33.08" width="10.51" height="5.91" id="SVGID_61_">
								</mask>
								
									<linearGradient id="SVGID_62_" gradientUnits="userSpaceOnUse" x1="-1144.0743" y1="36.0345" x2="-1133.5625" y2="36.0345" gradientTransform="matrix(1 0 0 1 1153.3514 0)">
									<stop  offset="0" style="stop-color:#FFFFFF"/>
									<stop  offset="0.1262" style="stop-color:#F9F9F9"/>
									<stop  offset="0.3026" style="stop-color:#E6E6E6"/>
									<stop  offset="0.5085" style="stop-color:#C9C9C9"/>
									<stop  offset="0.7367" style="stop-color:#9F9F9F"/>
									<stop  offset="0.9807" style="stop-color:#6A6A6A"/>
									<stop  offset="1" style="stop-color:#666666"/>
								</linearGradient>
								<path class="st113" d="M19.68,33.6c0.54-0.24-1.2-0.52-1.2-0.52c-0.84,0.31-2.19,1.15-3.13,0.83
									c-0.34-0.12-0.55-0.45-0.74-0.77c-0.17,0.27-0.11,0.61-0.04,0.91c0.07,0.31,0.15,0.64,0.01,0.92
									c-0.14,0.28-0.6,0.4-0.76,0.13c-0.23,0.48-1,0.58-1.34,0.17c-0.1,0.23-0.2,0.46-0.3,0.69c-0.23-0.19-0.46-0.39-0.69-0.58
									c0,0.29,0,0.59,0,0.88c-0.45-0.1-0.87-0.33-1.19-0.66c-0.39-0.4-0.62-0.93-1.03-1.31c0,0.76,0.35,1.48,0.83,2.07
									c1.3,1.59,3.45,2.53,5.48,2.62c-0.76-0.35-1.44-0.89-1.96-1.55c0.56,0.13,1.1,0.31,1.63,0.54c0.01-0.24-0.04-0.49-0.16-0.71
									c0.46,0.04,0.92,0.05,1.38,0.02c-0.07-0.29-0.36-0.45-0.6-0.61c-0.25-0.16-0.5-0.43-0.42-0.71
									c0.23,0.01,0.45,0.03,0.68,0.04c0-0.16,0-0.33,0-0.49c0.65,0.02,1.39-0.13,1.94-0.5c-0.11,0.07-0.01-0.47,0-0.5
									c0.07-0.17,0.29-0.38,0.45-0.47C18.86,33.86,19.31,33.76,19.68,33.6z"/>
							</g>
						</mask>
						
							<linearGradient id="SVGID_63_" gradientUnits="userSpaceOnUse" x1="-1144.0743" y1="36.0345" x2="-1133.5625" y2="36.0345" gradientTransform="matrix(1 0 0 1 1153.3514 0)">
							<stop  offset="0" style="stop-color:#040000"/>
							<stop  offset="0.101" style="stop-color:#070505"/>
							<stop  offset="0.2422" style="stop-color:#151615"/>
							<stop  offset="0.4071" style="stop-color:#2F2E2B"/>
							<stop  offset="0.5899" style="stop-color:#56534F"/>
							<stop  offset="0.7874" style="stop-color:#90908E"/>
							<stop  offset="0.9946" style="stop-color:#E1EAEF"/>
							<stop  offset="1" style="stop-color:#E3EDF2"/>
						</linearGradient>
						<path class="st114" d="M19.68,33.6c0.54-0.24-1.2-0.52-1.2-0.52c-0.84,0.31-2.19,1.15-3.13,0.83
							c-0.34-0.12-0.55-0.45-0.74-0.77c-0.17,0.27-0.11,0.61-0.04,0.91c0.07,0.31,0.15,0.64,0.01,0.92c-0.14,0.28-0.6,0.4-0.76,0.13
							c-0.23,0.48-1,0.58-1.34,0.17c-0.1,0.23-0.2,0.46-0.3,0.69c-0.23-0.19-0.46-0.39-0.69-0.58c0,0.29,0,0.59,0,0.88
							c-0.45-0.1-0.87-0.33-1.19-0.66c-0.39-0.4-0.62-0.93-1.03-1.31c0,0.76,0.35,1.48,0.83,2.07c1.3,1.59,3.45,2.53,5.48,2.62
							c-0.76-0.35-1.44-0.89-1.96-1.55c0.56,0.13,1.1,0.31,1.63,0.54c0.01-0.24-0.04-0.49-0.16-0.71c0.46,0.04,0.92,0.05,1.38,0.02
							c-0.07-0.29-0.36-0.45-0.6-0.61c-0.25-0.16-0.5-0.43-0.42-0.71c0.23,0.01,0.45,0.03,0.68,0.04c0-0.16,0-0.33,0-0.49
							c0.65,0.02,1.39-0.13,1.94-0.5c-0.11,0.07-0.01-0.47,0-0.5c0.07-0.17,0.29-0.38,0.45-0.47C18.86,33.86,19.31,33.76,19.68,33.6
							z"/>
						<defs>
							<filter id="Adobe_OpacityMaskFilter_36_" filterUnits="userSpaceOnUse" x="8.81" y="33.66" width="20.7" height="6.2">
								<feFlood  style="flood-color:white;flood-opacity:1" result="back"/>
								<feBlend  in="SourceGraphic" in2="back" mode="normal"/>
							</filter>
						</defs>
						<mask maskUnits="userSpaceOnUse" x="8.81" y="33.66" width="20.7" height="6.2" id="SVGID_64_">
							<g class="st115">
								<defs>
									<filter id="Adobe_OpacityMaskFilter_37_" filterUnits="userSpaceOnUse" x="8.81" y="33.66" width="20.7" height="6.2">
										<feFlood  style="flood-color:white;flood-opacity:1" result="back"/>
										<feBlend  in="SourceGraphic" in2="back" mode="normal"/>
									</filter>
								</defs>
								<mask maskUnits="userSpaceOnUse" x="8.81" y="33.66" width="20.7" height="6.2" id="SVGID_64_">
								</mask>
								
									<linearGradient id="SVGID_65_" gradientUnits="userSpaceOnUse" x1="-1144.5398" y1="36.7566" x2="-1123.8358" y2="36.7566" gradientTransform="matrix(1 0 0 1 1153.3514 0)">
									<stop  offset="0" style="stop-color:#FFFFFF"/>
									<stop  offset="0.1262" style="stop-color:#F9F9F9"/>
									<stop  offset="0.3026" style="stop-color:#E6E6E6"/>
									<stop  offset="0.5085" style="stop-color:#C9C9C9"/>
									<stop  offset="0.7367" style="stop-color:#9F9F9F"/>
									<stop  offset="0.9807" style="stop-color:#6A6A6A"/>
									<stop  offset="1" style="stop-color:#666666"/>
								</linearGradient>
								<path class="st117" d="M26.51,37.74c-4.03,2.33-10.59,2.32-14.64-0.03c-1.95-1.13-2.97-2.59-3.05-4.06
									c-0.09,1.6,0.93,3.21,3.05,4.44c4.06,2.34,10.61,2.35,14.64,0.03c2.09-1.21,3.09-2.81,3-4.39
									C29.43,35.19,28.43,36.63,26.51,37.74z"/>
							</g>
						</mask>
						
							<linearGradient id="SVGID_66_" gradientUnits="userSpaceOnUse" x1="-1144.5398" y1="36.7566" x2="-1123.8358" y2="36.7566" gradientTransform="matrix(1 0 0 1 1153.3514 0)">
							<stop  offset="0" style="stop-color:#040000"/>
							<stop  offset="0.101" style="stop-color:#070505"/>
							<stop  offset="0.2422" style="stop-color:#151615"/>
							<stop  offset="0.4071" style="stop-color:#2F2E2B"/>
							<stop  offset="0.5899" style="stop-color:#56534F"/>
							<stop  offset="0.7874" style="stop-color:#90908E"/>
							<stop  offset="0.9946" style="stop-color:#E1EAEF"/>
							<stop  offset="1" style="stop-color:#E3EDF2"/>
						</linearGradient>
						<path class="st118" d="M26.51,37.74c-4.03,2.33-10.59,2.32-14.64-0.03c-1.95-1.13-2.97-2.59-3.05-4.06
							c-0.09,1.6,0.93,3.21,3.05,4.44c4.06,2.34,10.61,2.35,14.64,0.03c2.09-1.21,3.09-2.81,3-4.39
							C29.43,35.19,28.43,36.63,26.51,37.74z"/>
						<defs>
							<filter id="Adobe_OpacityMaskFilter_38_" filterUnits="userSpaceOnUse" x="8.81" y="27.53" width="20.7" height="6.2">
								<feFlood  style="flood-color:white;flood-opacity:1" result="back"/>
								<feBlend  in="SourceGraphic" in2="back" mode="normal"/>
							</filter>
						</defs>
						<mask maskUnits="userSpaceOnUse" x="8.81" y="27.53" width="20.7" height="6.2" id="SVGID_67_">
							<g class="st119">
								<defs>
									<filter id="Adobe_OpacityMaskFilter_39_" filterUnits="userSpaceOnUse" x="8.81" y="27.53" width="20.7" height="6.2">
										<feFlood  style="flood-color:white;flood-opacity:1" result="back"/>
										<feBlend  in="SourceGraphic" in2="back" mode="normal"/>
									</filter>
								</defs>
								<mask maskUnits="userSpaceOnUse" x="8.81" y="27.53" width="20.7" height="6.2" id="SVGID_67_">
								</mask>
								
									<linearGradient id="SVGID_68_" gradientUnits="userSpaceOnUse" x1="-1144.54" y1="30.6262" x2="-1123.8361" y2="30.6262" gradientTransform="matrix(1 0 0 1 1153.3514 0)">
									<stop  offset="0" style="stop-color:#FFFFFF"/>
									<stop  offset="0.1262" style="stop-color:#F9F9F9"/>
									<stop  offset="0.3026" style="stop-color:#E6E6E6"/>
									<stop  offset="0.5085" style="stop-color:#C9C9C9"/>
									<stop  offset="0.7367" style="stop-color:#9F9F9F"/>
									<stop  offset="0.9807" style="stop-color:#6A6A6A"/>
									<stop  offset="1" style="stop-color:#666666"/>
								</linearGradient>
								<path class="st121" d="M11.82,29.64c4.03-2.33,10.59-2.32,14.64,0.03c1.95,1.13,2.97,2.59,3.05,4.06
									c0.09-1.6-0.93-3.21-3.05-4.44c-4.06-2.34-10.61-2.35-14.64-0.03c-2.09,1.21-3.09,2.81-3,4.39
									C8.9,32.2,9.9,30.75,11.82,29.64z"/>
							</g>
						</mask>
						
							<linearGradient id="SVGID_69_" gradientUnits="userSpaceOnUse" x1="-1144.54" y1="30.6262" x2="-1123.8361" y2="30.6262" gradientTransform="matrix(1 0 0 1 1153.3514 0)">
							<stop  offset="0" style="stop-color:#040000"/>
							<stop  offset="0.101" style="stop-color:#070505"/>
							<stop  offset="0.2422" style="stop-color:#151615"/>
							<stop  offset="0.4071" style="stop-color:#2F2E2B"/>
							<stop  offset="0.5899" style="stop-color:#56534F"/>
							<stop  offset="0.7874" style="stop-color:#90908E"/>
							<stop  offset="0.9946" style="stop-color:#E1EAEF"/>
							<stop  offset="1" style="stop-color:#E3EDF2"/>
						</linearGradient>
						<path class="st122" d="M11.82,29.64c4.03-2.33,10.59-2.32,14.64,0.03c1.95,1.13,2.97,2.59,3.05,4.06
							c0.09-1.6-0.93-3.21-3.05-4.44c-4.06-2.34-10.61-2.35-14.64-0.03c-2.09,1.21-3.09,2.81-3,4.39C8.9,32.2,9.9,30.75,11.82,29.64
							z"/>
					</g>
					<path class="st29" d="M18.52,33.36c0,0-0.05-1.05,0.84-1.05c0.9,0,0.82,1.23,0.82,1.23s0,0.65-0.99,0.59
						C18.42,34.08,18.52,33.36,18.52,33.36z"/>
				</g>
			</g>
		</g>
		<g>
			<path class="st69" d="M41.56,24.66c-2.83-1.63-7.4-1.64-10.21-0.02c-2.81,1.62-2.8,4.26,0.03,5.9s7.4,1.64,10.21,0.02
				C44.4,28.93,44.39,26.29,41.56,24.66z"/>
			<path class="st74" d="M36.57,31.75v3.19c0,0,1.77,0.03,3.12-0.43c0.23-1.44,0.23-1.44,0.23-1.44l-1.59-1.44L36.57,31.75z"/>
			<path class="st76" d="M39.74,25.54c-1.82-1.05-4.76-1.06-6.56-0.01c-1.81,1.04-1.8,2.74,0.02,3.79c1.82,1.05,4.76,1.06,6.56,0.01
				C41.57,28.28,41.56,26.59,39.74,25.54z"/>
			<path class="st59" d="M39.26,25.82c-1.55-0.89-4.05-0.9-5.59-0.01c-1.54,0.89-1.53,2.33,0.02,3.23c1.55,0.89,4.05,0.9,5.59,0.01
				C40.81,28.16,40.81,26.71,39.26,25.82z"/>
			<path class="st123" d="M39.23,26.1c-0.52-0.42-1.48-0.66-2.14-0.53c-0.66,0.13-0.77,0.58-0.24,1c0.52,0.42,1.48,0.66,2.14,0.53
				S39.76,26.52,39.23,26.1z"/>
			<path class="st53" d="M33.33,34.52l-0.21-1.44l1.59-1.44l1.87,0.12v3.19C36.57,34.95,34.31,34.97,33.33,34.52z"/>
			<polygon class="st72" points="32.62,32.29 33.12,33.08 33.58,31.41 			"/>
			<polygon class="st76" points="39.45,31.41 39.92,33.08 40.42,32.29 			"/>
		</g>
		<polygon class="st53" points="28.38,36.33 36.57,34.95 36.57,32.89 32.51,34.03 		"/>
		<polygon class="st63" points="36.57,34.95 46.33,37.08 39.92,33.08 36.57,32.89 		"/>
		<polygon class="st63" points="48.87,24.6 45.57,29.43 45.31,29.05 48.45,24.64 		"/>
		<polygon class="st62" points="28.38,36.72 36.57,35.43 46.41,37.5 44.77,36.74 36.57,34.95 28.38,36.33 		"/>
	</g>
</g>
</svg>
