<?xml version="1.0" encoding="utf-8"?>
<!-- Generator: Adobe Illustrator 23.0.2, SVG Export Plug-In . SVG Version: 6.00 Build 0)  -->
<svg version="1.1" id="圖層_1" xmlns="http://www.w3.org/2000/svg" xmlns:xlink="http://www.w3.org/1999/xlink" x="0px" y="0px"
	 viewBox="0 0 70.24 47.51" style="enable-background:new 0 0 70.24 47.51;" xml:space="preserve">
<style type="text/css">
	.st0{fill:#FFFFFF;}
	.st1{fill:#F7F2E7;}
	.st2{fill:#E5E0DC;}
	.st3{fill:#D1D1D1;}
	.st4{fill:#8F9D46;}
	.st5{fill:#AEBC46;}
	.st6{fill:#EA5B51;}
	.st7{fill:#BF4030;}
	.st8{fill:#922223;}
</style>
<g>
	<g>
		<polygon class="st0" points="46.13,12.77 52.85,8.89 47.03,5.53 40.32,9.41 		"/>
		<polygon class="st1" points="46.13,8.9 46.13,12.77 52.85,8.89 57.59,11.63 57.59,19.38 52.85,27.61 23.21,44.71 18.47,41.97 
			18.47,34.22 23.21,26 29.93,22.12 29.93,18.25 34.67,10.04 41.39,6.16 		"/>
		<polygon class="st0" points="34.67,10.04 41.39,6.16 35.57,2.8 28.86,6.67 		"/>
		<polygon class="st0" points="23.21,26 29.92,22.12 24.11,18.77 17.4,22.65 		"/>
		
			<rect x="24.65" y="9.11" transform="matrix(0.4999 -0.8661 0.8661 0.4999 3.9044 31.6882)" class="st2" width="9.49" height="6.71"/>
		
			<rect x="13.19" y="25.08" transform="matrix(0.4996 -0.8662 0.8662 0.4996 -15.6589 29.7618)" class="st2" width="9.49" height="6.71"/>
		<polygon class="st3" points="24.11,18.77 29.93,22.12 29.93,18.25 24.11,14.89 		"/>
		<polygon class="st3" points="12.66,38.62 18.47,41.97 18.47,34.22 12.66,30.87 		"/>
	</g>
	<g>
		<g>
			<polygon class="st4" points="42.25,25.1 42.25,20.87 40.47,19.84 40.47,24.07 			"/>
			<polygon class="st4" points="39.86,22.26 43.74,13.13 41.95,12.1 38.07,21.22 			"/>
			<polygon class="st5" points="43.74,13.13 47.62,17.78 45.23,19.16 45.23,23.38 42.25,25.1 42.25,20.87 39.86,22.26 			"/>
		</g>
		<g>
			<polygon class="st6" points="39.24,27.95 41.63,26.57 39.84,25.54 37.46,26.92 			"/>
			<polygon class="st7" points="36.26,29.67 36.26,25.44 39.24,23.72 39.24,27.95 41.63,26.57 37.75,35.69 33.87,31.05 			"/>
			<polygon class="st6" points="36.26,25.44 39.24,23.72 37.46,22.69 34.48,24.41 			"/>
			<polygon class="st6" points="33.87,31.05 36.26,29.67 34.48,28.64 32.09,30.02 			"/>
			<polygon class="st8" points="36.26,29.67 36.26,25.44 34.48,24.41 34.48,28.64 			"/>
			<polygon class="st8" points="37.75,35.69 33.87,31.05 32.09,30.02 35.97,34.66 			"/>
		</g>
	</g>
</g>
</svg>
