<?xml version="1.0" encoding="utf-8"?>
<!-- Generator: Adobe Illustrator 23.0.2, SVG Export Plug-In . SVG Version: 6.00 Build 0)  -->
<svg version="1.1" id="圖層_1" xmlns="http://www.w3.org/2000/svg" xmlns:xlink="http://www.w3.org/1999/xlink" x="0px" y="0px"
	 viewBox="0 0 70.24 47.51" style="enable-background:new 0 0 70.24 47.51;" xml:space="preserve">
<style type="text/css">
	.st0{fill:#BBE2F0;}
	.st1{fill:#5D99A7;}
	.st2{fill:#7CCAD9;}
	.st3{fill:#D1D1D1;}
	.st4{fill:#FFFFFF;}
</style>
<g>
	<polygon class="st0" points="26.23,19.01 46.44,6.83 45.73,6.41 25.07,18.34 25.49,18.96 	"/>
	<polygon class="st1" points="25.79,42.6 27.66,25.65 25.79,18.75 25.07,18.34 25.07,42.19 	"/>
	<polygon class="st2" points="27.91,38.21 45.71,27.93 45.71,9.93 27.91,20.21 	"/>
	<g>
		<path class="st3" d="M25.78,18.75l0,23.85l0.68,0.39l0.55-1.1l19.42-11.22V9.25l0.68-2.03l-0.68-0.39L25.78,18.75z M28.37,20.24
			l15.47-8.93V24.8l-4.72-1.07L35,32.15l-3.93,0.04l-2.7,4.08V20.24z"/>
		<polygon class="st3" points="38.93,20.6 37.91,20.01 37.91,18.35 38.93,16.58 40.38,15.75 41.4,16.34 41.4,18 40.38,19.77 		"/>
		<polygon class="st3" points="33.36,23.16 33.28,23.62 34.15,23.12 34.83,23.51 34.76,24.47 34.15,25.53 30.39,27.79 29.71,27.39 
			29.71,26.39 30.32,25.33 31.19,24.83 31.19,24.33 31.8,23.27 32.67,22.77 		"/>
		<polygon class="st3" points="32.67,20.96 33.06,20.28 33.63,19.95 33.63,19.62 34.03,18.94 34.59,18.61 35.27,19 35.55,18.84 
			36.23,19.23 35.95,19.72 33.35,22.01 32.67,21.61 		"/>
	</g>
	<g>
		<path class="st4" d="M26.46,19.14v23.85l20.65-11.92V7.21L26.46,19.14z M29.05,20.64l15.47-8.94v13.49l-4.72-1.07l-4.12,8.42
			l-3.93,0.05l-2.7,4.08V20.64z"/>
		<polygon class="st4" points="39.62,20.99 38.6,20.41 38.6,18.74 39.62,16.97 41.06,16.14 42.08,16.73 42.08,18.4 41.06,20.17 		
			"/>
		<polygon class="st4" points="33.97,23.51 33.97,24.02 34.83,23.51 35.44,23.87 35.44,24.87 34.83,25.93 31.01,28.14 30.39,27.79 
			30.39,26.78 31.01,25.72 31.87,25.22 31.87,24.72 32.49,23.66 33.36,23.16 		"/>
		<polygon class="st4" points="35.67,19.23 35.67,19.56 36.23,19.23 36.63,19.46 36.63,20.12 36.23,20.8 33.75,22.24 33.35,22.01 
			33.35,21.36 33.75,20.67 34.31,20.34 34.31,20.01 34.71,19.33 35.27,19.01 		"/>
	</g>
</g>
</svg>
