<?xml version="1.0" encoding="utf-8"?>
<!-- Generator: Adobe Illustrator 23.0.2, SVG Export Plug-In . SVG Version: 6.00 Build 0)  -->
<svg version="1.1" id="圖層_1" xmlns="http://www.w3.org/2000/svg" xmlns:xlink="http://www.w3.org/1999/xlink" x="0px" y="0px"
	 viewBox="0 0 70.24 47.51" style="enable-background:new 0 0 70.24 47.51;" xml:space="preserve">
<style type="text/css">
	.st0{fill:#C7904C;}
	.st1{fill:#F6C156;}
	.st2{fill:#F3E27B;}
	.st3{fill:#DCB85F;}
	.st4{fill:#FFFFFF;}
	.st5{opacity:0.3;fill:#040000;}
</style>
<g>
	<g>
		<polygon class="st0" points="25.33,23.38 25.78,23.05 25.84,23.67 27.68,31.14 25.84,38.1 25.33,37.8 		"/>
		<polygon class="st1" points="25.33,23.38 25.84,23.67 26.44,23.83 26.49,22.56 25.98,22.26 		"/>
		<polygon class="st2" points="26.49,22.56 35.52,20.71 45.94,11.33 45.42,11.04 25.98,22.26 		"/>
		<polygon class="st3" points="25.84,23.67 26.49,22.56 45.94,11.33 46.58,11.7 46.58,26.12 45.94,27.24 26.49,38.47 25.84,38.1 		
			"/>
		<g>
			<path class="st4" d="M30.48,34.55c-0.42,0.24-0.8,0.36-1.16,0.34l0.19-0.65c0.25,0.01,0.59-0.07,0.9-0.25
				c0.92-0.53,1.72-1.64,1.72-2.98c0-1.53-1-1.95-2.01-1.37c-1.16,0.67-1.61,1.8-1.61,2.78c0,0.75,0.35,1.03,0.7,0.82
				c0.27-0.15,0.36-0.4,0.27-0.74l-0.27-1.34l0.54-0.31l0.08,0.24l0.01-0.01c0.1-0.3,0.25-0.49,0.45-0.6
				c0.68-0.39,1.19,0.15,1.19,0.98c0,0.63-0.31,1.2-0.78,1.47c-0.24,0.14-0.54,0.13-0.71-0.04l-0.01,0.01
				c-0.07,0.36-0.34,0.72-0.68,0.91c-0.62,0.36-1.35,0.15-1.35-1.1c0-1.42,0.81-2.9,2.09-3.63c1.45-0.84,2.66-0.28,2.66,1.63
				C32.72,32.43,31.66,33.87,30.48,34.55z M30.53,32.4c0.2-0.11,0.31-0.33,0.31-0.63c0-0.41-0.21-0.85-0.57-0.64
				c-0.12,0.07-0.21,0.19-0.27,0.35l0.14,0.84C30.29,32.46,30.41,32.47,30.53,32.4z"/>
		</g>
	</g>
	<g>
		<polygon class="st5" points="36.14,22.38 38.8,20.77 46.58,14.89 46.58,15.76 36.14,27.05 25.84,27.73 25.84,27.2 		"/>
		<polygon class="st0" points="25.84,23.67 26.29,23.26 26.09,23.81 27.93,25.18 26.09,27.34 25.84,27.2 25.47,25.02 		"/>
		<polygon class="st1" points="25.84,23.67 26.09,23.81 26.68,23.97 26.73,22.7 26.49,22.56 		"/>
		<polygon class="st2" points="26.73,22.7 36.38,20.13 46.18,11.47 45.94,11.33 44.02,12.05 28.29,21.12 26.49,22.56 		"/>
		<polygon class="st3" points="26.09,23.81 26.73,22.7 46.18,11.47 46.82,11.84 46.82,15.36 36.38,26.66 26.09,27.34 		"/>
	</g>
</g>
</svg>
