<?xml version="1.0" encoding="utf-8"?>
<!-- Generator: Adobe Illustrator 23.0.2, SVG Export Plug-In . SVG Version: 6.00 Build 0)  -->
<svg version="1.1" id="圖層_1" xmlns="http://www.w3.org/2000/svg" xmlns:xlink="http://www.w3.org/1999/xlink" x="0px" y="0px"
	 viewBox="0 0 70.24 47.51" style="enable-background:new 0 0 70.24 47.51;" xml:space="preserve">
<style type="text/css">
	.st0{fill:#3D6568;}
	.st1{fill:#3B9392;}
	.st2{fill:#89C5C4;}
	.st3{fill:#FFFFFF;}
	.st4{opacity:0.3;fill:#040000;}
</style>
<g>
	<g>
		<polygon class="st0" points="22.88,22.34 23.4,21.95 23.47,22.68 25.59,31.27 23.47,39.28 22.88,38.94 		"/>
		<polygon class="st1" points="22.88,22.34 23.47,22.68 24.16,22.86 24.22,21.39 23.63,21.05 		"/>
		<polygon class="st2" points="24.22,21.39 34.62,19.27 46.6,8.47 46.01,8.13 23.63,21.05 		"/>
		<polygon class="st1" points="23.47,22.68 24.22,21.39 46.6,8.47 47.34,8.9 47.34,25.5 46.6,26.78 24.22,39.71 23.47,39.28 		"/>
		<g>
			<path class="st3" d="M28.82,35.19c-0.48,0.28-0.92,0.41-1.33,0.39l0.22-0.75c0.29,0.01,0.68-0.09,1.03-0.29
				c1.06-0.61,1.98-1.89,1.98-3.43c0-1.77-1.15-2.25-2.31-1.58c-1.33,0.77-1.85,2.07-1.85,3.2c0,0.86,0.4,1.18,0.81,0.94
				c0.31-0.18,0.41-0.45,0.31-0.85l-0.31-1.54l0.62-0.36l0.09,0.28l0.01-0.01c0.11-0.35,0.29-0.56,0.52-0.69
				c0.78-0.45,1.37,0.17,1.37,1.13c0,0.72-0.36,1.38-0.9,1.69c-0.28,0.16-0.62,0.15-0.82-0.05l-0.01,0.01
				c-0.08,0.42-0.4,0.82-0.78,1.04c-0.71,0.41-1.55,0.17-1.55-1.26c0-1.64,0.94-3.33,2.41-4.18c1.67-0.97,3.06-0.33,3.06,1.87
				C31.39,32.75,30.17,34.41,28.82,35.19z M28.87,32.71c0.23-0.13,0.35-0.38,0.35-0.73c0-0.47-0.24-0.97-0.65-0.74
				c-0.14,0.08-0.24,0.22-0.31,0.41l0.16,0.97C28.59,32.78,28.73,32.8,28.87,32.71z"/>
		</g>
	</g>
	<g>
		<polygon class="st4" points="35.32,21.19 38.39,19.34 47.34,12.57 47.34,13.56 35.32,26.56 23.47,27.35 23.47,26.73 		"/>
		<polygon class="st0" points="23.47,22.68 23.98,22.21 23.75,22.84 25.86,24.4 23.75,26.89 23.47,26.73 23.04,24.22 		"/>
		<polygon class="st1" points="23.47,22.68 23.75,22.84 24.43,23.02 24.49,21.55 24.22,21.39 		"/>
		<polygon class="st2" points="24.49,21.55 35.6,18.6 46.87,8.63 46.6,8.47 44.4,9.3 26.28,19.73 24.22,21.39 		"/>
		<polygon class="st1" points="23.75,22.84 24.49,21.55 46.87,8.63 47.62,9.06 47.62,13.11 35.6,26.11 23.75,26.89 		"/>
	</g>
</g>
</svg>
