<?xml version="1.0" encoding="utf-8"?>
<!-- Generator: Adobe Illustrator 23.0.2, SVG Export Plug-In . SVG Version: 6.00 Build 0)  -->
<svg version="1.1" id="圖層_1" xmlns="http://www.w3.org/2000/svg" xmlns:xlink="http://www.w3.org/1999/xlink" x="0px" y="0px"
	 viewBox="0 0 42.35 45.66" style="enable-background:new 0 0 42.35 45.66;" xml:space="preserve">
<style type="text/css">
	.st0{fill:#EA5B51;}
	.st1{fill:#922223;}
	.st2{fill:#D1D1D1;}
	.st3{fill:#BF4030;}
	.st4{fill:#AEBC46;}
	.st5{fill:#D5DE5F;}
	.st6{fill:#D3CC4B;}
	.st7{fill:#8F9D46;}
	.st8{fill:#7CCAD9;}
	.st9{fill:#BBE2F0;}
	.st10{fill:#86A2D4;}
	.st11{fill:#5D99A7;}
	.st12{fill:#942F25;}
	.st13{fill:#B62922;}
	.st14{fill:#FFFFFF;}
	.st15{fill:#403531;}
	.st16{fill:#0B0808;}
</style>
<g>
	<polygon class="st0" points="7.36,18.8 8.08,19.22 35.39,3.45 34.66,3.03 	"/>
	<polygon class="st1" points="7.36,21.37 8.08,21.78 8.08,19.22 7.36,18.8 	"/>
	<polygon class="st2" points="7.36,41.97 8.08,42.39 8.08,21.78 7.36,21.37 	"/>
	<polygon class="st3" points="8.08,19.22 35.39,3.45 35.39,6.02 8.08,21.78 	"/>
	<g>
		<g>
			<polygon class="st4" points="13.49,17.39 13.9,16.7 14.47,16.37 14.87,16.6 14.87,17.26 14.47,17.95 13.9,18.28 13.49,18.05 			
				"/>
			<polygon class="st5" points="13.9,16.7 14.47,16.37 14.17,16.19 13.6,16.52 13.82,16.7 			"/>
			<polygon class="st6" points="13.49,17.39 13.9,16.7 13.6,16.52 13.2,17.22 13.42,17.42 			"/>
			<polygon class="st7" points="13.49,18.05 13.49,17.39 13.2,17.22 13.2,17.88 			"/>
		</g>
		<g>
			<polygon class="st8" points="11.59,18.49 11.99,17.8 12.56,17.47 12.96,17.7 12.96,18.36 12.56,19.05 11.99,19.38 11.59,19.15 
							"/>
			<polygon class="st9" points="11.99,17.8 12.56,17.47 12.26,17.3 11.69,17.62 11.92,17.81 			"/>
			<polygon class="st10" points="11.59,18.49 11.99,17.8 11.69,17.62 11.29,18.32 11.51,18.53 			"/>
			<polygon class="st11" points="11.59,19.15 11.59,18.49 11.29,18.32 11.29,18.98 			"/>
		</g>
		<g>
			<polygon class="st12" points="9.68,19.59 10.08,18.9 10.65,18.57 11.05,18.8 11.05,19.46 10.65,20.15 10.08,20.48 9.68,20.25 			
				"/>
			<polygon class="st0" points="10.08,18.9 10.65,18.57 10.35,18.4 9.78,18.73 10.01,18.91 			"/>
			<polygon class="st13" points="9.68,19.59 10.08,18.9 9.78,18.73 9.38,19.42 9.61,19.63 			"/>
			<polygon class="st1" points="9.68,20.25 9.68,19.59 9.38,19.42 9.38,20.08 			"/>
		</g>
	</g>
	<polygon class="st14" points="35.39,26.62 8.08,42.39 8.08,21.78 35.39,6.02 	"/>
	<polygon class="st15" points="9.63,35.03 33.83,21.06 33.83,8.18 9.63,22.16 	"/>
	<polygon class="st16" points="9.63,35.03 33.83,21.06 33.83,19.84 9.63,33.81 	"/>
	<polygon class="st8" points="10.32,34.12 33.12,20.97 33.12,20.81 10.32,33.96 	"/>
	<g>
		<polygon class="st0" points="18.43,22.61 19.54,20.67 23.94,18.13 25.06,18.78 25.06,20.6 23.94,22.54 19.54,25.08 18.43,24.44 		
			"/>
		<polygon class="st14" points="22.43,22.25 22.43,20.17 20.69,22.21 		"/>
	</g>
	<polygon class="st2" points="9.88,36.53 33.58,22.85 33.83,22.99 33.83,23.3 33.58,23.73 9.88,37.41 9.63,37.27 9.63,36.96 	"/>
	<polygon class="st2" points="15.82,34.6 33.58,24.34 33.83,24.48 33.83,24.79 33.58,25.22 15.82,35.47 15.58,35.33 15.58,35.02 	
		"/>
</g>
</svg>
