<?xml version="1.0" encoding="utf-8"?>
<!-- Generator: Adobe Illustrator 23.0.2, SVG Export Plug-In . SVG Version: 6.00 Build 0)  -->
<svg version="1.1" id="圖層_1" xmlns="http://www.w3.org/2000/svg" xmlns:xlink="http://www.w3.org/1999/xlink" x="0px" y="0px"
	 viewBox="0 0 70.24 47.51" style="enable-background:new 0 0 70.24 47.51;" xml:space="preserve">
<style type="text/css">
	.st0{fill:#EA5B51;}
	.st1{fill:#B62922;}
	.st2{fill:#922223;}
	.st3{fill:#BF4030;}
	.st4{fill:#D1D1D1;}
	.st5{fill:#FFFFFF;}
</style>
<g>
	<polygon class="st0" points="25.84,22.06 48.13,7.15 45.82,5.82 23.16,18.9 24.13,20.39 	"/>
	<polygon class="st1" points="22.23,31.34 25.47,20.24 23.16,18.9 17.41,28.87 18.44,30.77 	"/>
	<polygon class="st2" points="19.71,39.61 19.71,30.21 17.41,28.87 17.41,38.28 	"/>
	<polygon class="st3" points="19.71,30.21 25.47,20.24 48.13,7.15 53.89,10.48 53.89,19.88 48.13,29.85 25.47,42.93 19.71,39.61 	
		"/>
	<g>
		<polygon class="st4" points="40.88,19.79 39.35,18.9 30.41,29.44 31.94,30.32 38.23,25.94 		"/>
		<polygon class="st5" points="40.88,30.53 40.88,19.79 31.94,30.32 		"/>
	</g>
</g>
</svg>
