<?xml version="1.0" encoding="utf-8"?>
<!-- Generator: Adobe Illustrator 23.0.2, SVG Export Plug-In . SVG Version: 6.00 Build 0)  -->
<svg version="1.1" id="圖層_1" xmlns="http://www.w3.org/2000/svg" xmlns:xlink="http://www.w3.org/1999/xlink" x="0px" y="0px"
	 viewBox="0 0 70.24 47.51" style="enable-background:new 0 0 70.24 47.51;" xml:space="preserve">
<style type="text/css">
	.st0{fill:#C7904C;}
	.st1{fill:#F6C156;}
	.st2{fill:#F3E27B;}
	.st3{fill:#DCB85F;}
	.st4{fill:#D5DE5F;}
	.st5{fill:#8F9D46;}
	.st6{fill:#D1D1D1;}
	.st7{fill:#AEBC46;}
	.st8{fill:#7CCAD9;}
	.st9{fill:#BBE2F0;}
	.st10{fill:#86A2D4;}
	.st11{fill:#5D99A7;}
	.st12{fill:#BF4030;}
	.st13{fill:#EA5B51;}
	.st14{fill:#B62922;}
	.st15{fill:#922223;}
	.st16{fill:#FFFFFF;}
	.st17{fill:#E68D31;}
</style>
<g>
	<g>
		<g>
			<polygon class="st0" points="20.41,25.76 21.01,25.31 21.1,26.16 23.59,36.26 21.1,45.67 20.41,45.27 			"/>
			<polygon class="st1" points="20.41,25.76 21.1,26.16 21.91,26.37 21.98,24.65 21.29,24.25 			"/>
			<polygon class="st2" points="21.98,24.65 34.2,22.15 48.29,9.45 47.6,9.06 21.29,24.25 			"/>
			<polygon class="st3" points="21.1,26.16 21.98,24.65 48.29,9.45 49.16,9.96 49.16,29.47 48.29,30.98 21.98,46.17 21.1,45.67 			
				"/>
		</g>
		<g>
			<polygon class="st3" points="37.74,15.54 37.74,14.38 38.99,12.23 45.33,8.56 46.58,9.28 46.58,10.44 			"/>
			<polygon class="st2" points="38.99,12.23 45.33,8.56 44.99,8.37 38.65,12.03 			"/>
			<polygon class="st1" points="37.74,14.38 38.99,12.23 38.65,12.03 37.4,14.19 			"/>
			<polygon class="st0" points="37.74,15.54 37.74,14.38 37.4,14.19 37.4,15.35 			"/>
		</g>
	</g>
	<g>
		<polygon class="st4" points="25.51,11.48 26.28,11.93 44.75,1.26 43.98,0.82 		"/>
		<polygon class="st5" points="25.51,14.24 26.28,14.69 26.28,11.93 25.51,11.48 		"/>
		<polygon class="st6" points="25.51,27.84 26.28,28.29 26.28,14.69 25.51,14.24 		"/>
		<polygon class="st7" points="26.28,11.93 44.75,1.26 44.75,4.03 26.28,14.69 		"/>
		<g>
			<g>
				<polygon class="st3" points="32.11,9.97 32.55,9.22 33.16,8.86 33.6,9.11 33.6,9.82 33.16,10.57 32.55,10.92 32.11,10.67 				
					"/>
				<polygon class="st2" points="32.55,9.22 33.16,8.86 32.84,8.68 32.22,9.03 32.46,9.23 				"/>
				<polygon class="st1" points="32.11,9.97 32.55,9.22 32.22,9.03 31.79,9.78 32.04,10 				"/>
				<polygon class="st0" points="32.11,10.67 32.11,9.97 31.79,9.78 31.79,10.49 				"/>
			</g>
			<g>
				<polygon class="st8" points="30.06,11.15 30.49,10.4 31.11,10.05 31.54,10.3 31.54,11.01 31.11,11.76 30.49,12.11 30.06,11.86 
									"/>
				<polygon class="st9" points="30.49,10.4 31.11,10.05 30.79,9.86 30.17,10.21 30.41,10.41 				"/>
				<polygon class="st10" points="30.06,11.15 30.49,10.4 30.17,10.21 29.74,10.97 29.98,11.19 				"/>
				<polygon class="st11" points="30.06,11.86 30.06,11.15 29.74,10.97 29.74,11.67 				"/>
			</g>
			<g>
				<polygon class="st12" points="28.01,12.34 28.44,11.59 29.05,11.23 29.49,11.48 29.49,12.19 29.05,12.94 28.44,13.29 
					28.01,13.05 				"/>
				<polygon class="st13" points="28.44,11.59 29.05,11.23 28.73,11.04 28.12,11.4 28.36,11.6 				"/>
				<polygon class="st14" points="28.01,12.34 28.44,11.59 28.12,11.4 27.69,12.15 27.93,12.37 				"/>
				<polygon class="st15" points="28.01,13.05 28.01,12.34 27.69,12.15 27.69,12.86 				"/>
			</g>
		</g>
		<polygon class="st16" points="44.75,17.63 26.28,28.29 26.28,14.69 44.75,4.03 		"/>
		<polygon class="st17" points="27.96,17.63 43.08,8.9 43.08,6.36 27.96,15.09 		"/>
		<polygon class="st6" points="28.22,19.37 42.82,10.94 43.08,11.09 43.08,11.43 42.82,11.88 28.22,20.31 27.96,20.16 27.96,19.83 
					"/>
		<polygon class="st6" points="28.22,20.98 42.82,12.55 43.08,12.7 43.08,13.03 42.82,13.49 28.22,21.92 27.96,21.77 27.96,21.43 		
			"/>
		<polygon class="st6" points="28.22,22.58 42.82,14.16 43.08,14.31 43.08,14.64 42.82,15.1 28.22,23.53 27.96,23.37 27.96,23.04 		
			"/>
		<polygon class="st6" points="34.06,20.82 42.82,15.77 43.08,15.92 43.08,16.25 42.82,16.71 34.06,21.77 33.79,21.61 33.79,21.28 
					"/>
	</g>
	<g>
		<polygon class="st0" points="22.35,26.87 22.95,26.42 23.04,27.27 25.53,37.38 23.04,46.78 22.35,46.39 		"/>
		<polygon class="st0" points="21.1,45.67 22.35,46.39 22.63,45.96 22.35,45.25 21.1,44.53 20.89,45.1 		"/>
		<polygon class="st1" points="22.35,26.87 23.04,27.27 23.84,27.49 23.91,25.76 23.22,25.36 		"/>
		<polygon class="st2" points="23.91,25.76 36.14,23.26 50.22,10.57 49.53,10.17 23.22,25.36 		"/>
		<polygon class="st3" points="23.04,27.27 23.91,25.76 50.22,10.57 51.1,11.08 51.1,30.59 50.22,32.1 23.91,47.29 23.04,46.78 		
			"/>
	</g>
	<polygon class="st3" points="38.99,16.26 38.99,15.1 40.23,12.95 46.57,9.28 47.82,10 47.82,11.16 	"/>
	<g>
		<polygon class="st3" points="39.32,16.46 39.32,15.3 40.57,13.14 46.91,9.48 48.16,10.2 48.16,11.36 		"/>
		<polygon class="st2" points="40.57,13.14 46.91,9.48 46.57,9.28 40.23,12.95 		"/>
		<polygon class="st1" points="39.32,15.3 40.57,13.14 40.23,12.95 38.99,15.1 		"/>
		<polygon class="st0" points="39.32,16.46 39.32,15.3 38.99,15.1 38.99,16.26 		"/>
	</g>
</g>
</svg>
