<?xml version="1.0" encoding="utf-8"?>
<!-- Generator: Adobe Illustrator 23.0.2, SVG Export Plug-In . SVG Version: 6.00 Build 0)  -->
<svg version="1.1" id="圖層_1" xmlns="http://www.w3.org/2000/svg" xmlns:xlink="http://www.w3.org/1999/xlink" x="0px" y="0px"
	 viewBox="0 0 70.24 47.51" style="enable-background:new 0 0 70.24 47.51;" xml:space="preserve">
<style type="text/css">
	.st0{fill:#D5DE5F;}
	.st1{fill:#D3CC4B;}
	.st2{fill:#8F9D46;}
	.st3{fill:#AEBC46;}
	.st4{fill:#D1D1D1;}
	.st5{fill:#FFFFFF;}
</style>
<g>
	<g>
		<polygon class="st0" points="30.44,19.39 42.55,11.3 40.9,10.34 28.6,17.45 29.52,18.49 		"/>
		<polygon class="st1" points="28.48,24.44 30.24,18.4 28.6,17.45 25.47,22.86 26.03,23.88 		"/>
		<polygon class="st2" points="27.11,36.66 27.11,23.82 25.47,22.86 25.47,35.71 		"/>
		<polygon class="st3" points="27.11,23.82 30.24,18.4 42.55,11.3 45.67,13.1 45.67,25.95 42.55,31.37 30.24,38.47 27.11,36.66 		
			"/>
	</g>
	<g>
		<polygon class="st4" points="36.39,18.72 34.69,23.68 30.89,26.51 32.01,27.16 33.71,27.22 33.64,28.02 32.99,32.76 34.11,33.41 
			36.39,28.74 39.79,28.84 39.14,24.84 43.01,20.81 41.89,20.16 38.09,21.72 37.59,20.83 37.51,19.37 		"/>
		<polygon class="st5" points="37.51,19.37 35.81,24.32 32.01,27.16 34.76,28.66 34.11,33.41 37.51,29.38 40.9,29.48 40.26,25.49 
			43.01,20.81 39.21,22.36 		"/>
	</g>
</g>
</svg>
