<?xml version="1.0" encoding="utf-8"?>
<!-- Generator: Adobe Illustrator 23.0.2, SVG Export Plug-In . SVG Version: 6.00 Build 0)  -->
<svg version="1.1" id="圖層_1" xmlns="http://www.w3.org/2000/svg" xmlns:xlink="http://www.w3.org/1999/xlink" x="0px" y="0px"
	 viewBox="0 0 70.24 47.51" style="enable-background:new 0 0 70.24 47.51;" xml:space="preserve">
<style type="text/css">
	.st0{fill:#EFC6DD;}
	.st1{fill:#A0819C;}
	.st2{fill:#987894;}
	.st3{fill:#C6A4CA;}
	.st4{fill:#D1D1D1;}
	.st5{fill:#FFFFFF;}
	.st6{fill:#448AAF;}
</style>
<g>
	<g>
		<polygon class="st0" points="29.3,21.85 43.11,12.32 41.37,11.32 27.28,19.46 28.02,20.58 		"/>
		<polygon class="st1" points="26.57,28.86 29.02,20.46 27.28,19.46 22.93,27 23.71,28.43 		"/>
		<polygon class="st2" points="24.66,35.12 24.66,28.01 22.93,27 22.93,34.12 		"/>
		<polygon class="st3" points="24.66,28.01 29.02,20.46 43.11,12.32 47.47,14.84 47.47,21.95 43.11,29.5 29.02,37.63 24.66,35.12 		
			"/>
	</g>
	<g>
		<polygon class="st4" points="29.65,25.23 30.16,24.35 41.08,18.04 42.94,19.12 41.59,25.13 41.08,26.01 31.51,33.1 29.65,32.02 		
			"/>
		<polygon class="st5" points="31.51,26.3 32.02,25.43 42.94,19.12 43.45,19.41 43.45,26.21 42.94,27.08 32.02,33.39 31.51,33.1 		
			"/>
		<g>
			<polygon class="st4" points="35.9,25.94 37.41,23.32 39.55,22.09 41.05,22.96 42.34,23.7 38.69,30.02 37.41,29.28 35.9,28.4 			
				"/>
			<polygon class="st5" points="38.69,27.55 40.2,24.93 42.34,23.7 43.85,24.57 43.85,27.04 42.34,29.65 40.2,30.89 38.69,30.02 			
				"/>
			<polygon class="st4" points="39.1,29.59 39.1,29.59 40.37,30.33 42.17,29.29 43.45,27.08 43.45,25 42.77,24.61 42.77,26.69 
				41.49,28.9 39.69,29.93 			"/>
			<polygon class="st6" points="39.1,27.51 39.1,29.59 39.69,29.93 41.49,28.9 42.77,26.69 42.77,24.61 42.17,24.26 40.37,25.3 			
				"/>
		</g>
		<polygon class="st4" points="33.95,19.92 34.45,19.04 38.77,16.54 40.64,17.62 40.02,19.04 38.93,19.92 35.81,22.18 33.95,21.11 
					"/>
		<polygon class="st5" points="35.81,20.99 36.32,20.12 40.64,17.62 41.14,17.91 41.14,19.1 40.64,19.98 36.32,22.48 35.81,22.18 		
			"/>
	</g>
</g>
</svg>
