<?xml version="1.0" encoding="utf-8"?>
<!-- Generator: Adobe Illustrator 23.0.2, SVG Export Plug-In . SVG Version: 6.00 Build 0)  -->
<svg version="1.1" id="圖層_1" xmlns="http://www.w3.org/2000/svg" xmlns:xlink="http://www.w3.org/1999/xlink" x="0px" y="0px"
	 viewBox="0 0 70.24 47.51" style="enable-background:new 0 0 70.24 47.51;" xml:space="preserve">
<style type="text/css">
	.st0{fill:#B8C8E7;}
	.st1{fill:#5970A5;}
	.st2{fill:#D1D1D1;}
	.st3{fill:#86A2D4;}
	.st4{fill:#AEBC46;}
	.st5{fill:#D5DE5F;}
	.st6{fill:#D3CC4B;}
	.st7{fill:#8F9D46;}
	.st8{fill:#7CCAD9;}
	.st9{fill:#BBE2F0;}
	.st10{fill:#5D99A7;}
	.st11{fill:#942F25;}
	.st12{fill:#EA5B51;}
	.st13{fill:#B62922;}
	.st14{fill:#922223;}
	.st15{fill:#FFFFFF;}
	.st16{fill:#DF5B43;}
	.st17{fill:#F18A28;}
	.st18{fill:#F6C156;}
	.st19{fill:#4285A1;}
	.st20{fill:#F6E57C;}
	.st21{fill:#F4AC54;}
	.st22{fill:#DC5054;}
</style>
<g>
	<polygon class="st0" points="20.64,17.8 21.41,18.24 50.77,1.3 49.99,0.85 	"/>
	<polygon class="st1" points="20.64,20.55 21.41,21 21.41,18.24 20.64,17.8 	"/>
	<polygon class="st2" points="20.64,46.77 21.41,47.22 21.41,21 20.64,20.55 	"/>
	<polygon class="st3" points="21.41,18.24 50.77,1.3 50.77,4.05 21.41,21 	"/>
	<g>
		<g>
			<polygon class="st4" points="27.24,16.28 27.67,15.53 28.28,15.18 28.71,15.43 28.71,16.14 28.28,16.89 27.67,17.24 27.24,16.99 
							"/>
			<polygon class="st5" points="27.67,15.53 28.28,15.18 27.96,14.99 27.35,15.35 27.58,15.54 			"/>
			<polygon class="st6" points="27.24,16.28 27.67,15.53 27.35,15.35 26.91,16.1 27.16,16.32 			"/>
			<polygon class="st7" points="27.24,16.99 27.24,16.28 26.91,16.1 26.91,16.81 			"/>
		</g>
		<g>
			<polygon class="st8" points="25.19,17.47 25.62,16.72 26.23,16.36 26.66,16.61 26.66,17.32 26.23,18.07 25.62,18.42 25.19,18.17 
							"/>
			<polygon class="st9" points="25.62,16.72 26.23,16.36 25.91,16.18 25.29,16.53 25.54,16.73 			"/>
			<polygon class="st3" points="25.19,17.47 25.62,16.72 25.29,16.53 24.86,17.28 25.11,17.5 			"/>
			<polygon class="st10" points="25.19,18.17 25.19,17.47 24.86,17.28 24.86,17.99 			"/>
		</g>
		<g>
			<polygon class="st11" points="23.13,18.65 23.57,17.9 24.18,17.55 24.61,17.8 24.61,18.51 24.18,19.25 23.57,19.61 23.13,19.35 
							"/>
			<polygon class="st12" points="23.57,17.9 24.18,17.55 23.86,17.36 23.24,17.72 23.49,17.91 			"/>
			<polygon class="st13" points="23.13,18.65 23.57,17.9 23.24,17.72 22.81,18.46 23.06,18.68 			"/>
			<polygon class="st14" points="23.13,19.35 23.13,18.65 22.81,18.46 22.81,19.17 			"/>
		</g>
	</g>
	<polygon class="st15" points="50.77,30.27 21.41,47.22 21.41,21 50.77,4.05 	"/>
	<polygon class="st8" points="23.09,40.48 49.1,25.47 49.1,6.38 23.09,21.4 	"/>
	<g>
		<g>
			<polygon class="st12" points="42.02,22.34 42.4,21.68 42.93,21.38 43.31,21.59 43.31,22.21 42.93,22.87 42.4,23.17 42.02,22.95 
							"/>
			<polygon class="st12" points="37.68,24.35 38.06,23.7 38.6,23.39 38.97,23.61 38.97,24.23 38.6,24.88 38.06,25.19 37.68,24.97 
							"/>
			<polygon class="st12" points="32.09,24.87 32.47,24.21 33,23.9 33.38,24.12 33.38,24.74 33,25.39 32.47,25.7 32.09,25.48 			"/>
			<polygon class="st12" points="30.29,23.55 30.67,22.9 31.21,22.59 31.58,22.81 31.58,23.43 31.21,24.08 30.67,24.39 30.29,24.17 
							"/>
			<polygon class="st12" points="25.73,23.24 26.2,22.43 26.87,22.04 27.34,22.32 27.34,23.08 26.87,23.9 26.2,24.28 25.73,24.01 
							"/>
			<polygon class="st12" points="47.66,25.33 47.87,24.96 42.73,22.07 38.4,24.09 32.81,24.61 30.99,23.36 26.61,22.97 26.46,23.35 
				30.82,23.74 32.67,24.99 38.35,24.46 42.59,22.48 			"/>
		</g>
		<g>
			<path class="st16" d="M45.3,12.79v2.6l-1.59,2.76l-1.09,0.63v-1.32l0.61-0.35l0.92-1.6V14L45.3,12.79z"/>
			<polygon class="st17" points="45.3,12.79 43.71,11.87 41.45,13.17 41.93,14.22 43.23,13.47 44.16,14 			"/>
			<polygon class="st18" points="42.62,17.47 41.93,17.87 41,17.33 41,15.82 41.93,14.22 41.45,13.17 39.86,15.94 39.86,18.54 
				41.45,19.46 42.62,18.78 			"/>
			<path class="st18" d="M41.64,15.76v0.89l0.55,0.32l0.77-0.45l0.55-0.95v-0.89l-0.55-0.32l-0.77,0.45L41.64,15.76z"/>
		</g>
		<g>
			<polygon class="st19" points="24.95,37.3 32.16,33.14 32.16,33.04 24.95,37.2 			"/>
			<polygon class="st20" points="30.59,31.98 31.84,31.26 31.84,33.22 30.59,33.95 			"/>
			<polygon class="st18" points="28.88,31 30.14,30.27 30.14,34.2 28.88,34.93 			"/>
			<polygon class="st21" points="27.18,30.02 28.44,29.29 28.44,35.19 27.18,35.91 			"/>
			<polygon class="st22" points="25.48,27.4 26.73,26.68 26.73,36.17 25.48,36.9 			"/>
		</g>
		<polygon class="st19" points="47.67,25.06 47.67,8.09 47.95,7.93 47.95,25.23 24.21,38.94 24.21,38.61 		"/>
	</g>
	<polygon class="st2" points="23.35,41.93 48.83,27.22 49.1,27.37 49.1,27.7 48.83,28.16 23.35,42.87 23.09,42.72 23.09,42.38 	"/>
	<polygon class="st2" points="29.74,39.84 48.83,28.82 49.1,28.98 49.1,29.31 48.83,29.76 29.74,40.78 29.47,40.63 29.47,40.3 	"/>
</g>
</svg>
