<?xml version="1.0" encoding="utf-8"?>
<!-- Generator: Adobe Illustrator 23.0.2, SVG Export Plug-In . SVG Version: 6.00 Build 0)  -->
<svg version="1.1" id="圖層_1" xmlns="http://www.w3.org/2000/svg" xmlns:xlink="http://www.w3.org/1999/xlink" x="0px" y="0px"
	 viewBox="0 0 70.24 47.51" style="enable-background:new 0 0 70.24 47.51;" xml:space="preserve">
<style type="text/css">
	.st0{fill:#EA5B51;}
	.st1{fill:#922223;}
	.st2{fill:#D1D1D1;}
	.st3{fill:#BF4030;}
	.st4{fill:#AEBC46;}
	.st5{fill:#D5DE5F;}
	.st6{fill:#D3CC4B;}
	.st7{fill:#8F9D46;}
	.st8{fill:#7CCAD9;}
	.st9{fill:#BBE2F0;}
	.st10{fill:#86A2D4;}
	.st11{fill:#5D99A7;}
	.st12{fill:#942F25;}
	.st13{fill:#B62922;}
	.st14{fill:#FFFFFF;}
	.st15{fill:#295E79;}
	.st16{fill:#F3E27B;}
	.st17{fill:#F4AC54;}
	.st18{fill:#DF5B43;}
	.st19{fill:#F4EEE8;}
	.st20{fill:#4285A1;}
	.st21{fill:#C7904C;}
	.st22{fill:#DCB85F;}
	.st23{fill:#403531;}
	.st24{fill:#685750;}
</style>
<g>
	<polygon class="st0" points="21.03,20.45 21.79,20.89 50.73,4.18 49.96,3.74 	"/>
	<polygon class="st1" points="21.03,23.17 21.79,23.61 21.79,20.89 21.03,20.45 	"/>
	<polygon class="st2" points="21.03,45 21.79,45.44 21.79,23.61 21.03,23.17 	"/>
	<polygon class="st3" points="21.79,20.89 50.73,4.18 50.73,6.9 21.79,23.61 	"/>
	<g>
		<g>
			<polygon class="st4" points="27.53,18.96 27.96,18.22 28.56,17.87 28.99,18.12 28.99,18.81 28.56,19.55 27.96,19.9 27.53,19.66 
							"/>
			<polygon class="st5" points="27.96,18.22 28.56,17.87 28.24,17.69 27.64,18.04 27.88,18.23 			"/>
			<polygon class="st6" points="27.53,18.96 27.96,18.22 27.64,18.04 27.21,18.77 27.45,18.99 			"/>
			<polygon class="st7" points="27.53,19.66 27.53,18.96 27.21,18.77 27.21,19.47 			"/>
		</g>
		<g>
			<polygon class="st8" points="25.51,20.12 25.94,19.39 26.54,19.04 26.96,19.28 26.96,19.98 26.54,20.72 25.94,21.07 25.51,20.82 
							"/>
			<polygon class="st9" points="25.94,19.39 26.54,19.04 26.22,18.85 25.62,19.2 25.85,19.4 			"/>
			<polygon class="st10" points="25.51,20.12 25.94,19.39 25.62,19.2 25.19,19.94 25.43,20.16 			"/>
			<polygon class="st11" points="25.51,20.82 25.51,20.12 25.19,19.94 25.19,20.64 			"/>
		</g>
		<g>
			<polygon class="st12" points="23.49,21.29 23.91,20.55 24.52,20.2 24.94,20.45 24.94,21.15 24.52,21.89 23.91,22.23 23.49,21.99 
							"/>
			<polygon class="st0" points="23.91,20.55 24.52,20.2 24.2,20.02 23.6,20.37 23.83,20.56 			"/>
			<polygon class="st13" points="23.49,21.29 23.91,20.55 23.6,20.37 23.17,21.11 23.41,21.32 			"/>
			<polygon class="st1" points="23.49,21.99 23.49,21.29 23.17,21.11 23.17,21.81 			"/>
		</g>
	</g>
	<polygon class="st14" points="50.73,28.74 21.79,45.44 21.79,23.61 50.73,6.9 	"/>
	<polygon class="st15" points="33.07,19.35 49.08,10.1 49.08,22.34 33.07,31.59 	"/>
	<g>
		<polygon class="st9" points="23.56,37.09 32.63,31.85 32.63,19.61 23.56,24.85 		"/>
		<g>
			<polygon class="st16" points="31.69,21.58 32.23,21.26 32.29,21.49 32.29,21.86 32.23,22.15 31.69,22.46 31.64,22.23 
				31.64,21.87 			"/>
			<polygon class="st17" points="31.69,23.08 32.23,22.76 32.29,22.99 32.29,23.36 32.23,23.65 31.69,23.97 31.64,23.73 
				31.64,23.37 			"/>
			<polygon class="st18" points="31.69,24.58 32.23,24.26 32.29,24.49 32.29,24.86 32.23,25.15 31.69,25.46 31.64,25.23 
				31.64,24.87 			"/>
		</g>
		<polygon class="st18" points="32.63,31.85 29.48,26.24 28.35,27.23 26.78,25.08 25.38,27.36 23.56,24.85 23.56,26.94 24.07,35.38 
					"/>
		<polygon class="st17" points="32.63,31.85 31.08,26.63 28.47,29.42 25.69,28.44 24.53,29.69 23.56,26.94 23.56,29.66 24.22,36.13 
					"/>
		<polygon class="st16" points="32.63,31.85 29.97,29.05 28.76,31.92 26.73,30.92 25.33,32.56 23.56,29.66 23.56,37.09 		"/>
	</g>
	<g>
		<g>
			<polygon class="st3" points="34.96,23.03 37.1,19.33 40.13,17.58 42.27,18.82 42.27,22.31 40.13,26.02 37.1,27.76 34.96,26.53 
							"/>
			<polygon class="st1" points="37.18,26.94 37.32,27.02 39.91,25.53 41.73,22.36 41.73,19.38 41.59,19.3 41.59,22.28 39.76,25.45 
							"/>
			<polygon class="st19" points="35.49,22.98 35.49,25.97 35.52,25.98 37.18,26.94 39.76,25.45 41.59,22.28 41.59,19.3 39.91,18.32 
				37.32,19.82 			"/>
			<polygon class="st20" points="37.62,25.22 37.78,24.94 39.06,24.2 39.22,24.3 39.22,24.56 39.06,24.85 37.78,25.59 37.62,25.49 
							"/>
			<polygon class="st3" points="35.71,25.08 35.77,22.86 37.48,20 39.68,18.79 41.25,19.79 41.19,21.92 41.13,19.9 39.59,19.1 
				37.62,20.3 36.21,22.82 36.26,24.76 			"/>
			<g>
				<g>
					<g>
						<polygon class="st21" points="38.48,22.04 35.96,22.73 36.15,22.85 38.26,22.52 39.01,22.12 38.81,22.01 						"/>
					</g>
					<polygon class="st22" points="38.67,22.15 36.15,22.85 38.32,23.28 38.65,23.26 38.99,22.91 39.14,22.44 39.01,22.12 					"/>
				</g>
				<g>
					<polygon class="st23" points="38.67,22.43 38.5,22.61 38.43,22.83 38.5,22.98 38.61,23.05 38.82,22.8 38.94,22.49 38.83,22.42 
											"/>
					<polygon class="st24" points="38.78,22.5 38.61,22.67 38.54,22.9 38.61,23.05 38.77,23.03 38.93,22.86 39.01,22.64 
						38.94,22.49 					"/>
				</g>
			</g>
			<polygon class="st0" points="37.1,19.33 40.13,17.58 39.49,17.21 36.46,18.96 36.73,19.37 			"/>
			<polygon class="st13" points="34.96,23.03 37.1,19.33 36.46,18.96 34.32,22.67 34.61,23.19 			"/>
			<polygon class="st1" points="34.96,26.53 34.96,23.03 34.32,22.67 34.32,26.16 			"/>
		</g>
		<g>
			<polygon class="st3" points="43.36,19.87 44.9,17.21 47.07,15.95 48.61,16.84 48.61,19.35 47.07,22.01 44.9,23.26 43.36,22.37 
							"/>
			<polygon class="st1" points="44.96,22.67 45.06,22.73 46.91,21.66 48.23,19.38 48.23,17.24 48.12,17.18 48.12,19.33 46.81,21.6 
							"/>
			<polygon class="st19" points="43.75,19.83 43.75,21.97 43.77,21.98 44.96,22.67 46.81,21.6 48.12,19.33 48.12,17.18 46.91,16.48 
				45.06,17.55 			"/>
			<polygon class="st20" points="45.27,21.44 45.39,21.23 46.3,20.7 46.42,20.77 46.42,20.96 46.3,21.17 45.39,21.7 45.27,21.63 			
				"/>
			<polygon class="st3" points="43.9,21.33 43.94,19.74 45.17,17.68 46.75,16.82 47.88,17.54 47.84,19.06 47.8,17.62 46.69,17.04 
				45.27,17.9 44.26,19.71 44.3,21.11 			"/>
			<g>
				<g>
					<g>
						<polygon class="st21" points="45.89,19.15 44.09,19.65 44.22,19.73 45.74,19.5 46.27,19.21 46.13,19.13 						"/>
					</g>
					<polygon class="st22" points="46.03,19.23 44.22,19.73 45.78,20.04 46.02,20.03 46.26,19.77 46.36,19.43 46.27,19.21 					"/>
				</g>
				<g>
					<polygon class="st23" points="46.02,19.43 45.91,19.56 45.86,19.72 45.9,19.83 45.98,19.87 46.14,19.7 46.22,19.47 
						46.14,19.43 					"/>
					<polygon class="st24" points="46.1,19.48 45.99,19.6 45.94,19.77 45.98,19.87 46.1,19.87 46.22,19.74 46.27,19.58 46.22,19.47 
											"/>
				</g>
			</g>
			<polygon class="st0" points="44.9,17.21 47.07,15.95 46.62,15.69 44.44,16.94 44.64,17.24 			"/>
			<polygon class="st13" points="43.36,19.87 44.9,17.21 44.44,16.94 42.91,19.6 43.11,19.98 			"/>
			<polygon class="st1" points="43.36,22.37 43.36,19.87 42.91,19.6 42.91,22.11 			"/>
		</g>
	</g>
	<polygon class="st2" points="23.7,39.24 48.82,24.74 49.08,24.89 49.08,25.22 48.82,25.67 23.7,40.17 23.44,40.02 23.44,39.69 	"/>
	<polygon class="st2" points="30,37.19 48.82,26.32 49.08,26.47 49.08,26.8 48.82,27.25 30,38.12 29.74,37.97 29.74,37.64 	"/>
</g>
</svg>
