<?xml version="1.0" encoding="utf-8"?>
<!-- Generator: Adobe Illustrator 23.0.2, SVG Export Plug-In . SVG Version: 6.00 Build 0)  -->
<svg version="1.1" id="圖層_1" xmlns="http://www.w3.org/2000/svg" xmlns:xlink="http://www.w3.org/1999/xlink" x="0px" y="0px"
	 viewBox="0 0 70.24 47.51" style="enable-background:new 0 0 70.24 47.51;" xml:space="preserve">
<style type="text/css">
	.st0{fill:#89C5C4;}
	.st1{fill:#3D6568;}
	.st2{fill:#D1D1D1;}
	.st3{fill:#3B9392;}
	.st4{fill:#FFFFFF;}
	.st5{fill:#F3E27B;}
	.st6{fill:#C7904C;}
	.st7{fill:#DCB85F;}
	.st8{fill:#EE7E6D;}
	.st9{fill:#CD3B20;}
	.st10{fill:#DF5B43;}
	.st11{fill:#EFC6DD;}
	.st12{fill:#987894;}
	.st13{fill:#C6A4CA;}
	.st14{fill:#BBE2F0;}
	.st15{fill:#F4EEE8;}
	.st16{fill:#F6C156;}
</style>
<g>
	<g>
		<polygon class="st0" points="24.39,15.24 25.05,15.61 46.98,2.96 46.33,2.58 		"/>
		<polygon class="st1" points="24.39,17.56 25.05,17.94 25.05,15.61 24.39,15.24 		"/>
		<polygon class="st2" points="24.39,45.46 25.05,45.84 25.05,17.94 24.39,17.56 		"/>
		<polygon class="st3" points="25.05,15.61 46.98,2.96 46.98,5.28 25.05,17.94 		"/>
		<polygon class="st4" points="46.98,33.18 25.05,45.84 25.05,17.94 46.98,5.28 		"/>
	</g>
	<g>
		<g>
			<polygon class="st5" points="28.76,18.92 29.21,19.18 33.24,16.85 32.79,16.59 			"/>
			<polygon class="st6" points="28.76,23.55 29.21,23.81 29.21,19.18 28.76,18.92 			"/>
			<polygon class="st7" points="29.21,19.18 33.24,16.85 33.24,21.48 29.21,23.81 			"/>
		</g>
		<g>
			<polygon class="st8" points="28.76,26.91 29.21,27.17 33.24,24.84 32.79,24.58 			"/>
			<polygon class="st9" points="28.76,31.54 29.21,31.8 29.21,27.17 28.76,26.91 			"/>
			<polygon class="st10" points="29.21,27.17 33.24,24.84 33.24,29.47 29.21,31.8 			"/>
		</g>
		<g>
			<polygon class="st11" points="28.76,34.91 29.21,35.17 33.24,32.84 32.79,32.58 			"/>
			<polygon class="st12" points="28.76,39.54 29.21,39.8 29.21,35.17 28.76,34.91 			"/>
			<polygon class="st13" points="29.21,35.17 33.24,32.84 33.24,37.47 29.21,39.8 			"/>
		</g>
		<g>
			<polygon class="st14" points="35.12,35.86 45.09,30.1 45.09,16.66 35.12,22.42 			"/>
			<polygon class="st15" points="35.12,20.44 45.09,14.68 45.09,9.5 35.12,15.25 			"/>
			<g>
				<polygon class="st16" points="44.46,14.67 43.35,15.31 43.35,14.39 44.46,13.76 				"/>
				<polygon class="st16" points="42.96,15.53 41.86,16.17 41.86,14.34 42.96,13.71 				"/>
				<polygon class="st16" points="41.47,16.39 40.37,17.03 40.37,14.44 41.47,13.8 				"/>
				<polygon class="st13" points="39.98,17.26 38.87,17.89 38.87,14.53 39.98,13.89 				"/>
				<polygon class="st13" points="38.48,18.12 37.38,18.75 37.38,14.39 38.48,13.76 				"/>
				<polygon class="st10" points="36.99,14.62 36.99,18.98 35.88,19.62 35.88,15.26 				"/>
			</g>
			<g>
				<polygon class="st5" points="44.05,18.82 44.65,18.47 44.7,18.73 44.7,19.13 44.65,19.45 44.05,19.8 43.99,19.54 43.99,19.14 
									"/>
				<polygon class="st13" points="44.05,20.47 44.65,20.12 44.7,20.37 44.71,20.78 44.65,21.1 44.05,21.44 43.99,21.19 43.99,20.79 
									"/>
				<polygon class="st10" points="44.05,22.12 44.65,21.77 44.7,22.02 44.7,22.43 44.65,22.74 44.05,23.09 43.99,22.84 43.99,22.43 
									"/>
			</g>
			<polygon class="st10" points="45.09,30.1 41.62,23.95 40.38,25.03 38.66,22.67 37.12,25.18 35.12,22.42 35.12,24.71 35.69,33.98 
							"/>
			<polygon class="st13" points="45.09,30.1 43.38,24.37 40.51,27.43 37.46,26.35 36.19,27.73 35.12,24.71 35.12,27.7 35.85,34.8 
							"/>
			<polygon class="st5" points="45.09,30.1 42.16,27.03 40.84,30.18 38.6,29.08 37.06,30.89 35.12,27.7 35.12,35.86 			"/>
		</g>
	</g>
</g>
</svg>
