<?xml version="1.0" encoding="utf-8"?>
<!-- Generator: Adobe Illustrator 23.0.2, SVG Export Plug-In . SVG Version: 6.00 Build 0)  -->
<svg version="1.1" id="圖層_1" xmlns="http://www.w3.org/2000/svg" xmlns:xlink="http://www.w3.org/1999/xlink" x="0px" y="0px"
	 viewBox="0 0 70.24 47.51" style="enable-background:new 0 0 70.24 47.51;" xml:space="preserve">
<style type="text/css">
	.st0{fill:#EFC6DD;}
	.st1{fill:#987894;}
	.st2{fill:#D1D1D1;}
	.st3{fill:#C6A4CA;}
	.st4{fill:#AEBC46;}
	.st5{fill:#D5DE5F;}
	.st6{fill:#D3CC4B;}
	.st7{fill:#8F9D46;}
	.st8{fill:#7CCAD9;}
	.st9{fill:#BBE2F0;}
	.st10{fill:#86A2D4;}
	.st11{fill:#5D99A7;}
	.st12{fill:#942F25;}
	.st13{fill:#EA5B51;}
	.st14{fill:#B62922;}
	.st15{fill:#922223;}
	.st16{fill:#FFFFFF;}
	.st17{opacity:0.5;fill:#C6DCE5;}
	.st18{fill:#4285A1;}
	.st19{fill:#89C5C4;}
	.st20{fill:#F6E57C;}
	.st21{fill:#DC5054;}
</style>
<g>
	<polygon class="st0" points="25.03,19.35 25.73,19.75 46.78,7.6 46.08,7.19 	"/>
	<polygon class="st1" points="25.03,21.85 25.73,22.26 25.73,19.75 25.03,19.35 	"/>
	<polygon class="st2" points="25.03,41.28 25.73,41.69 25.73,22.26 25.03,21.85 	"/>
	<polygon class="st3" points="25.73,19.75 46.78,7.6 46.78,10.1 25.73,22.26 	"/>
	<g>
		<g>
			<polygon class="st4" points="31.01,17.97 31.41,17.29 31.96,16.97 32.36,17.2 32.36,17.84 31.96,18.52 31.41,18.84 31.01,18.62 
							"/>
			<polygon class="st5" points="31.41,17.29 31.96,16.97 31.67,16.8 31.11,17.12 31.34,17.3 			"/>
			<polygon class="st6" points="31.01,17.97 31.41,17.29 31.11,17.12 30.72,17.8 30.95,18 			"/>
			<polygon class="st7" points="31.01,18.62 31.01,17.97 30.72,17.8 30.72,18.44 			"/>
		</g>
		<g>
			<polygon class="st8" points="29.15,19.05 29.55,18.37 30.1,18.05 30.49,18.27 30.49,18.91 30.1,19.59 29.55,19.91 29.15,19.69 
							"/>
			<polygon class="st9" points="29.55,18.37 30.1,18.05 29.81,17.88 29.25,18.2 29.47,18.38 			"/>
			<polygon class="st10" points="29.15,19.05 29.55,18.37 29.25,18.2 28.86,18.88 29.08,19.08 			"/>
			<polygon class="st11" points="29.15,19.69 29.15,19.05 28.86,18.88 28.86,19.52 			"/>
		</g>
		<g>
			<polygon class="st12" points="27.29,20.12 27.69,19.44 28.24,19.12 28.64,19.35 28.64,19.99 28.24,20.67 27.69,20.99 
				27.29,20.76 			"/>
			<polygon class="st13" points="27.69,19.44 28.24,19.12 27.95,18.95 27.39,19.27 27.61,19.45 			"/>
			<polygon class="st14" points="27.29,20.12 27.69,19.44 27.39,19.27 27,19.95 27.22,20.15 			"/>
			<polygon class="st15" points="27.29,20.76 27.29,20.12 27,19.95 27,20.59 			"/>
		</g>
	</g>
	<polygon class="st16" points="46.78,29.53 25.73,41.69 25.73,22.26 46.78,10.1 	"/>
	<polygon class="st17" points="27.25,35.18 45.27,24.78 45.27,12.21 27.25,22.62 	"/>
	<g>
		<g>
			<path class="st13" d="M42.37,14.8l1-0.58l0.71,0.41v1.16l-0.71,1.23l-0.48,0.28v-0.59l0.27-0.16l0.41-0.71v-0.67l-0.41-0.24
				l-0.58,0.33L42.37,14.8z"/>
			<polygon class="st18" points="42.89,16.71 42.58,16.89 42.17,16.65 42.17,15.98 42.58,15.27 42.37,14.8 41.66,16.03 41.66,17.19 
				42.37,17.59 42.89,17.3 			"/>
		</g>
		<g>
			<path class="st13" d="M39.97,17.25l-0.41-0.24l-0.58,0.33l-0.21-0.46l1-0.58l0.71,0.41L39.97,17.25z"/>
			<polygon class="st19" points="39.97,17.25 39.97,17.92 39.56,18.63 39.29,18.79 39.29,19.37 39.77,19.09 40.47,17.87 
				40.47,16.71 			"/>
			<polygon class="st20" points="39.29,18.79 38.98,18.96 38.57,18.73 38.57,18.06 38.98,17.35 38.77,16.89 38.06,18.11 
				38.06,19.26 38.77,19.68 39.29,19.37 			"/>
		</g>
		<g>
			<path class="st21" d="M42.37,18.21l1-0.58l0.71,0.41v1.15l-0.71,1.23l-0.48,0.28v-0.59l0.27-0.16l0.41-0.71v-0.67l-0.41-0.24
				l-0.58,0.33L42.37,18.21z"/>
			<polygon class="st4" points="41.66,20.59 42.37,21 42.89,20.7 42.89,20.12 42.58,20.29 42.17,20.06 			"/>
			<polygon class="st20" points="42.17,20.06 42.17,19.39 42.58,18.68 42.37,18.21 41.66,19.44 41.66,20.59 			"/>
		</g>
		<polygon class="st18" points="41.67,22.66 44.08,21.27 44.08,20.59 41.67,21.98 		"/>
		<polygon class="st13" points="41.85,24.05 42.46,23 43.32,22.5 43.93,22.85 43.93,23.85 43.32,24.91 42.46,25.4 41.85,25.05 		"/>
		<g>
			<polygon class="st18" points="40.92,26.07 40.92,19.05 41.03,18.98 41.03,26.14 28.84,33.16 28.84,33.04 			"/>
			<polygon class="st19" points="40.92,21.23 38.99,22.14 35.44,22.32 31.57,25.79 28.84,25.4 28.84,27.54 28.96,28.34 39.81,23.78 
				40.92,23.87 			"/>
			<polygon class="st13" points="40.92,22.31 37.1,22.83 35.12,25.26 31.41,26.52 28.84,27.54 28.84,28.4 33.13,29.27 40.92,24.6 
							"/>
			<polygon class="st20" points="40.92,24.6 37.08,24.79 32.77,28.34 28.84,28.4 28.84,33.04 40.92,26.07 			"/>
		</g>
	</g>
	<polygon class="st2" points="27.49,36.65 45.03,26.52 45.27,26.66 45.27,26.96 45.03,27.37 27.49,37.5 27.25,37.36 27.25,37.06 	
		"/>
	<polygon class="st2" points="33.29,34.76 45.03,27.98 45.27,28.12 45.27,28.42 45.03,28.83 33.29,35.61 33.05,35.47 33.05,35.17 	
		"/>
</g>
</svg>
