<?xml version="1.0" encoding="utf-8"?>
<!-- Generator: Adobe Illustrator 23.0.2, SVG Export Plug-In . SVG Version: 6.00 Build 0)  -->
<svg version="1.1" id="圖層_1" xmlns="http://www.w3.org/2000/svg" xmlns:xlink="http://www.w3.org/1999/xlink" x="0px" y="0px"
	 viewBox="0 0 70.24 47.51" style="enable-background:new 0 0 70.24 47.51;" xml:space="preserve">
<style type="text/css">
	.st0{fill:#89C5C4;}
	.st1{fill:#3D6568;}
	.st2{fill:#D1D1D1;}
	.st3{fill:#3B9392;}
	.st4{fill:#AEBC46;}
	.st5{fill:#D5DE5F;}
	.st6{fill:#D3CC4B;}
	.st7{fill:#8F9D46;}
	.st8{fill:#7CCAD9;}
	.st9{fill:#BBE2F0;}
	.st10{fill:#86A2D4;}
	.st11{fill:#5D99A7;}
	.st12{fill:#942F25;}
	.st13{fill:#EA5B51;}
	.st14{fill:#B62922;}
	.st15{fill:#922223;}
	.st16{fill:#FFFFFF;}
	.st17{opacity:0.5;fill:#C6DCE5;}
	.st18{fill:#4285A1;}
	.st19{fill:#F6E57C;}
	.st20{fill:#DC5054;}
</style>
<g>
	<polygon class="st0" points="22.01,18.37 22.86,18.86 48.38,4.13 47.52,3.64 	"/>
	<polygon class="st1" points="22.01,21.4 22.86,21.9 22.86,18.86 22.01,18.37 	"/>
	<polygon class="st2" points="22.01,44.96 22.86,45.45 22.86,21.9 22.01,21.4 	"/>
	<polygon class="st3" points="22.86,18.86 48.38,4.13 48.38,7.16 22.86,21.9 	"/>
	<g>
		<g>
			<polygon class="st4" points="29.26,16.7 29.74,15.88 30.41,15.49 30.89,15.77 30.89,16.54 30.41,17.37 29.74,17.76 29.26,17.48 
							"/>
			<polygon class="st5" points="29.74,15.88 30.41,15.49 30.06,15.29 29.39,15.68 29.65,15.89 			"/>
			<polygon class="st6" points="29.26,16.7 29.74,15.88 29.39,15.68 28.91,16.5 29.18,16.74 			"/>
			<polygon class="st7" points="29.26,17.48 29.26,16.7 28.91,16.5 28.91,17.28 			"/>
		</g>
		<g>
			<polygon class="st8" points="27.01,18.01 27.48,17.18 28.16,16.79 28.64,17.07 28.64,17.85 28.16,18.67 27.48,19.06 27.01,18.78 
							"/>
			<polygon class="st9" points="27.48,17.18 28.16,16.79 27.8,16.59 27.13,16.98 27.39,17.19 			"/>
			<polygon class="st10" points="27.01,18.01 27.48,17.18 27.13,16.98 26.65,17.8 26.92,18.05 			"/>
			<polygon class="st11" points="27.01,18.78 27.01,18.01 26.65,17.8 26.65,18.58 			"/>
		</g>
		<g>
			<polygon class="st12" points="24.75,19.31 25.23,18.49 25.9,18.1 26.38,18.37 26.38,19.15 25.9,19.97 25.23,20.36 24.75,20.09 
							"/>
			<polygon class="st13" points="25.23,18.49 25.9,18.1 25.55,17.89 24.88,18.28 25.14,18.5 			"/>
			<polygon class="st14" points="24.75,19.31 25.23,18.49 24.88,18.28 24.4,19.11 24.67,19.34 			"/>
			<polygon class="st15" points="24.75,20.09 24.75,19.31 24.4,19.11 24.4,19.88 			"/>
		</g>
	</g>
	<polygon class="st16" points="48.38,30.72 22.86,45.45 22.86,21.9 48.38,7.16 	"/>
	<polygon class="st17" points="24.7,37.56 46.54,24.95 46.54,9.72 24.7,22.34 	"/>
	<g>
		<g>
			<path class="st13" d="M43.03,12.87l1.21-0.7l0.86,0.49v1.4l-0.86,1.48l-0.58,0.34v-0.71l0.33-0.19l0.5-0.86v-0.81l-0.5-0.29
				l-0.7,0.41L43.03,12.87z"/>
			<polygon class="st18" points="43.65,15.17 43.28,15.39 42.78,15.1 42.78,14.29 43.28,13.43 43.03,12.87 42.17,14.35 42.17,15.75 
				43.03,16.25 43.65,15.88 			"/>
		</g>
		<g>
			<path class="st13" d="M40.12,15.83l-0.5-0.29l-0.7,0.41l-0.26-0.56l1.21-0.7l0.86,0.49L40.12,15.83z"/>
			<polygon class="st0" points="40.12,15.83 40.12,16.64 39.62,17.5 39.29,17.69 39.29,18.4 39.87,18.07 40.73,16.58 40.73,15.18 
							"/>
			<polygon class="st19" points="39.29,17.69 38.92,17.91 38.42,17.62 38.42,16.81 38.92,15.95 38.66,15.38 37.8,16.87 37.8,18.27 
				38.66,18.77 39.29,18.4 			"/>
		</g>
		<g>
			<path class="st20" d="M43.03,16.99l1.21-0.7l0.86,0.5v1.4l-0.86,1.49l-0.58,0.34V19.3l0.33-0.19l0.5-0.86v-0.81l-0.5-0.28
				l-0.7,0.41L43.03,16.99z"/>
			<polygon class="st4" points="42.17,19.88 43.03,20.37 43.65,20.01 43.65,19.3 43.28,19.52 42.78,19.23 			"/>
			<polygon class="st19" points="42.78,19.23 42.78,18.42 43.28,17.56 43.03,16.99 42.17,18.48 42.17,19.88 			"/>
		</g>
		<polygon class="st18" points="42.17,22.39 45.09,20.7 45.09,19.87 42.17,21.56 		"/>
		<polygon class="st13" points="42.39,24.08 43.13,22.79 44.18,22.19 44.92,22.62 44.92,23.83 44.18,25.11 43.13,25.71 42.39,25.29 
					"/>
		<g>
			<polygon class="st18" points="41.26,26.52 41.26,18.01 41.4,17.93 41.4,26.6 26.63,35.12 26.63,34.97 			"/>
			<polygon class="st0" points="41.26,20.65 38.94,21.75 34.64,21.97 29.93,26.18 26.63,25.71 26.63,28.31 26.77,29.27 39.93,23.75 
				41.26,23.85 			"/>
			<polygon class="st13" points="41.26,21.97 36.64,22.6 34.24,25.54 29.74,27.07 26.63,28.31 26.63,29.34 31.83,30.4 41.26,24.73 
							"/>
			<polygon class="st19" points="41.26,24.73 36.62,24.96 31.4,29.27 26.63,29.34 26.63,34.97 41.26,26.52 			"/>
		</g>
	</g>
	<polygon class="st2" points="24.99,39.34 46.25,27.07 46.54,27.23 46.54,27.6 46.25,28.1 24.99,40.38 24.7,40.21 24.7,39.84 	"/>
	<polygon class="st2" points="32.02,37.05 46.25,28.83 46.54,29 46.54,29.37 46.25,29.87 32.02,38.08 31.73,37.92 31.73,37.55 	"/>
</g>
</svg>
