<?xml version="1.0" encoding="utf-8"?>
<!-- Generator: Adobe Illustrator 23.0.2, SVG Export Plug-In . SVG Version: 6.00 Build 0)  -->
<svg version="1.1" id="圖層_1" xmlns="http://www.w3.org/2000/svg" xmlns:xlink="http://www.w3.org/1999/xlink" x="0px" y="0px"
	 viewBox="0 0 70.24 47.51" style="enable-background:new 0 0 70.24 47.51;" xml:space="preserve">
<style type="text/css">
	.st0{fill:#89C5C4;}
	.st1{fill:#3D6568;}
	.st2{fill:#D1D1D1;}
	.st3{fill:#3B9392;}
	.st4{fill:#AEBC46;}
	.st5{fill:#D5DE5F;}
	.st6{fill:#D3CC4B;}
	.st7{fill:#8F9D46;}
	.st8{fill:#7CCAD9;}
	.st9{fill:#BBE2F0;}
	.st10{fill:#86A2D4;}
	.st11{fill:#5D99A7;}
	.st12{fill:#942F25;}
	.st13{fill:#EA5B51;}
	.st14{fill:#B62922;}
	.st15{fill:#922223;}
	.st16{fill:#FFFFFF;}
	.st17{fill:#DF5B43;}
	.st18{fill:#F6C156;}
	.st19{fill:#C6A4CA;}
	.st20{fill:#4285A1;}
	.st21{fill:#F6E57C;}
	.st22{fill:#DC5054;}
</style>
<g>
	<polygon class="st0" points="23.43,18.83 24.22,19.28 47.93,5.59 47.14,5.14 	"/>
	<polygon class="st1" points="23.43,21.65 24.22,22.1 24.22,19.28 23.43,18.83 	"/>
	<polygon class="st2" points="23.43,43.53 24.22,43.99 24.22,22.1 23.43,21.65 	"/>
	<polygon class="st3" points="24.22,19.28 47.93,5.59 47.93,8.41 24.22,22.1 	"/>
	<g>
		<g>
			<polygon class="st4" points="30.17,17.28 30.61,16.51 31.24,16.15 31.68,16.41 31.68,17.13 31.24,17.89 30.61,18.26 30.17,18 			
				"/>
			<polygon class="st5" points="30.61,16.51 31.24,16.15 30.91,15.96 30.28,16.32 30.53,16.52 			"/>
			<polygon class="st6" points="30.17,17.28 30.61,16.51 30.28,16.32 29.84,17.09 30.09,17.31 			"/>
			<polygon class="st7" points="30.17,18 30.17,17.28 29.84,17.09 29.84,17.81 			"/>
		</g>
		<g>
			<polygon class="st8" points="28.08,18.49 28.52,17.72 29.14,17.36 29.59,17.62 29.59,18.34 29.14,19.1 28.52,19.47 28.08,19.21 
							"/>
			<polygon class="st9" points="28.52,17.72 29.14,17.36 28.81,17.17 28.19,17.53 28.43,17.73 			"/>
			<polygon class="st10" points="28.08,18.49 28.52,17.72 28.19,17.53 27.75,18.3 28,18.52 			"/>
			<polygon class="st11" points="28.08,19.21 28.08,18.49 27.75,18.3 27.75,19.02 			"/>
		</g>
		<g>
			<polygon class="st12" points="25.98,19.7 26.42,18.93 27.05,18.57 27.49,18.83 27.49,19.55 27.05,20.31 26.42,20.67 25.98,20.42 
							"/>
			<polygon class="st13" points="26.42,18.93 27.05,18.57 26.72,18.38 26.09,18.74 26.34,18.94 			"/>
			<polygon class="st14" points="25.98,19.7 26.42,18.93 26.09,18.74 25.65,19.51 25.9,19.73 			"/>
			<polygon class="st15" points="25.98,20.42 25.98,19.7 25.65,19.51 25.65,20.23 			"/>
		</g>
	</g>
	<polygon class="st16" points="47.93,30.3 24.22,43.99 24.22,22.1 47.93,8.41 	"/>
	<g>
		<g>
			<path class="st17" d="M45.04,15.08v2.24l-1.37,2.38l-0.94,0.54V19.1l0.53-0.3l0.8-1.38v-1.3L45.04,15.08z"/>
			<polygon class="st3" points="45.04,15.08 43.66,14.28 41.72,15.41 42.13,16.31 43.26,15.66 44.05,16.12 			"/>
			<polygon class="st18" points="42.73,19.1 42.13,19.45 41.34,18.99 41.34,17.69 42.13,16.31 41.72,15.41 40.35,17.78 40.35,20.03 
				41.72,20.82 42.73,20.24 			"/>
			<path class="st18" d="M41.89,17.63v0.77l0.47,0.27l0.67-0.39l0.47-0.82V16.7l-0.47-0.27l-0.67,0.39L41.89,17.63z"/>
		</g>
		<g>
			<path class="st19" d="M33.73,21.6l1.38-2.38l1.94-1.12l0.66,0.38l-0.7,1.21l-0.37-0.22l-1.13,0.65l-0.8,1.38L33.73,21.6z"/>
			<polygon class="st5" points="33.73,21.6 33.73,23.85 35.11,24.64 35.52,23.27 34.72,22.8 34.72,21.5 			"/>
			<polygon class="st3" points="37.01,19.69 37.44,19.94 37.44,21.24 36.64,22.62 35.52,23.27 35.11,24.64 37.05,23.52 38.42,21.14 
				38.42,18.9 37.71,18.49 			"/>
			<path class="st3" d="M36.41,22.11l0.47-0.82v-0.77l-0.47-0.27l-0.67,0.39l-0.47,0.82v0.77l0.47,0.27L36.41,22.11z"/>
		</g>
		<g>
			<path class="st18" d="M30.43,21.92l1.37,0.79v2.24l-0.67,1.15l-0.7-0.4l0.37-0.65v-1.3l-0.8-0.46L30.43,21.92z"/>
			<polygon class="st17" points="30.43,21.92 28.49,23.05 27.12,25.43 28.1,25.33 28.9,23.95 30.02,23.3 			"/>
			<polygon class="st18" points="30.44,25.71 30.02,26.44 28.9,27.09 28.1,26.63 28.1,25.33 27.12,25.43 27.12,27.67 28.49,28.46 
				30.43,27.34 31.14,26.11 31.14,25.27 			"/>
			<path class="st17" d="M28.65,26.04l0.47,0.27l0.67-0.39l0.47-0.82v-0.77l-0.47-0.27l-0.67,0.39l-0.47,0.82V26.04z"/>
		</g>
	</g>
	<g>
		<polygon class="st20" points="27.14,40.36 45.04,30.02 45.04,29.78 27.14,40.11 		"/>
		<polygon class="st21" points="41.13,30.31 44.25,28.51 44.25,30.23 41.13,32.04 		"/>
		<polygon class="st18" points="36.9,31.02 40.02,29.22 40.02,32.68 36.9,34.48 		"/>
		<polygon class="st22" points="32.67,31.58 35.79,29.78 35.79,35.12 32.67,36.92 		"/>
		<polygon class="st5" points="28.45,31.92 31.57,30.12 31.57,37.56 28.45,39.36 		"/>
	</g>
</g>
</svg>
