<?xml version="1.0" encoding="utf-8"?>
<!-- Generator: Adobe Illustrator 23.0.2, SVG Export Plug-In . SVG Version: 6.00 Build 0)  -->
<svg version="1.1" id="圖層_1" xmlns="http://www.w3.org/2000/svg" xmlns:xlink="http://www.w3.org/1999/xlink" x="0px" y="0px"
	 viewBox="0 0 70.24 47.51" style="enable-background:new 0 0 70.24 47.51;" xml:space="preserve">
<style type="text/css">
	.st0{fill:#67BDD9;}
	.st1{fill:#448AAF;}
	.st2{fill:#2C5875;}
	.st3{fill:#4285A1;}
	.st4{fill:#D1D1D1;}
	.st5{fill:#FFFFFF;}
</style>
<g>
	<g>
		<polygon class="st0" points="29.98,20.4 42.24,12.2 40.57,11.23 28.12,18.42 29.05,19.48 		"/>
		<polygon class="st1" points="28,25.5 29.78,19.39 28.12,18.42 24.95,23.9 25.52,24.94 		"/>
		<polygon class="st2" points="26.61,35.06 26.61,24.87 24.95,23.9 24.95,34.09 		"/>
		<polygon class="st3" points="26.61,24.87 29.78,19.39 42.24,12.2 45.4,14.03 45.4,24.21 42.24,29.7 29.78,36.88 26.61,35.06 		"/>
	</g>
	<g>
		<polygon class="st4" points="32.22,22.35 41.19,16.56 40.27,16.03 31.2,21.27 31.72,21.85 		"/>
		<polygon class="st4" points="31.13,25.16 32.12,21.8 31.2,21.27 29.46,24.28 29.77,24.85 		"/>
		<polygon class="st4" points="30.37,30.42 30.37,24.82 29.46,24.28 29.46,29.89 		"/>
		<polygon class="st4" points="34.41,33.32 35.17,27.9 33.5,27.18 33.5,32.79 		"/>
		<polygon class="st5" points="30.37,24.82 32.12,21.8 41.19,16.56 42.93,17.57 42.93,23.17 41.19,26.19 32.12,31.43 30.37,30.42 		
			"/>
		<g>
			<g>
				<polygon class="st4" points="39.25,23.35 39.84,23.7 40.84,23.12 41.53,21.91 41.53,20.75 40.94,20.42 40.94,21.57 40.24,22.78 
									"/>
				<polygon class="st3" points="39.14,22.14 39.14,23.29 39.25,23.36 39.25,23.35 40.24,22.78 40.94,21.57 40.94,20.42 
					40.84,20.35 39.84,20.92 				"/>
			</g>
			<g>
				<polygon class="st4" points="35.67,25.42 36.26,25.76 37.25,25.19 37.95,23.98 37.95,22.82 37.36,22.48 37.36,23.64 
					36.66,24.84 				"/>
				<polygon class="st3" points="35.56,24.21 35.56,25.36 35.67,25.42 35.67,25.42 36.66,24.84 37.36,23.64 37.36,22.48 
					37.25,22.42 36.26,22.99 				"/>
			</g>
			<g>
				<polygon class="st4" points="32.09,27.49 32.67,27.84 33.68,27.26 34.38,26.05 34.38,24.89 33.78,24.55 33.78,25.7 33.08,26.91 
									"/>
				<polygon class="st3" points="31.98,26.28 31.98,27.42 32.08,27.49 32.09,27.49 33.08,26.91 33.78,25.7 33.78,24.55 33.67,24.48 
					32.67,25.06 				"/>
			</g>
		</g>
		<polygon class="st5" points="34.41,33.32 36.76,28.35 34.41,29.74 		"/>
	</g>
</g>
</svg>
