<?xml version="1.0" encoding="utf-8"?>
<!-- Generator: Adobe Illustrator 23.0.2, SVG Export Plug-In . SVG Version: 6.00 Build 0)  -->
<svg version="1.1" id="圖層_1" xmlns="http://www.w3.org/2000/svg" xmlns:xlink="http://www.w3.org/1999/xlink" x="0px" y="0px"
	 viewBox="0 0 70.24 47.51" style="enable-background:new 0 0 70.24 47.51;" xml:space="preserve">
<style type="text/css">
	.st0{fill:#C7904C;}
	.st1{fill:#F6C156;}
	.st2{fill:#F3E27B;}
	.st3{fill:#DCB85F;}
	.st4{fill:#D1D1D1;}
	.st5{fill:#FFFFFF;}
</style>
<g>
	<polygon class="st0" points="27.24,36.27 28.73,25.62 25.5,24.35 25.5,35.27 	"/>
	<polygon class="st1" points="29.52,25.56 31.97,17.18 30.23,16.17 25.5,24.35 27.25,25.36 	"/>
	<polygon class="st2" points="33.25,18.44 41.81,11.5 40.07,10.5 30.23,16.17 31.97,17.18 	"/>
	<polygon class="st3" points="27.25,25.36 31.97,17.18 41.81,11.5 46.53,14.23 46.53,25.14 41.81,33.32 31.97,39 27.25,36.27 	"/>
	<g>
		<polygon class="st4" points="39.97,18.54 40.91,19.08 40.55,20.7 40.52,27.51 42.08,26.61 43.02,27.15 42.65,27.86 42.08,28.84 
			40.22,30.34 39.28,29.8 39.28,21.56 34.18,23.29 34.3,28.04 34.25,28.97 35.75,28.1 36.68,28.65 36.32,29.36 35.75,30.34 
			33.89,31.84 32.95,31.3 32.95,20.92 		"/>
		<polygon class="st5" points="40.91,19.08 40.91,28.36 43.02,27.15 43.58,27.48 43.58,28.4 43.02,29.38 40.78,30.67 40.22,30.34 
			40.22,22.1 34.58,24.01 34.58,29.86 36.68,28.65 37.25,28.97 37.25,29.9 36.68,30.88 34.46,32.17 33.89,31.84 33.89,21.47 		"/>
	</g>
</g>
</svg>
